<?xml version="1.0" encoding="UTF-8" standalone="no"?>
<!-- Created with Inkscape (http://www.inkscape.org/) -->

<svg
   xmlns:osb="http://www.openswatchbook.org/uri/2009/osb"
   xmlns:dc="http://purl.org/dc/elements/1.1/"
   xmlns:cc="http://creativecommons.org/ns#"
   xmlns:rdf="http://www.w3.org/1999/02/22-rdf-syntax-ns#"
   xmlns:svg="http://www.w3.org/2000/svg"
   xmlns="http://www.w3.org/2000/svg"
   xmlns:xlink="http://www.w3.org/1999/xlink"
   xmlns:sodipodi="http://sodipodi.sourceforge.net/DTD/sodipodi-0.dtd"
   xmlns:inkscape="http://www.inkscape.org/namespaces/inkscape"
   inkscape:export-ydpi="320"
   inkscape:export-xdpi="320"
   inkscape:export-filename="/Users/lucacorsato/Documents/osd/website/opensensorsdata.github.io/assets/img/seo/osd-opg-facebook.png"
   sodipodi:docname="archeo-opg-facebook.svg"
   inkscape:version="0.92.2 5c3e80d, 2017-08-06"
   version="1.1"
   id="svg2"
   height="315"
   width="600">
  <sodipodi:namedview
     fit-margin-bottom="0"
     fit-margin-right="0"
     fit-margin-left="0"
     fit-margin-top="0"
     inkscape:window-maximized="0"
     inkscape:window-y="20"
     inkscape:window-x="136"
     inkscape:window-height="851"
     inkscape:window-width="1440"
     showgrid="false"
     inkscape:current-layer="layer5"
     inkscape:document-units="px"
     inkscape:cy="130.90472"
     inkscape:cx="317.98509"
     inkscape:zoom="1.2750861"
     inkscape:pageshadow="2"
     inkscape:pageopacity="0.0"
     borderopacity="1.0"
     bordercolor="#666666"
     pagecolor="#ffffff"
     id="base" />
  <defs
     id="defs4">
    <linearGradient
       osb:paint="solid"
       id="linearGradient4444">
      <stop
         id="stop4446"
         offset="0"
         style="stop-color:#002fa7;stop-opacity:1;" />
    </linearGradient>
    <linearGradient
       gradientUnits="userSpaceOnUse"
       y2="393.59521"
       x2="3401.6096"
       y1="393.59521"
       x1="1481.6096"
       id="linearGradient4448"
       xlink:href="#linearGradient4444"
       inkscape:collect="always" />
    <linearGradient
       gradientTransform="translate(-1761.6116,2283.4524)"
       y2="393.59521"
       x2="3401.6096"
       y1="393.59521"
       x1="1481.6096"
       gradientUnits="userSpaceOnUse"
       id="linearGradient4452"
       xlink:href="#linearGradient4444"
       inkscape:collect="always" />
    <clipPath
       clipPathUnits="userSpaceOnUse"
       id="clipPath8097">
      <rect
         style="display:inline;opacity:1;fill:#757575;fill-opacity:1;fill-rule:nonzero;stroke:none;stroke-width:3.5;stroke-linecap:round;stroke-linejoin:round;stroke-miterlimit:4;stroke-dasharray:none;stroke-dashoffset:263;stroke-opacity:1"
         id="rect8099"
         width="600"
         height="436.36365"
         x="1762.1588"
         y="-1034.2781"
         ry="40.909092"
         rx="40.909092"
         clip-path="none"
         mask="none" />
    </clipPath>
    <inkscape:path-effect
       effect="spiro"
       id="path-effect4886"
       is_visible="true" />
    <inkscape:path-effect
       is_visible="true"
       id="path-effect4882"
       effect="spiro" />
    <inkscape:path-effect
       is_visible="true"
       id="path-effect4878"
       effect="spiro" />
    <linearGradient
       inkscape:collect="always"
       xlink:href="#linearGradient4444"
       id="linearGradient4360"
       x1="1481.6096"
       y1="393.59521"
       x2="3401.6096"
       y2="393.59521"
       gradientUnits="userSpaceOnUse" />
    <linearGradient
       inkscape:collect="always"
       xlink:href="#linearGradient4444"
       id="linearGradient4362"
       gradientUnits="userSpaceOnUse"
       x1="1481.6096"
       y1="393.59521"
       x2="3401.6096"
       y2="393.59521"
       gradientTransform="translate(-1761.6116,2283.4524)" />
    <clipPath
       id="clipPath8097-1"
       clipPathUnits="userSpaceOnUse">
      <rect
         mask="none"
         clip-path="none"
         rx="40.909092"
         ry="40.909092"
         y="-1034.2781"
         x="1762.1588"
         height="436.36365"
         width="600"
         id="rect8099-33"
         style="display:inline;opacity:1;fill:#757575;fill-opacity:1;fill-rule:nonzero;stroke:none;stroke-width:3.5;stroke-linecap:round;stroke-linejoin:round;stroke-miterlimit:4;stroke-dasharray:none;stroke-dashoffset:263;stroke-opacity:1" />
    </clipPath>
    <linearGradient
       gradientUnits="userSpaceOnUse"
       y2="393.59521"
       x2="3401.6096"
       y1="393.59521"
       x1="1481.6096"
       id="linearGradient4513"
       xlink:href="#linearGradient4444"
       inkscape:collect="always" />
    <linearGradient
       gradientTransform="translate(-1761.6116,2283.4524)"
       y2="393.59521"
       x2="3401.6096"
       y1="393.59521"
       x1="1481.6096"
       gradientUnits="userSpaceOnUse"
       id="linearGradient4515"
       xlink:href="#linearGradient4444"
       inkscape:collect="always" />
    <clipPath
       clipPathUnits="userSpaceOnUse"
       id="clipPath8097-5">
      <rect
         style="display:inline;opacity:1;fill:#757575;fill-opacity:1;fill-rule:nonzero;stroke:none;stroke-width:3.5;stroke-linecap:round;stroke-linejoin:round;stroke-miterlimit:4;stroke-dasharray:none;stroke-dashoffset:263;stroke-opacity:1"
         id="rect8099-3"
         width="600"
         height="436.36365"
         x="1762.1588"
         y="-1034.2781"
         ry="40.909092"
         rx="40.909092"
         clip-path="none"
         mask="none" />
    </clipPath>
  </defs>
  <metadata
     id="metadata7">
    <rdf:RDF>
      <cc:Work
         rdf:about="">
        <dc:format>image/svg+xml</dc:format>
        <dc:type
           rdf:resource="http://purl.org/dc/dcmitype/StillImage" />
        <dc:title />
      </cc:Work>
    </rdf:RDF>
  </metadata>
  <g
     inkscape:groupmode="layer"
     id="layer5"
     inkscape:label="sfondo"
     transform="translate(-1925.3188,306.76708)"
     style="display:inline">
    <text
       xml:space="preserve"
       style="font-style:normal;font-variant:normal;font-weight:normal;font-stretch:normal;line-height:0%;font-family:Griffo;-inkscape-font-specification:Griffo;text-align:start;letter-spacing:0px;word-spacing:0px;writing-mode:lr-tb;text-anchor:start;fill:#000000;fill-opacity:1;stroke:none;stroke-width:1px;stroke-linecap:butt;stroke-linejoin:miter;stroke-opacity:1"
       x="-255.30142"
       y="1233.9358"
       id="text4157-4"><tspan
         sodipodi:role="line"
         id="tspan4159-7"
         x="-255.30142"
         y="1233.9358"
         style="font-style:normal;font-variant:normal;font-weight:bold;font-stretch:normal;font-size:180px;line-height:1.25;font-family:'Open Sans';-inkscape-font-specification:'Open Sans Bold'"> </tspan></text>
    <rect
       ry="26.120291"
       rx="26.120291"
       y="-299.26709"
       x="2033.7699"
       height="278.61642"
       width="383.0976"
       id="rect4955"
       style="display:inline;opacity:0.2;fill:#f5f5f5;fill-opacity:1;fill-rule:nonzero;stroke:none;stroke-width:3.5;stroke-linecap:round;stroke-linejoin:round;stroke-miterlimit:4;stroke-dasharray:none;stroke-dashoffset:263;stroke-opacity:1" />
    <rect
       style="display:inline;opacity:1;fill:#fbf1a9;fill-opacity:1;fill-rule:nonzero;stroke:none;stroke-width:3.5;stroke-linecap:round;stroke-linejoin:round;stroke-miterlimit:4;stroke-dasharray:none;stroke-dashoffset:263;stroke-opacity:1"
       id="rect4952"
       width="600"
       height="315"
       x="1925.3188"
       y="-306.76709"
       rx="0"
       ry="0" />
    <g
       id="g1058"
       transform="matrix(2.7777778,0,0,2.7777778,2146.6251,-300.76708)">
      <g
         style="display:inline"
         inkscape:label="sfondo"
         id="layer2">
        <path
           inkscape:connector-curvature="0"
           id="path1206"
           d="m 14.949076,36.97084 c -1.213384,0.191495 -1.936162,1.350107 -2.839345,2.07107 -4.382032,4.090341 -8.2246707,9.026929 -9.9008475,14.865861 -0.3530507,1.318699 -0.7476989,2.667518 -0.811038,4.028819 0.048555,1.137575 1.3316269,1.656705 2.3093402,1.300012 2.304039,-0.414725 4.6266895,-0.743637 6.9152603,-1.235084 1.218712,-0.499341 1.173355,-1.983798 1.589236,-3.038509 1.50614,-5.335041 3.043157,-10.663858 4.415898,-16.034702 0.200839,-1.019902 -0.613052,-2.041199 -1.678504,-1.957467 z M 8.5093,54.147775 C 9.0988933,54.210645 9.0913944,55.21589 8.435735,55.13742 7.8013349,55.05413 7.939536,54.191153 8.5093,54.147775 Z m -3.3556576,0.68211 c 0.5717845,0.03884 0.5894498,0.903598 -0.00405,0.943301 -0.6270552,0.133688 -0.7037873,-1.062189 0.00405,-0.943301 z"
           style="opacity:1;fill:#fbf1a9;fill-opacity:1;stroke:none;stroke-width:0.23036963;stroke-linecap:round;stroke-linejoin:round;stroke-miterlimit:4;stroke-dasharray:none;stroke-opacity:1" />
        <path
           inkscape:connector-curvature="0"
           id="path1208"
           d="m 15.556946,41.4428 c -1.075761,0.753753 -0.982793,2.243832 -1.438327,3.366548 -1.158071,4.090305 -2.291961,8.18763 -3.492573,12.265742 -2.7935071,0.569586 -5.6412774,0.914415 -8.4201253,1.51443 -1.32589703,0.449884 -1.0897646,2.084366 -1.22041039,3.209518 -0.15252237,2.711767 -0.24271974,5.43503 -0.53554781,8.132882 0.0550793,1.160693 1.3151141,1.672638 2.328218,1.520574 0.9969951,0.162109 2.0662238,-0.40942 2.1815479,-1.476313 0.7059065,-2.571321 1.6896828,-5.201854 3.7385467,-7.019242 1.6345209,-1.621089 3.8771559,-2.342863 6.0309219,-2.958481 1.195904,-0.532406 1.150164,-2.064316 1.632414,-3.117618 0.886559,-2.826546 1.908681,-5.625302 2.710134,-8.469339 0.04028,-1.237403 -0.534686,-2.423099 -0.751885,-3.638427 -0.4206,-1.135761 -0.275765,-2.68597 -1.441888,-3.373018 -0.463843,-0.146018 -0.865111,-0.133359 -1.321026,0.04274 z"
           style="opacity:1;fill:#fbf1a9;fill-opacity:1;stroke:none;stroke-width:0.23036963;stroke-linecap:round;stroke-linejoin:round;stroke-miterlimit:4;stroke-dasharray:none;stroke-opacity:1" />
        <path
           inkscape:connector-curvature="0"
           id="path1210"
           d="m 13.139865,59.602181 c -2.409356,0.527164 -4.6240123,1.928833 -6.1515894,3.87039 -1.4760426,1.790604 -2.3370709,4.013679 -2.8877194,6.241802 -0.081288,1.048093 0.9321306,1.786361 1.9127593,1.700163 1.5289126,-0.0013 3.0944193,0.18992 4.5963075,-0.114122 1.002819,-0.6985 1.222567,-2.014754 1.807637,-3.031475 0.982514,-2.266985 1.826273,-4.615681 2.384095,-7.021154 0.0591,-0.908257 -0.737184,-1.735096 -1.66149,-1.645604 z"
           style="opacity:1;fill:#fbf1a9;fill-opacity:1;stroke:none;stroke-width:0.23036963;stroke-linecap:round;stroke-linejoin:round;stroke-miterlimit:4;stroke-dasharray:none;stroke-opacity:1" />
        <path
           inkscape:connector-curvature="0"
           id="path1212"
           d="m 22.133279,47.355246 c -1.122055,0.134505 -2.295577,0.148485 -3.362182,0.542853 -1.002523,0.727142 -1.013557,2.101312 -1.481217,3.161826 -1.603755,4.934646 -3.272795,9.856494 -4.80329,14.809733 -0.288026,1.112517 0.7792,1.900275 1.773061,2.031306 2.438118,0.733819 4.856747,1.540598 7.312552,2.211381 1.083863,0.152473 1.882553,-0.871358 1.804167,-1.89147 0.506239,-6.031506 1.036365,-12.06887 1.474395,-18.101119 -0.10603,-0.977216 -0.827527,-1.815436 -1.553939,-2.438078 -0.341178,-0.227803 -0.753713,-0.343345 -1.163547,-0.326432 z"
           style="opacity:1;fill:#fbf1a9;fill-opacity:1;stroke:none;stroke-width:0.23036963;stroke-linecap:round;stroke-linejoin:round;stroke-miterlimit:4;stroke-dasharray:none;stroke-opacity:1" />
        <path
           inkscape:connector-curvature="0"
           id="path1214"
           d="m 13.0591,66.736216 c -1.330136,0.17297 -1.668297,1.671126 -2.152854,2.681874 -0.461782,1.144205 0.718343,2.266273 1.859042,2.033606 2.083659,-0.03882 4.183479,0.06231 6.257222,-0.06271 1.314178,-0.104697 1.728497,-2.078242 0.569395,-2.705181 -1.43604,-0.649128 -3.027533,-0.989503 -4.53275,-1.493323 -0.660351,-0.161959 -1.310147,-0.465989 -2.000055,-0.454266 z"
           style="opacity:1;fill:#fbf1a9;fill-opacity:1;stroke:none;stroke-width:0.23036963;stroke-linecap:round;stroke-linejoin:round;stroke-miterlimit:4;stroke-dasharray:none;stroke-opacity:1" />
        <path
           inkscape:connector-curvature="0"
           id="path1216"
           d="m 34.970312,48.664798 c -1.293907,0.282338 -2.245752,1.356372 -3.506225,1.763117 -1.870806,0.889521 -4.004491,0.772198 -6.004622,0.543954 -1.133872,-0.05163 -1.795217,1.098124 -1.732946,2.118771 -0.511898,5.609326 -0.927008,11.237217 -1.408241,16.842986 -0.05811,1.132436 1.181181,1.69715 2.168416,1.51883 2.591208,-0.03447 5.198014,0.06837 7.779457,-0.05207 1.144452,-0.123287 1.422856,-1.417722 1.289082,-2.378697 -0.05551,-3.270425 0.06215,-6.602841 0.746017,-9.777213 0.565573,-2.960378 1.440113,-5.879474 2.251503,-8.804439 0.135107,-0.934594 -0.634299,-1.807335 -1.582441,-1.775241 z"
           style="opacity:1;fill:#fbf1a9;fill-opacity:1;stroke:none;stroke-width:0.23036963;stroke-linecap:round;stroke-linejoin:round;stroke-miterlimit:4;stroke-dasharray:none;stroke-opacity:1" />
        <path
           inkscape:connector-curvature="0"
           id="path1218"
           d="m 20.562311,35.53148 c -1.039014,-0.05125 -2.247986,0.522333 -2.286599,1.693351 -0.130571,0.470353 -0.916278,0.410008 -1.168495,0.875585 -0.512836,0.49875 -0.385578,1.24801 -0.42227,1.86118 -0.477624,1.368116 0.289365,2.773545 0.506725,4.121387 0.396922,1.303498 0.510035,2.712905 1.134884,3.931426 0.932754,0.922131 2.317952,0.372226 3.465443,0.298311 1.125503,-0.07871 1.76294,-1.259663 1.440679,-2.29058 -0.385298,-3.094956 -0.678857,-6.210746 -1.125405,-9.292629 -0.155408,-0.707206 -0.822137,-1.218343 -1.544962,-1.198031 z"
           style="opacity:1;fill:#fbf1a9;fill-opacity:1;stroke:none;stroke-width:0.23036963;stroke-linecap:round;stroke-linejoin:round;stroke-miterlimit:4;stroke-dasharray:none;stroke-opacity:1" />
        <path
           inkscape:connector-curvature="0"
           id="path1220"
           d="m 28.942006,16.525085 c -2.71571,-0.05697 -5.423112,0.331394 -8.016852,1.135565 -1.65955,0.532663 -3.382902,1.034708 -4.857102,1.973177 -0.738053,0.809115 -0.80988,2.028006 -1.17077,3.042092 -0.495336,2.017073 -0.609808,4.127249 -0.498708,6.194189 0.115658,1.303201 1.629883,1.959448 2.756561,1.450609 0.47715,-0.174127 0.875427,-0.563107 1.037563,-1.047012 0.71734,-0.02633 1.026749,0.749331 1.733007,0.764745 1.102853,-0.285797 0.569512,0.148589 0.602403,0.971908 0.6461,5.497737 1.312584,10.989914 1.949601,16.487294 0.191066,0.986483 1.188938,1.620828 1.448359,2.533166 -0.05828,1.154011 1.088015,1.810617 2.09909,1.917953 2.858607,0.525606 5.842032,-0.304216 8.17405,-1.999115 1.317261,-0.969203 2.665417,-1.979987 3.684145,-3.260545 1.219517,-3.064589 2.504215,-6.11499 3.728533,-9.181717 0.907283,-2.385014 0.732798,-4.995733 0.581549,-7.492413 -0.231434,-2.110805 -0.77252,-4.20658 -0.869018,-6.315588 -0.08364,-1.282987 0.169557,-2.545151 0.277795,-3.811001 -0.02791,-1.300315 -1.427173,-1.703003 -2.464099,-1.959042 -3.011528,-0.814603 -6.096062,-1.472937 -9.233009,-1.40224 -0.321022,-0.0032 -0.642064,-0.0039 -0.963098,-0.002 z m -6.123692,9.237957 c 0.719472,0.02048 0.459449,1.195186 -0.201349,0.961074 -0.510873,-0.210435 -0.341278,-0.991561 0.201349,-0.961074 z m 10.712412,0.04792 c 0.657771,-0.0058 0.575289,1.12077 -0.07379,0.995044 -0.660104,-0.113795 -0.503841,-0.896106 0.07379,-0.995044 z"
           style="opacity:1;fill:#fbf1a9;fill-opacity:1;stroke:none;stroke-width:0.23036963;stroke-linecap:round;stroke-linejoin:round;stroke-miterlimit:4;stroke-dasharray:none;stroke-opacity:1" />
        <path
           inkscape:connector-curvature="0"
           id="path1222"
           d="m 40.080963,40.396688 c -1.185699,0.533309 -1.355341,1.997047 -1.887199,3.045257 -2.806068,7.210885 -5.289295,14.717095 -5.617423,22.508924 0.03005,1.492216 -0.216773,3.0548 0.237219,4.496317 0.451524,1.305073 2.036697,0.969786 3.115575,1.005308 6.323603,-0.01729 12.655047,0.03448 18.973766,-0.02583 1.134933,-0.06659 1.565698,-1.297924 1.381551,-2.277644 -0.172374,-2.529637 -0.232928,-5.083665 -0.547757,-7.593331 -0.275304,-1.318953 -1.838956,-1.213098 -2.885783,-1.355833 -2.981601,-0.339492 -5.963553,-0.675375 -8.945453,-1.012297 -0.628535,-5.93095 -1.154618,-11.877201 -1.855106,-17.797854 -0.262343,-0.805653 -1.16694,-1.258306 -1.96939,-0.993019 z"
           style="opacity:1;fill:#fbf1a9;fill-opacity:1;stroke:none;stroke-width:0.23036963;stroke-linecap:round;stroke-linejoin:round;stroke-miterlimit:4;stroke-dasharray:none;stroke-opacity:1" />
        <path
           inkscape:connector-curvature="0"
           id="path1224"
           d="m 42.391633,38.158683 c -1.053152,0.115441 -1.562932,1.256241 -1.322449,2.206753 0.616496,6.219803 1.20313,12.446421 1.953266,18.650473 0.295523,1.044434 1.426656,1.220041 2.351838,1.276441 2.884108,0.337123 5.774487,0.70707 8.66301,0.952124 1.1385,0.04708 1.78977,-1.195736 1.471721,-2.197216 -0.626259,-4.40737 -1.734325,-8.830665 -4.023353,-12.68971 -2.10877,-3.311637 -4.968733,-6.203275 -8.412823,-8.111351 -0.21789,-0.09131 -0.451028,-0.07458 -0.68121,-0.08751 z m 4.633939,17.947459 c 0.68858,0.0026 0.495326,1.195387 -0.200898,0.941501 -0.524256,-0.300269 -0.344839,-0.918449 0.200898,-0.941501 z m 4.384672,0.79662 c 0.66971,-0.132088 0.700394,1.087264 0.03082,0.956349 -0.517688,-0.07308 -0.635055,-0.786968 -0.03082,-0.956349 z"
           style="opacity:1;fill:#fbf1a9;fill-opacity:1;stroke:none;stroke-width:0.23036963;stroke-linecap:round;stroke-linejoin:round;stroke-miterlimit:4;stroke-dasharray:none;stroke-opacity:1" />
        <path
           inkscape:connector-curvature="0"
           id="path1226"
           d="M 32.190578,0.69302237 C 30.665559,0.87162393 29.109745,1.0596297 27.650902,1.5517342 26.596246,2.1693727 26.500739,3.5488442 25.962286,4.5499276 25.451469,5.5367594 25.067132,6.9459007 23.851377,7.2450585 22.40166,7.2212268 20.603083,6.9480638 19.927895,5.4655432 19.182723,4.1531378 19.199392,2.1247188 17.572905,1.5024657 16.106088,1.0459509 14.931126,2.4943372 14.470564,3.7195484 c -1.098687,3.0154728 -0.999807,6.3002566 -0.998643,9.4633776 0.103731,2.116827 0.05632,4.263421 0.37931,6.356659 0.230493,1.183962 1.706114,1.464821 2.604179,0.826066 3.630586,-1.725587 7.582992,-2.851623 11.546895,-2.897041 2.796511,-0.134803 5.579822,0.09863 8.344826,0.732955 1.374126,0.256231 2.700072,0.725641 4.056889,1.033738 1.165049,0.109576 1.89106,-1.10545 1.735196,-2.153417 C 42.432708,12.924982 43.561848,8.656943 42.406931,4.5366407 42.156585,3.5634989 41.762725,2.2425912 40.524213,2.2983092 39.137066,2.4717334 38.633088,4.018004 37.972486,5.0581265 37.518759,5.7952244 37.179312,6.7165705 36.488862,7.242134 35.842419,6.6648913 36.0006,5.6539048 35.674244,4.9028924 35.256325,3.5981136 34.800841,2.2003896 33.829486,1.2005555 33.378252,0.81810628 32.773495,0.66578657 32.190578,0.69302237 Z M 33.151652,13.678311 c 0.757981,-0.01048 0.437878,1.251453 -0.206974,0.91158 -0.498633,-0.177102 -0.310628,-0.959697 0.206974,-0.91158 z m -5.274431,0.01552 c 0.852741,-0.113048 0.545359,1.267735 -0.165127,0.917879 -0.410096,-0.220413 -0.326337,-0.878586 0.165127,-0.917879 z m 10.288569,0.35163 c 0.694173,0.0177 0.309298,1.255695 -0.272888,0.90303 -0.431537,-0.22328 -0.311577,-1.072929 0.272888,-0.90303 z m -15.552874,0.1847 c 0.623116,-0.01671 0.671223,0.923748 0.07896,0.989645 -0.496127,0.03513 -0.776278,-0.668287 -0.283012,-0.92103 0.05061,-0.06259 0.129707,-0.07313 0.204048,-0.06862 z m -4.768697,1.293579 c 0.674288,0.0044 0.547774,1.031614 -0.05354,0.982446 -0.582104,-0.07926 -0.596598,-1.040088 0.05354,-0.982446 z"
           style="opacity:1;fill:#fbf1a9;fill-opacity:1;stroke:none;stroke-width:0.23036963;stroke-linecap:round;stroke-linejoin:round;stroke-miterlimit:4;stroke-dasharray:none;stroke-opacity:1" />
      </g>
      <g
         style="display:inline"
         inkscape:label="Disegno"
         id="layer1-0">
        <g
           style="stroke:#00449e;stroke-opacity:1"
           transform="matrix(0.98295947,0,0,0.98295947,0.46295569,0.54969148)"
           id="g1146">
          <path
             inkscape:connector-curvature="0"
             style="fill:none;fill-rule:evenodd;stroke:#00449e;stroke-width:2;stroke-linecap:round;stroke-linejoin:round;stroke-miterlimit:4;stroke-dasharray:none;stroke-opacity:1"
             d="M 15.537281,36.505574 C -2.2323792,51.139605 2.0885852,60.713422 0.29023325,71.688967 H 56.40948 C 55.63939,58.643734 55.94006,45.162548 41.362228,37.739054"
             id="path1064" />
          <path
             inkscape:connector-curvature="0"
             style="fill:none;fill-rule:evenodd;stroke:#00449e;stroke-width:2;stroke-linecap:round;stroke-linejoin:round;stroke-miterlimit:4;stroke-dasharray:none;stroke-opacity:1"
             d="m 41.852176,18.999716 c -2.614443,5.297829 2.127211,11.400834 -0.489948,18.739338"
             id="path1062" />
          <path
             inkscape:connector-curvature="0"
             style="fill:none;fill-rule:evenodd;stroke:#00449e;stroke-width:2;stroke-linecap:round;stroke-linejoin:round;stroke-miterlimit:4;stroke-dasharray:none;stroke-opacity:1"
             d="m 16.103337,19.728964 c -2.718081,6.104517 -0.988038,11.918044 -0.566056,16.77661"
             id="path1060" />
          <path
             inkscape:connector-curvature="0"
             style="fill:none;fill-rule:evenodd;stroke:#00449e;stroke-width:2;stroke-linecap:round;stroke-linejoin:round;stroke-miterlimit:4;stroke-dasharray:none;stroke-opacity:1"
             d="M 14.146467,20.773099 C 22.512655,15.94536 31.748432,15.356867 41.852176,18.999716 41.665289,13.303765 44.313715,7.3897136 41.286033,1.9122856 38.938181,1.5100267 37.3467,10.175138 35.795354,6.3664929 35.423822,4.2253623 34.847943,2.1523475 33.187745,0.44077225 L 27.643235,1.3182472 C 26.338373,3.6618062 25.749727,7.6765366 23.271377,7.2819582 17.053273,6.9553381 20.054943,1.1268564 16.539537,1.3665178 13.598338,2.0002695 13.18618,9.518635 14.146467,20.773099 Z"
             id="path1000" />
        </g>
        <path
           sodipodi:nodetypes="cc"
           inkscape:connector-curvature="0"
           id="path893"
           d="M 28.483972,23.606986 C 23.221117,16.479709 18.9603,21.680366 18.05301,24.59049"
           style="fill:none;fill-rule:evenodd;stroke:#00449e;stroke-width:1.9659189;stroke-linecap:butt;stroke-linejoin:round;stroke-miterlimit:4;stroke-dasharray:none;stroke-opacity:1" />
        <path
           sodipodi:nodetypes="cc"
           inkscape:connector-curvature="0"
           id="path897"
           d="M 28.323852,22.646265 27.55132,36.903284"
           style="fill:none;fill-rule:evenodd;stroke:#00449e;stroke-width:1.9659189;stroke-linecap:butt;stroke-linejoin:miter;stroke-miterlimit:4;stroke-dasharray:none;stroke-opacity:1" />
        <path
           sodipodi:nodetypes="cc"
           inkscape:connector-curvature="0"
           id="path900"
           d="m 28.483972,22.726325 c 2.927096,-4.197524 7.708366,-4.334221 10.512486,2.283612"
           style="fill:none;fill-rule:evenodd;stroke:#00449e;stroke-width:1.86762297;stroke-linecap:butt;stroke-linejoin:miter;stroke-miterlimit:4;stroke-dasharray:none;stroke-opacity:1" />
        <path
           sodipodi:nodetypes="cc"
           inkscape:connector-curvature="0"
           id="path906"
           d="m 24.032392,42.959035 c 3.531855,-2.743072 6.45024,-2.715978 8.287175,0.877457"
           style="fill:none;fill-rule:evenodd;stroke:#00449e;stroke-width:1.9659189;stroke-linecap:butt;stroke-linejoin:miter;stroke-miterlimit:4;stroke-dasharray:none;stroke-opacity:1" />
        <path
           inkscape:connector-curvature="0"
           id="path967"
           d="m 18.70619,48.222117 -2.970717,-11.788926 1.469591,3.560532 -0.636397,-10.055665 1.359161,8.165358 -0.05986,-9.574536 0.893818,9.129758 0.2751,-8.76769 1.04078,7.205405 0.720541,-6.805105 2.161621,18.413812 z"
           style="fill:none;fill-rule:evenodd;stroke:#00449e;stroke-width:1.9659189;stroke-linecap:round;stroke-linejoin:round;stroke-miterlimit:4;stroke-dasharray:none;stroke-opacity:1" />
        <path
           inkscape:connector-curvature="0"
           id="path970"
           d="M 18.70619,48.222117 12.590492,66.902795 22.77639,70.046171 24.432707,49.77884 22.959826,47.70506 Z"
           style="fill:none;fill-rule:evenodd;stroke:#00449e;stroke-width:1.9659189;stroke-linecap:butt;stroke-linejoin:miter;stroke-miterlimit:4;stroke-dasharray:none;stroke-opacity:1" />
        <path
           sodipodi:nodetypes="cc"
           inkscape:connector-curvature="0"
           id="path972"
           d="M 41.120334,37.636607 C 35.967745,49.383041 32.129008,60.761733 33.175903,70.77295"
           style="fill:none;fill-rule:evenodd;stroke:#00449e;stroke-width:1.9659189;stroke-linecap:butt;stroke-linejoin:miter;stroke-miterlimit:4;stroke-dasharray:none;stroke-opacity:1" />
        <path
           sodipodi:nodetypes="cc"
           inkscape:connector-curvature="0"
           id="path974"
           d="M 16.470269,38.213457 10.998204,57.523179 2.2270353,59.003172"
           style="fill:none;fill-rule:evenodd;stroke:#00449e;stroke-width:1.9659189;stroke-linecap:butt;stroke-linejoin:miter;stroke-miterlimit:4;stroke-dasharray:none;stroke-opacity:1" />
        <circle
           r="0.52369088"
           cy="26.248966"
           cx="22.799709"
           id="path978"
           style="opacity:1;fill:#000000;fill-opacity:1;stroke:#00449e;stroke-width:0.9185372;stroke-linecap:round;stroke-linejoin:round;stroke-miterlimit:4;stroke-dasharray:none;stroke-opacity:1" />
        <circle
           style="opacity:1;fill:#000000;fill-opacity:1;stroke:#00449e;stroke-width:0.9185372;stroke-linecap:round;stroke-linejoin:round;stroke-miterlimit:4;stroke-dasharray:none;stroke-opacity:1"
           id="circle980"
           cx="33.527756"
           cy="26.329027"
           r="0.52369088" />
        <circle
           style="opacity:1;fill:#000000;fill-opacity:1;stroke:#00449e;stroke-width:0.9185372;stroke-linecap:round;stroke-linejoin:round;stroke-miterlimit:4;stroke-dasharray:none;stroke-opacity:1"
           id="circle982"
           cx="17.835985"
           cy="16.00128"
           r="0.52369088" />
        <circle
           r="0.52369088"
           cy="14.720321"
           cx="22.639589"
           id="circle984"
           style="opacity:1;fill:#000000;fill-opacity:1;stroke:#00449e;stroke-width:0.9185372;stroke-linecap:round;stroke-linejoin:round;stroke-miterlimit:4;stroke-dasharray:none;stroke-opacity:1" />
        <circle
           style="opacity:1;fill:#000000;fill-opacity:1;stroke:#00449e;stroke-width:0.9185372;stroke-linecap:round;stroke-linejoin:round;stroke-miterlimit:4;stroke-dasharray:none;stroke-opacity:1"
           id="circle986"
           cx="27.923552"
           cy="14.1599"
           r="0.52369088" />
        <circle
           r="0.52369088"
           cy="14.1599"
           cx="33.127457"
           id="circle988"
           style="opacity:1;fill:#000000;fill-opacity:1;stroke:#00449e;stroke-width:0.9185372;stroke-linecap:round;stroke-linejoin:round;stroke-miterlimit:4;stroke-dasharray:none;stroke-opacity:1" />
        <circle
           style="opacity:1;fill:#000000;fill-opacity:1;stroke:#00449e;stroke-width:0.9185372;stroke-linecap:round;stroke-linejoin:round;stroke-miterlimit:4;stroke-dasharray:none;stroke-opacity:1"
           id="circle990"
           cx="38.091183"
           cy="14.480141"
           r="0.52369088" />
        <path
           sodipodi:nodetypes="cc"
           inkscape:connector-curvature="0"
           id="path996"
           d="m 31.045893,28.570708 c 1.541997,1.230053 3.315805,1.060878 5.283964,0.16012"
           style="fill:none;fill-rule:evenodd;stroke:#00449e;stroke-width:1.9659189;stroke-linecap:butt;stroke-linejoin:bevel;stroke-miterlimit:4;stroke-dasharray:none;stroke-opacity:1" />
        <path
           style="fill:none;fill-rule:evenodd;stroke:#00449e;stroke-width:1.9659189;stroke-linecap:butt;stroke-linejoin:bevel;stroke-miterlimit:4;stroke-dasharray:none;stroke-opacity:1"
           d="m 20.077667,28.810888 c 1.541997,1.230053 3.315804,1.060879 5.283964,0.16012"
           id="path998"
           inkscape:connector-curvature="0"
           sodipodi:nodetypes="cc" />
        <path
           inkscape:connector-curvature="0"
           id="path1002"
           d="m 41.258729,37.717568 2.22179,21.907058 11.714592,1.30874"
           style="fill:none;fill-rule:evenodd;stroke:#00449e;stroke-width:1.9659189;stroke-linecap:butt;stroke-linejoin:miter;stroke-miterlimit:4;stroke-dasharray:none;stroke-opacity:1" />
        <circle
           r="0.52369088"
           cy="55.306011"
           cx="5.1201692"
           id="circle1004"
           style="opacity:1;fill:#000000;fill-opacity:1;stroke:#00449e;stroke-width:0.9185372;stroke-linecap:round;stroke-linejoin:round;stroke-miterlimit:4;stroke-dasharray:none;stroke-opacity:1" />
        <circle
           style="opacity:1;fill:#000000;fill-opacity:1;stroke:#00449e;stroke-width:0.9185372;stroke-linecap:round;stroke-linejoin:round;stroke-miterlimit:4;stroke-dasharray:none;stroke-opacity:1"
           id="circle1006"
           cx="8.4826908"
           cy="54.665531"
           r="0.52369088" />
        <circle
           r="0.52369088"
           cy="56.586971"
           cx="46.991577"
           id="circle1008"
           style="opacity:1;fill:#000000;fill-opacity:1;stroke:#00449e;stroke-width:0.9185372;stroke-linecap:round;stroke-linejoin:round;stroke-miterlimit:4;stroke-dasharray:none;stroke-opacity:1" />
        <circle
           style="opacity:1;fill:#000000;fill-opacity:1;stroke:#00449e;stroke-width:0.9185372;stroke-linecap:round;stroke-linejoin:round;stroke-miterlimit:4;stroke-dasharray:none;stroke-opacity:1"
           id="circle1010"
           cx="51.474937"
           cy="57.387569"
           r="0.52369088" />
        <path
           sodipodi:nodetypes="cc"
           inkscape:connector-curvature="0"
           id="path1012"
           d="M 15.087921,59.483897 C 9.6486452,60.679491 5.986668,62.954445 4.2658229,70.9182"
           style="fill:none;fill-rule:evenodd;stroke:#00449e;stroke-width:1.9659189;stroke-linecap:butt;stroke-linejoin:miter;stroke-miterlimit:4;stroke-dasharray:none;stroke-opacity:1" />
        <path
           sodipodi:nodetypes="cc"
           inkscape:connector-curvature="0"
           id="path1014"
           d="M 37.050397,46.984519 C 32.158366,51.868596 28.177656,52.34796 24.56103,51.067581"
           style="fill:none;fill-rule:evenodd;stroke:#00449e;stroke-width:1.9659189;stroke-linecap:round;stroke-linejoin:round;stroke-miterlimit:4;stroke-dasharray:none;stroke-opacity:1" />
        <path
           inkscape:connector-curvature="0"
           id="path1016"
           d="m 12.590492,66.902795 -2.039971,4.114246"
           style="fill:none;fill-rule:evenodd;stroke:#00449e;stroke-width:1.9659189;stroke-linecap:butt;stroke-linejoin:miter;stroke-miterlimit:4;stroke-dasharray:none;stroke-opacity:1" />
      </g>
    </g>
    <g
       aria-label="Archeostickers"
       style="font-style:normal;font-variant:normal;font-weight:normal;font-stretch:normal;font-size:48.37069702px;line-height:125%;font-family:Georgia;-inkscape-font-specification:Georgia;letter-spacing:0px;word-spacing:0px;fill:#111111;fill-opacity:1;stroke:none;stroke-width:1.2092675px;stroke-linecap:butt;stroke-linejoin:miter;stroke-opacity:1"
       id="text1064">
      <path
         d="m 2102.349,-51.340637 h -13.9585 v -1.676914 q 1.8422,-0.118093 3.0468,-0.47237 1.2281,-0.354278 1.2281,-0.873885 0,-0.212566 -0.047,-0.519607 -0.047,-0.30704 -0.1417,-0.543225 l -2.787,-7.510685 h -11.7384 q -0.6613,1.653295 -1.0865,2.881458 -0.4015,1.228162 -0.7321,2.267376 -0.3071,1.015596 -0.4252,1.653295 -0.1181,0.6377 -0.1181,1.039215 0,0.94474 1.488,1.464347 1.488,0.519607 3.3538,0.614081 v 1.676914 h -12.6122 v -1.676914 q 0.614,-0.04724 1.5352,-0.259804 0.9211,-0.236185 1.5115,-0.614081 0.9448,-0.637699 1.4644,-1.322636 0.5196,-0.708555 1.0156,-1.936717 2.5272,-6.306141 5.5739,-14.171103 3.0468,-7.864962 5.4323,-14.005773 h 1.8895 l 11.1715,28.909049 q 0.3543,0.921122 0.8031,1.487966 0.4487,0.566844 1.2517,1.11007 0.5433,0.330659 1.4172,0.566844 0.8738,0.212566 1.4643,0.236185 z m -13.5098,-13.698733 -5.078,-12.990177 -4.9835,12.990177 z"
         style="stroke-width:1.2092675px;fill:#111111;fill-opacity:1"
         id="path1074" />
      <path
         d="m 2120.8187,-71.628932 q 0,1.204543 -0.5905,2.149283 -0.5905,0.921122 -1.8186,0.921122 -1.3226,0 -2.0312,-0.684937 -0.6849,-0.684936 -0.6849,-1.511584 0,-0.519607 0.071,-0.94474 0.095,-0.425133 0.1653,-0.850266 -1.11,0 -2.598,0.897503 -1.488,0.897503 -2.5272,2.550798 v 13.557022 q 0,0.826648 0.3071,1.346255 0.3306,0.519607 1.0156,0.77941 0.5904,0.236185 1.5115,0.354278 0.9448,0.118092 1.6297,0.16533 v 1.558821 h -12.2816 v -1.558821 q 0.5432,-0.04724 1.1101,-0.09447 0.5904,-0.04724 1.0156,-0.188948 0.6613,-0.212566 0.9683,-0.732173 0.3307,-0.543226 0.3307,-1.393492 v -14.383669 q 0,-0.732174 -0.3543,-1.440729 -0.3307,-0.708555 -0.9447,-1.133688 -0.4488,-0.283422 -1.0629,-0.401515 -0.614,-0.141711 -1.3226,-0.188948 v -1.535203 l 7.7469,-0.519607 0.3306,0.330659 v 3.282973 h 0.1181 q 1.4644,-1.913099 3.2594,-2.905076 1.795,-0.991978 3.2829,-0.991978 1.488,0 2.4091,0.968359 0.9448,0.968359 0.9448,2.598036 z"
         style="stroke-width:1.2092675px;fill:#111111;fill-opacity:1"
         id="path1076" />
      <path
         d="m 2133.5963,-50.726556 q -5.0544,0 -7.9122,-3.353828 -2.8579,-3.353827 -2.8579,-8.99865 0,-2.456324 0.7558,-4.58199 0.7795,-2.149284 2.2438,-3.897053 1.3935,-1.676914 3.4955,-2.692509 2.1021,-1.039215 4.582,-1.039215 3.4247,0 5.574,1.653296 2.1493,1.629676 2.1493,4.463897 0,1.180925 -0.5669,2.102047 -0.5668,0.897503 -1.8658,0.897503 -1.3935,0 -2.1729,-0.708555 -0.7558,-0.708555 -0.7558,-1.58244 0,-1.062833 0.2834,-2.172902 0.2834,-1.133689 0.3307,-1.653296 -0.4252,-0.732173 -1.2754,-0.968358 -0.8267,-0.259804 -1.795,-0.259804 -1.1337,0 -2.1729,0.495989 -1.0156,0.47237 -1.984,1.771388 -0.8739,1.180925 -1.4171,3.188498 -0.5432,2.007573 -0.5432,4.794556 0,4.393042 1.9367,7.180025 1.9603,2.763365 5.1252,2.763365 2.291,0 3.8262,-1.110069 1.5588,-1.11007 2.8814,-3.330209 l 1.5116,0.991977 q -1.5588,2.786983 -4.1096,4.41666 -2.5508,1.629677 -5.2669,1.629677 z"
         style="stroke-width:1.2092675px;fill:#111111;fill-opacity:1"
         id="path1078" />
      <path
         d="m 2170.1341,-51.340637 h -11.4313 v -1.558821 q 0.5432,-0.04724 1.2045,-0.09447 0.6613,-0.04724 1.0865,-0.188948 0.6613,-0.212566 0.9683,-0.732173 0.3307,-0.543226 0.3307,-1.393492 v -11.974582 q 0,-2.479943 -1.181,-3.826197 -1.1573,-1.346255 -2.8342,-1.346255 -1.2281,0 -2.291,0.401514 -1.0392,0.377897 -1.8658,0.944741 -0.8031,0.590462 -1.2282,1.180925 -0.4251,0.590462 -0.6613,0.991977 v 13.391692 q 0,0.803029 0.307,1.322636 0.3307,0.519607 0.992,0.803029 0.5196,0.236185 1.0628,0.354278 0.5669,0.118092 1.2282,0.16533 v 1.558821 h -11.4314 v -1.558821 q 0.5433,-0.04724 1.1337,-0.09447 0.5905,-0.07086 0.992,-0.188948 0.6613,-0.212566 0.992,-0.732173 0.3306,-0.543226 0.3306,-1.393492 v -27.114043 q 0,-0.803029 -0.3779,-1.606058 -0.3542,-0.803029 -0.9447,-1.204544 -0.4251,-0.307041 -1.5116,-0.425133 -1.0628,-0.141711 -1.7241,-0.188948 v -1.511584 l 8.6207,-0.543226 0.3307,0.354278 v 16.249531 h 0.095 q 0.7794,-0.779411 1.4171,-1.369874 0.6377,-0.614081 1.6769,-1.275399 0.8975,-0.566844 2.102,-0.94474 1.2282,-0.377896 2.7398,-0.377896 3.1176,0 4.7945,1.983954 1.6769,1.960336 1.6769,5.668441 v 12.116293 q 0,0.826648 0.2835,1.346255 0.307,0.495988 0.9919,0.77941 0.5433,0.212567 0.9684,0.330659 0.4488,0.09447 1.1573,0.141712 z"
         style="stroke-width:1.2092675px;fill:#111111;fill-opacity:1"
         id="path1080" />
      <path
         d="m 2193.6818,-56.82013 q -1.4644,2.786983 -3.9207,4.440279 -2.4563,1.653295 -5.6448,1.653295 -2.8106,0 -4.9363,-0.991977 -2.102,-0.991977 -3.4719,-2.69251 -1.3699,-1.700532 -2.0548,-3.967909 -0.6613,-2.267376 -0.6613,-4.794556 0,-2.267376 0.7085,-4.440279 0.7322,-2.196521 2.1257,-3.94429 1.3462,-1.676914 3.3302,-2.692509 2.0076,-1.039215 4.4875,-1.039215 2.5508,0 4.3694,0.803029 1.8186,0.80303 2.9523,2.196521 1.0865,1.322637 1.6061,3.117643 0.5432,1.795006 0.5432,3.897053 v 1.558821 h -15.4229 q 0,2.290995 0.4252,4.156857 0.4487,1.865862 1.3935,3.282972 0.9211,1.369874 2.409,2.172903 1.488,0.77941 3.5428,0.77941 2.1021,0 3.6137,-0.968358 1.5352,-0.991977 2.9523,-3.542776 z m -5.2197,-8.880558 q 0,-1.322636 -0.2362,-2.83422 -0.2126,-1.511585 -0.7086,-2.52718 -0.5432,-1.086452 -1.4879,-1.771388 -0.9448,-0.684937 -2.4327,-0.684937 -2.48,0 -4.1333,2.078429 -1.6297,2.054809 -1.7714,5.739296 z"
         style="stroke-width:1.2092675px;fill:#111111;fill-opacity:1"
         id="path1082" />
      <path
         d="m 2219.1189,-63.220745 q 0,2.456325 -0.7794,4.841793 -0.7794,2.361851 -2.2202,4.015146 -1.6296,1.889481 -3.7789,2.810602 -2.1493,0.921122 -4.8182,0.921122 -2.2201,0 -4.2277,-0.826648 -2.0076,-0.850266 -3.5664,-2.456324 -1.5352,-1.58244 -2.4563,-3.849816 -0.8975,-2.290995 -0.8975,-5.125216 0,-5.455874 3.1649,-8.927795 3.1885,-3.47192 8.3373,-3.47192 4.889,0 8.0539,3.306591 3.1885,3.282972 3.1885,8.762465 z m -4.889,0.04724 q 0,-1.771388 -0.3543,-3.731724 -0.3543,-1.983954 -1.0628,-3.353827 -0.7558,-1.464348 -1.984,-2.338232 -1.2282,-0.897503 -2.9996,-0.897503 -1.8186,0 -3.1176,0.897503 -1.2754,0.897503 -2.0784,2.456324 -0.7558,1.440729 -1.0629,3.282972 -0.307,1.842244 -0.307,3.566395 0,2.267376 0.3543,4.204093 0.3779,1.913099 1.1809,3.424683 0.803,1.511585 2.0076,2.385469 1.2281,0.850267 3.0231,0.850267 2.9524,0 4.6765,-2.857839 1.7242,-2.857839 1.7242,-7.888581 z"
         style="stroke-width:1.2092675px;fill:#111111;fill-opacity:1"
         id="path1084" />
      <path
         d="m 2237.872,-62.748375 q 0.9683,0.850266 1.488,1.960336 0.5196,1.11007 0.5196,2.716128 0,3.235735 -2.4327,5.290545 -2.4091,2.05481 -6.259,2.05481 -2.0311,0 -3.7553,-0.732174 -1.7005,-0.732173 -2.4327,-1.346254 l -0.4724,1.535202 h -1.7714 l -0.2361,-8.101147 h 1.6296 q 0.189,0.921122 0.8031,2.149284 0.614,1.228162 1.4879,2.22014 0.9212,1.039214 2.1966,1.747769 1.299,0.708555 2.905,0.708555 2.2674,0 3.4956,-1.015596 1.2281,-1.039214 1.2281,-2.952313 0,-0.991977 -0.4015,-1.700532 -0.3779,-0.732174 -1.1337,-1.275399 -0.7794,-0.543226 -1.9131,-0.968359 -1.1337,-0.448751 -2.5272,-0.873885 -1.11,-0.330659 -2.4799,-0.897503 -1.3463,-0.590462 -2.3146,-1.369873 -1.0392,-0.826648 -1.7005,-2.031191 -0.6614,-1.204544 -0.6614,-2.834221 0,-2.857839 2.1257,-4.841793 2.1257,-1.983955 5.6921,-1.983955 1.3698,0 2.7869,0.354278 1.4408,0.354277 2.3383,0.850266 l 0.5432,-1.228162 h 1.7005 l 0.3543,7.487066 h -1.6297 q -0.496,-2.503562 -2.1492,-4.062383 -1.6297,-1.58244 -3.9916,-1.58244 -1.9367,0 -3.0468,0.968359 -1.11,0.968359 -1.11,2.338232 0,1.062832 0.3542,1.771388 0.3779,0.708555 1.1101,1.204543 0.7086,0.47237 1.7714,0.897504 1.0865,0.401514 2.6689,0.921121 1.5588,0.495989 2.9287,1.157307 1.3935,0.661318 2.291,1.464347 z"
         style="stroke-width:1.2092675px;fill:#111111;fill-opacity:1"
         id="path1086" />
      <path
         d="m 2257.7588,-52.356233 q -1.5352,0.6377 -2.9051,1.062833 -1.3699,0.448751 -3.3538,0.448751 -2.9287,0 -4.1333,-1.464347 -1.1809,-1.487966 -1.1809,-4.180475 v -15.777161 h -4.2041 v -2.267377 h 4.2986 v -7.25088 h 4.2985 v 7.25088 h 6.6841 v 2.267377 h -6.6368 v 13.013796 q 0,1.464347 0.094,2.456324 0.1181,0.968359 0.5197,1.700533 0.3779,0.684936 1.1336,1.039214 0.7558,0.354277 2.0312,0.354277 0.5905,0 1.7242,-0.09447 1.1573,-0.118092 1.6297,-0.283422 z"
         style="stroke-width:1.2092675px;fill:#111111;fill-opacity:1"
         id="path1088" />
      <path
         d="m 2271.4102,-51.340637 h -11.266 v -1.558821 q 0.5432,-0.04724 1.1101,-0.09447 0.5905,-0.04724 1.0156,-0.188948 0.6613,-0.212566 0.9683,-0.732173 0.3307,-0.543226 0.3307,-1.393492 v -14.383669 q 0,-0.755792 -0.3543,-1.369873 -0.3306,-0.6377 -0.9447,-1.062833 -0.4488,-0.283422 -1.299,-0.47237 -0.8503,-0.212567 -1.5589,-0.259804 v -1.535203 l 8.2193,-0.519607 0.3306,0.330659 v 18.989278 q 0,0.826648 0.3071,1.369873 0.3306,0.543226 1.0156,0.803029 0.5196,0.212567 1.0156,0.354278 0.496,0.118092 1.11,0.16533 z m -2.9759,-32.758866 q 0,1.346255 -0.8975,2.361851 -0.8739,0.991977 -2.1729,0.991977 -1.2045,0 -2.102,-0.94474 -0.8739,-0.968359 -0.8739,-2.196521 0,-1.299018 0.8739,-2.267377 0.8975,-0.968358 2.102,-0.968358 1.3463,0 2.1965,0.921121 0.8739,0.897503 0.8739,2.102047 z"
         style="stroke-width:1.2092675px;fill:#111111;fill-opacity:1"
         id="path1090" />
      <path
         d="m 2285.0381,-50.726556 q -5.0543,0 -7.9122,-3.353828 -2.8578,-3.353827 -2.8578,-8.99865 0,-2.456324 0.7558,-4.58199 0.7794,-2.149284 2.2437,-3.897053 1.3935,-1.676914 3.4956,-2.692509 2.102,-1.039215 4.582,-1.039215 3.4247,0 5.5739,1.653296 2.1493,1.629676 2.1493,4.463897 0,1.180925 -0.5668,2.102047 -0.5669,0.897503 -1.8659,0.897503 -1.3935,0 -2.1729,-0.708555 -0.7558,-0.708555 -0.7558,-1.58244 0,-1.062833 0.2834,-2.172902 0.2835,-1.133689 0.3307,-1.653296 -0.4251,-0.732173 -1.2754,-0.968358 -0.8266,-0.259804 -1.795,-0.259804 -1.1337,0 -2.1729,0.495989 -1.0156,0.47237 -1.984,1.771388 -0.8738,1.180925 -1.4171,3.188498 -0.5432,2.007573 -0.5432,4.794556 0,4.393042 1.9367,7.180025 1.9604,2.763365 5.1252,2.763365 2.291,0 3.8262,-1.110069 1.5589,-1.11007 2.8815,-3.330209 l 1.5116,0.991977 q -1.5588,2.786983 -4.1096,4.41666 -2.5508,1.629677 -5.267,1.629677 z"
         style="stroke-width:1.2092675px;fill:#111111;fill-opacity:1"
         id="path1092" />
      <path
         d="m 2320.9619,-51.340637 h -7.0383 q -1.8423,-2.668891 -3.9443,-5.715678 -2.1021,-3.046787 -4.3694,-5.928245 l -1.9368,1.818625 v 5.52673 q 0,0.850266 0.3071,1.41711 0.307,0.543226 0.992,0.803029 0.5668,0.236185 1.0864,0.354278 0.5196,0.118092 1.2046,0.16533 v 1.558821 h -11.4314 v -1.558821 q 0.5432,-0.04724 1.1337,-0.09447 0.5904,-0.07086 0.992,-0.188948 0.6613,-0.212566 0.9919,-0.732173 0.3307,-0.543226 0.3307,-1.393492 v -27.066806 q 0,-0.873885 -0.3779,-1.629677 -0.3543,-0.77941 -0.9447,-1.180925 -0.496,-0.377896 -1.5589,-0.495989 -1.0392,-0.118092 -1.6769,-0.165329 v -1.511584 l 8.6208,-0.543226 0.3306,0.354278 v 24.6341 q 1.8423,-1.842244 3.968,-3.944291 2.1492,-2.125665 3.6136,-3.77896 0.1889,-0.212567 0.4015,-0.543226 0.2362,-0.354277 0.2362,-0.566844 0,-0.6377 -1.0392,-0.94474 -1.0156,-0.307041 -1.9604,-0.425133 v -1.511585 h 10.2505 v 1.464348 q -1.984,0.590462 -3.5192,1.487966 -1.5116,0.873884 -2.3146,1.582439 -0.5669,0.47237 -1.6061,1.535203 -1.0392,1.062833 -2.905,2.786984 1.9367,2.385469 4.3458,5.715678 2.4327,3.330209 3.5427,4.818175 1.0393,1.393491 1.8659,1.818624 0.8266,0.425133 2.4091,0.519608 z"
         style="stroke-width:1.2092675px;fill:#111111;fill-opacity:1"
         id="path1094" />
      <path
         d="m 2342.8562,-56.82013 q -1.4643,2.786983 -3.9206,4.440279 -2.4564,1.653295 -5.6449,1.653295 -2.8106,0 -4.9362,-0.991977 -2.1021,-0.991977 -3.4719,-2.69251 -1.3699,-1.700532 -2.0549,-3.967909 -0.6613,-2.267376 -0.6613,-4.794556 0,-2.267376 0.7086,-4.440279 0.7322,-2.196521 2.1256,-3.94429 1.3463,-1.676914 3.3303,-2.692509 2.0075,-1.039215 4.4875,-1.039215 2.5508,0 4.3694,0.803029 1.8186,0.80303 2.9523,2.196521 1.0865,1.322637 1.6061,3.117643 0.5432,1.795006 0.5432,3.897053 v 1.558821 h -15.4229 q 0,2.290995 0.4251,4.156857 0.4488,1.865862 1.3935,3.282972 0.9212,1.369874 2.4091,2.172903 1.488,0.77941 3.5428,0.77941 2.102,0 3.6136,-0.968358 1.5352,-0.991977 2.9523,-3.542776 z m -5.2197,-8.880558 q 0,-1.322636 -0.2361,-2.83422 -0.2126,-1.511585 -0.7086,-2.52718 -0.5432,-1.086452 -1.488,-1.771388 -0.9447,-0.684937 -2.4327,-0.684937 -2.4799,0 -4.1332,2.078429 -1.6297,2.054809 -1.7714,5.739296 z"
         style="stroke-width:1.2092675px;fill:#111111;fill-opacity:1"
         id="path1096" />
      <path
         d="m 2363.4279,-71.628932 q 0,1.204543 -0.5904,2.149283 -0.5905,0.921122 -1.8186,0.921122 -1.3227,0 -2.0312,-0.684937 -0.685,-0.684936 -0.685,-1.511584 0,-0.519607 0.071,-0.94474 0.095,-0.425133 0.1653,-0.850266 -1.1101,0 -2.598,0.897503 -1.488,0.897503 -2.5272,2.550798 v 13.557022 q 0,0.826648 0.307,1.346255 0.3307,0.519607 1.0156,0.77941 0.5905,0.236185 1.5116,0.354278 0.9448,0.118092 1.6297,0.16533 v 1.558821 h -12.2816 v -1.558821 q 0.5432,-0.04724 1.11,-0.09447 0.5905,-0.04724 1.0156,-0.188948 0.6614,-0.212566 0.9684,-0.732173 0.3307,-0.543226 0.3307,-1.393492 v -14.383669 q 0,-0.732174 -0.3543,-1.440729 -0.3307,-0.708555 -0.9448,-1.133688 -0.4487,-0.283422 -1.0628,-0.401515 -0.6141,-0.141711 -1.3226,-0.188948 v -1.535203 l 7.7468,-0.519607 0.3307,0.330659 v 3.282973 h 0.1181 q 1.4643,-1.913099 3.2594,-2.905076 1.795,-0.991978 3.2829,-0.991978 1.488,0 2.4091,0.968359 0.9447,0.968359 0.9447,2.598036 z"
         style="stroke-width:1.2092675px;fill:#111111;fill-opacity:1"
         id="path1098" />
      <path
         d="m 2380.8112,-62.748375 q 0.9683,0.850266 1.4879,1.960336 0.5196,1.11007 0.5196,2.716128 0,3.235735 -2.4327,5.290545 -2.4091,2.05481 -6.2589,2.05481 -2.0312,0 -3.7553,-0.732174 -1.7005,-0.732173 -2.4327,-1.346254 l -0.4724,1.535202 h -1.7714 l -0.2362,-8.101147 h 1.6297 q 0.189,0.921122 0.803,2.149284 0.6141,1.228162 1.488,2.22014 0.9211,1.039214 2.1965,1.747769 1.299,0.708555 2.9051,0.708555 2.2674,0 3.4955,-1.015596 1.2282,-1.039214 1.2282,-2.952313 0,-0.991977 -0.4015,-1.700532 -0.3779,-0.732174 -1.1337,-1.275399 -0.7794,-0.543226 -1.9131,-0.968359 -1.1337,-0.448751 -2.5272,-0.873885 -1.11,-0.330659 -2.4799,-0.897503 -1.3463,-0.590462 -2.3146,-1.369873 -1.0392,-0.826648 -1.7006,-2.031191 -0.6613,-1.204544 -0.6613,-2.834221 0,-2.857839 2.1257,-4.841793 2.1256,-1.983955 5.692,-1.983955 1.3699,0 2.787,0.354278 1.4408,0.354277 2.3383,0.850266 l 0.5432,-1.228162 h 1.7005 l 0.3543,7.487066 h -1.6297 q -0.496,-2.503562 -2.1493,-4.062383 -1.6296,-1.58244 -3.9915,-1.58244 -1.9367,0 -3.0468,0.968359 -1.1101,0.968359 -1.1101,2.338232 0,1.062832 0.3543,1.771388 0.3779,0.708555 1.1101,1.204543 0.7086,0.47237 1.7714,0.897504 1.0864,0.401514 2.6689,0.921121 1.5588,0.495989 2.9287,1.157307 1.3935,0.661318 2.291,1.464347 z"
         style="stroke-width:1.2092675px;fill:#111111;fill-opacity:1"
         id="path1100" />
    </g>
    <g
       aria-label="Classici sfacciati"
       style="font-style:italic;font-variant:normal;font-weight:normal;font-stretch:normal;font-size:21.7323246px;line-height:125%;font-family:Georgia;-inkscape-font-specification:'Georgia Italic';letter-spacing:0px;word-spacing:0px;fill:#00449e;fill-opacity:1;stroke:none;stroke-width:0.54330814px;stroke-linecap:butt;stroke-linejoin:miter;stroke-opacity:1"
       id="text1068">
      <path
         d="m 2150.9534,-22.128401 q -1.1566,0 -2.1859,-0.403237 -1.0294,-0.403236 -1.7934,-1.177875 -0.7746,-0.78525 -1.2203,-1.899456 -0.4351,-1.114206 -0.4351,-2.514922 0,-2.005571 0.6792,-3.745855 0.6791,-1.740284 1.8676,-3.109166 1.146,-1.315824 2.7483,-2.111686 1.613,-0.795861 3.3639,-0.795861 1.3264,0 2.3239,0.307733 1.0081,0.307733 1.6554,0.764027 l 0.5942,-0.721581 h 0.849 l -1.1461,5.369412 h -0.8701 v -0.424459 q 0,-0.870142 -0.138,-1.655392 -0.1379,-0.795862 -0.5305,-1.432551 -0.3821,-0.615466 -1.0506,-0.976257 -0.6579,-0.371402 -1.6872,-0.371402 -1.3052,0 -2.43,0.700358 -1.1142,0.689747 -1.9313,1.846399 -0.8065,1.124818 -1.2946,2.769598 -0.4882,1.644781 -0.4882,3.35323 0,2.260247 1.1036,3.671574 1.1142,1.400717 2.9819,1.400717 1.5599,0 2.8651,-0.9232 1.3158,-0.923199 2.1435,-2.472476 l 0.764,0.403236 q -1.337,2.28147 -2.9818,3.215281 -1.6448,0.933811 -3.7565,0.933811 z"
         style="stroke-width:0.54330814px;fill:#00449e;fill-opacity:1"
         id="path1103" />
      <path
         d="m 2164.5892,-38.745989 -2.9606,12.776229 q -0.095,0.403237 -0.1804,0.806473 -0.085,0.403237 -0.085,0.657913 0,0.604854 0.2653,0.827696 0.2759,0.222841 0.8807,0.222841 0.2123,0 0.6261,-0.05306 0.4245,-0.05306 0.6367,-0.127338 l -0.1592,0.679136 q -0.955,0.382013 -1.475,0.541185 -0.5093,0.159173 -1.1566,0.159173 -0.8489,0 -1.2946,-0.435071 -0.4351,-0.445683 -0.4351,-1.092983 0,-0.244065 0.042,-0.509352 0.053,-0.265287 0.138,-0.668523 l 2.5786,-11.173896 q 0.074,-0.328956 0.095,-0.456294 0.032,-0.127338 0.032,-0.318344 0,-0.382014 -0.1273,-0.583632 -0.1274,-0.21223 -0.3608,-0.318345 -0.2228,-0.0955 -0.5624,-0.127337 -0.3396,-0.03184 -0.6898,-0.07428 l 0.1486,-0.647301 3.9369,-0.244064 z"
         style="stroke-width:0.54330814px;fill:#00449e;fill-opacity:1"
         id="path1105" />
      <path
         d="m 2171.805,-23.879297 h -0.074 q -0.2334,0.191007 -0.5624,0.488129 -0.3183,0.28651 -0.7534,0.551797 -0.4139,0.265287 -0.902,0.456294 -0.4881,0.201618 -1.0611,0.201618 -1.5387,0 -2.4195,-1.103594 -0.8701,-1.103595 -0.8701,-3.013663 0,-1.315824 0.4881,-2.557368 0.4882,-1.241544 1.3477,-2.228412 0.8171,-0.944422 1.9419,-1.517443 1.1248,-0.583631 2.3133,-0.583631 0.7534,0 1.4325,0.201618 0.6898,0.201618 1.0824,0.456294 l 1.9419,-0.49874 0.1274,0.159172 -1.613,6.844409 q -0.085,0.328956 -0.1804,0.806473 -0.085,0.466905 -0.085,0.689747 0,0.604854 0.2547,0.817084 0.2547,0.21223 0.8595,0.21223 0.2016,0 0.573,-0.06367 0.3714,-0.06367 0.5731,-0.137949 l -0.1592,0.679135 q -0.955,0.382013 -1.4219,0.551797 -0.467,0.169784 -1.1355,0.169784 -0.764,0 -1.2097,-0.445683 -0.4457,-0.445682 -0.4881,-1.135429 z m 1.5174,-6.706459 q 0,-0.350179 -0.074,-0.668524 -0.074,-0.318345 -0.3077,-0.594243 -0.2122,-0.265287 -0.5836,-0.42446 -0.3714,-0.159172 -0.9338,-0.159172 -0.7747,0 -1.5069,0.509351 -0.7322,0.509352 -1.3158,1.368882 -0.5518,0.806473 -0.902,1.952514 -0.3501,1.14604 -0.3501,2.323915 0,0.647301 0.074,1.146041 0.074,0.49874 0.2866,0.912588 0.2016,0.403236 0.5836,0.626077 0.382,0.222842 0.9656,0.222842 0.5943,0 1.2416,-0.328956 0.6579,-0.339568 1.475,-1.177875 z"
         style="stroke-width:0.54330814px;fill:#00449e;fill-opacity:1"
         id="path1107" />
      <path
         d="m 2180.6974,-22.170847 q -1.5705,0 -2.621,-0.551798 -1.0399,-0.562408 -1.0399,-1.464385 0,-0.424459 0.3077,-0.795861 0.3077,-0.371402 0.7534,-0.371402 0.4245,0 0.6791,0.201618 0.2653,0.191007 0.4139,0.456294 0.1592,0.275898 0.2759,0.657912 0.1273,0.382014 0.2122,0.626078 0.1592,0.180395 0.4351,0.339567 0.2865,0.148561 0.8171,0.148561 1.146,0 1.7296,-0.57302 0.5943,-0.57302 0.5943,-1.549277 0,-0.721581 -0.5518,-1.146041 -0.5518,-0.435071 -1.6448,-0.795861 -0.3926,-0.127338 -0.9232,-0.382014 -0.5306,-0.265287 -0.8489,-0.562409 -0.382,-0.339567 -0.6155,-0.806473 -0.2334,-0.466905 -0.2334,-1.103594 0,-1.35827 1.2097,-2.345139 1.2203,-0.997479 2.9924,-0.997479 0.4139,0 0.8914,0.04245 0.4775,0.04245 1.0505,0.233453 0.4988,0.169784 0.8489,0.509352 0.3502,0.328956 0.3502,0.85953 0,0.435071 -0.2971,0.795861 -0.2865,0.35018 -0.764,0.35018 -0.3927,0 -0.6473,-0.169784 -0.2547,-0.169784 -0.4245,-0.456294 -0.1698,-0.28651 -0.2759,-0.615466 -0.1061,-0.328957 -0.2334,-0.647301 -0.2017,-0.08489 -0.3608,-0.116726 -0.1592,-0.03184 -0.4245,-0.03184 -1.0399,0 -1.5811,0.562409 -0.5306,0.551797 -0.5306,1.315824 0,0.742804 0.4775,1.124818 0.4882,0.371402 1.6024,0.774638 1.4431,0.519963 2.0904,1.188487 0.6579,0.668523 0.6579,1.655392 0,1.612946 -1.2415,2.631648 -1.2415,1.008092 -3.1304,1.008092 z"
         style="stroke-width:0.54330814px;fill:#00449e;fill-opacity:1"
         id="path1109" />
      <path
         d="m 2190.078,-22.170847 q -1.5705,0 -2.6211,-0.551798 -1.0399,-0.562408 -1.0399,-1.464385 0,-0.424459 0.3077,-0.795861 0.3078,-0.371402 0.7535,-0.371402 0.4244,0 0.6791,0.201618 0.2653,0.191007 0.4138,0.456294 0.1592,0.275898 0.2759,0.657912 0.1274,0.382014 0.2123,0.626078 0.1591,0.180395 0.435,0.339567 0.2865,0.148561 0.8171,0.148561 1.1461,0 1.7297,-0.57302 0.5942,-0.57302 0.5942,-1.549277 0,-0.721581 -0.5518,-1.146041 -0.5518,-0.435071 -1.6447,-0.795861 -0.3927,-0.127338 -0.9232,-0.382014 -0.5306,-0.265287 -0.849,-0.562409 -0.382,-0.339567 -0.6154,-0.806473 -0.2335,-0.466905 -0.2335,-1.103594 0,-1.35827 1.2097,-2.345139 1.2204,-0.997479 2.9925,-0.997479 0.4138,0 0.8913,0.04245 0.4776,0.04245 1.0506,0.233453 0.4987,0.169784 0.8489,0.509352 0.3502,0.328956 0.3502,0.85953 0,0.435071 -0.2972,0.795861 -0.2865,0.35018 -0.764,0.35018 -0.3926,0 -0.6473,-0.169784 -0.2547,-0.169784 -0.4244,-0.456294 -0.1698,-0.28651 -0.2759,-0.615466 -0.1062,-0.328957 -0.2335,-0.647301 -0.2016,-0.08489 -0.3608,-0.116726 -0.1592,-0.03184 -0.4244,-0.03184 -1.04,0 -1.5812,0.562409 -0.5305,0.551797 -0.5305,1.315824 0,0.742804 0.4775,1.124818 0.4881,0.371402 1.6023,0.774638 1.4432,0.519963 2.0905,1.188487 0.6579,0.668523 0.6579,1.655392 0,1.612946 -1.2415,2.631648 -1.2416,1.008092 -3.1304,1.008092 z"
         style="stroke-width:0.54330814px;fill:#00449e;fill-opacity:1"
         id="path1111" />
      <path
         d="m 2201.4641,-23.635233 -0.1592,0.679136 q -0.9762,0.392625 -1.5599,0.541185 -0.5836,0.159173 -0.9974,0.159173 -0.849,0 -1.2734,-0.435071 -0.4245,-0.445683 -0.4245,-1.092983 0,-0.244065 0.043,-0.509352 0.042,-0.265287 0.1379,-0.668523 l 1.1248,-4.509882 q 0.085,-0.371402 0.1592,-0.795862 0.085,-0.424459 0.085,-0.721581 0,-0.594243 -0.2016,-0.78525 -0.191,-0.201618 -0.7959,-0.201618 -0.2334,0 -0.6261,0.07428 -0.382,0.07428 -0.5836,0.127338 l 0.1592,-0.679135 q 0.8277,-0.371402 1.4856,-0.551797 0.6579,-0.180395 1.0399,-0.180395 0.8702,0 1.2628,0.413848 0.3926,0.413847 0.3926,1.114206 0,0.191006 -0.042,0.519962 -0.043,0.328957 -0.1274,0.657913 l -1.1354,4.509881 q -0.1061,0.413848 -0.191,0.817085 -0.074,0.392625 -0.074,0.647301 0,0.604854 0.2653,0.827696 0.2759,0.222841 0.8807,0.222841 0.2017,0 0.5731,-0.05306 0.382,-0.05306 0.5836,-0.127338 z m 0.7534,-13.561479 q 0,0.604854 -0.3926,1.061148 -0.3926,0.445683 -0.9763,0.445683 -0.5412,0 -0.9338,-0.42446 -0.3926,-0.435071 -0.3926,-0.986868 0,-0.583632 0.3926,-1.018703 0.3926,-0.435071 0.9338,-0.435071 0.6049,0 0.9869,0.413848 0.382,0.403237 0.382,0.944423 z"
         style="stroke-width:0.54330814px;fill:#00449e;fill-opacity:1"
         id="path1113" />
      <path
         d="m 2206.7911,-22.181459 q -1.8571,0 -2.9394,-1.082371 -1.0718,-1.082372 -1.0718,-3.077332 0,-1.326435 0.4033,-2.536145 0.4138,-1.220321 1.146,-2.164743 0.7322,-0.944422 1.8464,-1.538666 1.1248,-0.604854 2.4937,-0.604854 1.5174,0 2.3027,0.6473 0.7958,0.636689 0.7958,1.612946 0,0.732193 -0.3501,1.28399 -0.3396,0.551797 -1.0293,0.551797 -0.5731,0 -0.8596,-0.28651 -0.2865,-0.28651 -0.2865,-0.636689 0,-0.339568 0.2335,-0.923199 0.2334,-0.594244 0.3714,-0.955034 -0.1168,-0.28651 -0.52,-0.413848 -0.4032,-0.137949 -0.8383,-0.137949 -1.4432,0 -2.4937,1.687226 -1.0399,1.676615 -1.0399,4.117257 0,1.506831 0.6685,2.398196 0.6791,0.880753 1.8252,0.880753 1.0293,0 1.8251,-0.551797 0.8065,-0.551797 1.5387,-1.559889 l 0.6049,0.445683 q -0.7322,1.156652 -1.995,2.005571 -1.2521,0.838307 -2.6316,0.838307 z"
         style="stroke-width:0.54330814px;fill:#00449e;fill-opacity:1"
         id="path1115" />
      <path
         d="m 2217.7633,-23.635233 -0.1591,0.679136 q -0.9763,0.392625 -1.5599,0.541185 -0.5837,0.159173 -0.9975,0.159173 -0.8489,0 -1.2734,-0.435071 -0.4244,-0.445683 -0.4244,-1.092983 0,-0.244065 0.042,-0.509352 0.042,-0.265287 0.138,-0.668523 l 1.1248,-4.509882 q 0.085,-0.371402 0.1591,-0.795862 0.085,-0.424459 0.085,-0.721581 0,-0.594243 -0.2016,-0.78525 -0.191,-0.201618 -0.7958,-0.201618 -0.2335,0 -0.6261,0.07428 -0.382,0.07428 -0.5837,0.127338 l 0.1592,-0.679135 q 0.8277,-0.371402 1.4856,-0.551797 0.6579,-0.180395 1.0399,-0.180395 0.8702,0 1.2628,0.413848 0.3926,0.413847 0.3926,1.114206 0,0.191006 -0.042,0.519962 -0.043,0.328957 -0.1273,0.657913 l -1.1355,4.509881 q -0.1061,0.413848 -0.191,0.817085 -0.074,0.392625 -0.074,0.647301 0,0.604854 0.2653,0.827696 0.2759,0.222841 0.8808,0.222841 0.2016,0 0.573,-0.05306 0.382,-0.05306 0.5836,-0.127338 z m 0.7534,-13.561479 q 0,0.604854 -0.3926,1.061148 -0.3926,0.445683 -0.9762,0.445683 -0.5412,0 -0.9338,-0.42446 -0.3927,-0.435071 -0.3927,-0.986868 0,-0.583632 0.3927,-1.018703 0.3926,-0.435071 0.9338,-0.435071 0.6048,0 0.9868,0.413848 0.382,0.403237 0.382,0.944423 z"
         style="stroke-width:0.54330814px;fill:#00449e;fill-opacity:1"
         id="path1117" />
      <path
         d="m 2227.4728,-22.170847 q -1.5705,0 -2.621,-0.551798 -1.0399,-0.562408 -1.0399,-1.464385 0,-0.424459 0.3077,-0.795861 0.3077,-0.371402 0.7534,-0.371402 0.4245,0 0.6792,0.201618 0.2653,0.191007 0.4138,0.456294 0.1592,0.275898 0.2759,0.657912 0.1273,0.382014 0.2122,0.626078 0.1592,0.180395 0.4351,0.339567 0.2865,0.148561 0.8171,0.148561 1.146,0 1.7297,-0.57302 0.5942,-0.57302 0.5942,-1.549277 0,-0.721581 -0.5518,-1.146041 -0.5518,-0.435071 -1.6448,-0.795861 -0.3926,-0.127338 -0.9232,-0.382014 -0.5305,-0.265287 -0.8489,-0.562409 -0.382,-0.339567 -0.6155,-0.806473 -0.2334,-0.466905 -0.2334,-1.103594 0,-1.35827 1.2097,-2.345139 1.2203,-0.997479 2.9924,-0.997479 0.4139,0 0.8914,0.04245 0.4775,0.04245 1.0505,0.233453 0.4988,0.169784 0.849,0.509352 0.3501,0.328956 0.3501,0.85953 0,0.435071 -0.2971,0.795861 -0.2865,0.35018 -0.764,0.35018 -0.3926,0 -0.6473,-0.169784 -0.2547,-0.169784 -0.4245,-0.456294 -0.1697,-0.28651 -0.2759,-0.615466 -0.1061,-0.328957 -0.2334,-0.647301 -0.2016,-0.08489 -0.3608,-0.116726 -0.1592,-0.03184 -0.4245,-0.03184 -1.0399,0 -1.5811,0.562409 -0.5306,0.551797 -0.5306,1.315824 0,0.742804 0.4776,1.124818 0.4881,0.371402 1.6023,0.774638 1.4432,0.519963 2.0905,1.188487 0.6579,0.668523 0.6579,1.655392 0,1.612946 -1.2416,2.631648 -1.2415,1.008092 -3.1304,1.008092 z"
         style="stroke-width:0.54330814px;fill:#00449e;fill-opacity:1"
         id="path1119" />
      <path
         d="m 2238.2647,-31.880358 -1.8676,8.765088 q -0.4987,2.35575 -2.1011,3.85197 -1.6023,1.49622 -3.3001,1.49622 -0.9339,0 -1.3689,-0.360791 -0.4457,-0.350179 -0.4457,-0.891365 0,-0.456294 0.2759,-0.806473 0.2759,-0.350179 0.7959,-0.350179 0.3289,0 0.5836,0.148561 0.244,0.148561 0.4351,0.371402 0.1485,0.180395 0.3395,0.488128 0.1804,0.307733 0.3184,0.530575 0.8171,-0.06367 1.3901,-1.103595 0.5836,-1.039926 1.0081,-2.971216 l 1.9525,-9.168325 h -2.0693 l 0.2229,-0.965645 h 2.048 l 0.1486,-0.721581 q 0.2546,-1.230932 0.8064,-2.217801 0.5518,-0.986868 1.2522,-1.676615 0.6897,-0.679135 1.5599,-1.061148 0.8807,-0.392625 1.6872,-0.392625 0.9338,0 1.3689,0.36079 0.4457,0.350179 0.4457,0.891365 0,0.456294 -0.2653,0.806473 -0.2547,0.350179 -0.8065,0.350179 -0.329,0 -0.573,-0.137949 -0.2441,-0.148561 -0.4351,-0.382014 -0.2122,-0.265287 -0.3396,-0.49874 -0.1273,-0.233452 -0.3183,-0.519962 -0.7322,0.03183 -1.2946,0.965645 -0.5624,0.933811 -1.0187,3.109166 l -0.2335,1.124817 h 2.6635 l -0.2228,0.965645 z"
         style="stroke-width:0.54330814px;fill:#00449e;fill-opacity:1"
         id="path1121" />
      <path
         d="m 2247.5286,-23.879297 h -0.074 q -0.2335,0.191007 -0.5624,0.488129 -0.3184,0.28651 -0.7535,0.551797 -0.4138,0.265287 -0.9019,0.456294 -0.4882,0.201618 -1.0612,0.201618 -1.5386,0 -2.4194,-1.103594 -0.8701,-1.103595 -0.8701,-3.013663 0,-1.315824 0.4881,-2.557368 0.4881,-1.241544 1.3477,-2.228412 0.817,-0.944422 1.9419,-1.517443 1.1248,-0.583631 2.3133,-0.583631 0.7534,0 1.4325,0.201618 0.6898,0.201618 1.0824,0.456294 l 1.9419,-0.49874 0.1273,0.159172 -1.6129,6.844409 q -0.085,0.328956 -0.1804,0.806473 -0.085,0.466905 -0.085,0.689747 0,0.604854 0.2547,0.817084 0.2546,0.21223 0.8595,0.21223 0.2016,0 0.573,-0.06367 0.3714,-0.06367 0.573,-0.137949 l -0.1591,0.679135 q -0.9551,0.382013 -1.422,0.551797 -0.4669,0.169784 -1.1354,0.169784 -0.764,0 -1.2097,-0.445683 -0.4457,-0.445682 -0.4881,-1.135429 z m 1.5174,-6.706459 q 0,-0.350179 -0.074,-0.668524 -0.074,-0.318345 -0.3077,-0.594243 -0.2122,-0.265287 -0.5836,-0.42446 -0.3715,-0.159172 -0.9339,-0.159172 -0.7746,0 -1.5068,0.509351 -0.7322,0.509352 -1.3158,1.368882 -0.5518,0.806473 -0.902,1.952514 -0.3502,1.14604 -0.3502,2.323915 0,0.647301 0.074,1.146041 0.074,0.49874 0.2865,0.912588 0.2016,0.403236 0.5837,0.626077 0.382,0.222842 0.9656,0.222842 0.5942,0 1.2415,-0.328956 0.658,-0.339568 1.475,-1.177875 z"
         style="stroke-width:0.54330814px;fill:#00449e;fill-opacity:1"
         id="path1123" />
      <path
         d="m 2257.3017,-22.181459 q -1.857,0 -2.9393,-1.082371 -1.0718,-1.082372 -1.0718,-3.077332 0,-1.326435 0.4032,-2.536145 0.4139,-1.220321 1.1461,-2.164743 0.7322,-0.944422 1.8464,-1.538666 1.1248,-0.604854 2.4937,-0.604854 1.5174,0 2.3027,0.6473 0.7958,0.636689 0.7958,1.612946 0,0.732193 -0.3502,1.28399 -0.3395,0.551797 -1.0293,0.551797 -0.573,0 -0.8595,-0.28651 -0.2865,-0.28651 -0.2865,-0.636689 0,-0.339568 0.2334,-0.923199 0.2335,-0.594244 0.3714,-0.955034 -0.1167,-0.28651 -0.5199,-0.413848 -0.4033,-0.137949 -0.8383,-0.137949 -1.4432,0 -2.4937,1.687226 -1.04,1.676615 -1.04,4.117257 0,1.506831 0.6686,2.398196 0.6791,0.880753 1.8251,0.880753 1.0294,0 1.8252,-0.551797 0.8065,-0.551797 1.5387,-1.559889 l 0.6048,0.445683 q -0.7322,1.156652 -1.9949,2.005571 -1.2522,0.838307 -2.6317,0.838307 z"
         style="stroke-width:0.54330814px;fill:#00449e;fill-opacity:1"
         id="path1125" />
      <path
         d="m 2267.1492,-22.181459 q -1.857,0 -2.9394,-1.082371 -1.0717,-1.082372 -1.0717,-3.077332 0,-1.326435 0.4032,-2.536145 0.4138,-1.220321 1.146,-2.164743 0.7322,-0.944422 1.8464,-1.538666 1.1248,-0.604854 2.4937,-0.604854 1.5175,0 2.3027,0.6473 0.7959,0.636689 0.7959,1.612946 0,0.732193 -0.3502,1.28399 -0.3396,0.551797 -1.0293,0.551797 -0.573,0 -0.8595,-0.28651 -0.2865,-0.28651 -0.2865,-0.636689 0,-0.339568 0.2334,-0.923199 0.2335,-0.594244 0.3714,-0.955034 -0.1167,-0.28651 -0.52,-0.413848 -0.4032,-0.137949 -0.8383,-0.137949 -1.4431,0 -2.4937,1.687226 -1.0399,1.676615 -1.0399,4.117257 0,1.506831 0.6685,2.398196 0.6792,0.880753 1.8252,0.880753 1.0293,0 1.8252,-0.551797 0.8065,-0.551797 1.5387,-1.559889 l 0.6048,0.445683 q -0.7322,1.156652 -1.995,2.005571 -1.2521,0.838307 -2.6316,0.838307 z"
         style="stroke-width:0.54330814px;fill:#00449e;fill-opacity:1"
         id="path1127" />
      <path
         d="m 2278.1215,-23.635233 -0.1592,0.679136 q -0.9763,0.392625 -1.5599,0.541185 -0.5836,0.159173 -0.9975,0.159173 -0.8489,0 -1.2734,-0.435071 -0.4244,-0.445683 -0.4244,-1.092983 0,-0.244065 0.042,-0.509352 0.043,-0.265287 0.138,-0.668523 l 1.1248,-4.509882 q 0.085,-0.371402 0.1592,-0.795862 0.085,-0.424459 0.085,-0.721581 0,-0.594243 -0.2017,-0.78525 -0.191,-0.201618 -0.7958,-0.201618 -0.2335,0 -0.6261,0.07428 -0.382,0.07428 -0.5836,0.127338 l 0.1591,-0.679135 q 0.8277,-0.371402 1.4857,-0.551797 0.6579,-0.180395 1.0399,-0.180395 0.8701,0 1.2627,0.413848 0.3927,0.413847 0.3927,1.114206 0,0.191006 -0.043,0.519962 -0.042,0.328957 -0.1273,0.657913 l -1.1354,4.509881 q -0.1062,0.413848 -0.191,0.817085 -0.074,0.392625 -0.074,0.647301 0,0.604854 0.2653,0.827696 0.2759,0.222841 0.8807,0.222841 0.2016,0 0.573,-0.05306 0.382,-0.05306 0.5837,-0.127338 z m 0.7534,-13.561479 q 0,0.604854 -0.3926,1.061148 -0.3927,0.445683 -0.9763,0.445683 -0.5412,0 -0.9338,-0.42446 -0.3926,-0.435071 -0.3926,-0.986868 0,-0.583632 0.3926,-1.018703 0.3926,-0.435071 0.9338,-0.435071 0.6049,0 0.9869,0.413848 0.382,0.403237 0.382,0.944423 z"
         style="stroke-width:0.54330814px;fill:#00449e;fill-opacity:1"
         id="path1129" />
      <path
         d="m 2286.1119,-23.879297 h -0.074 q -0.2334,0.191007 -0.5624,0.488129 -0.3183,0.28651 -0.7534,0.551797 -0.4138,0.265287 -0.902,0.456294 -0.4881,0.201618 -1.0611,0.201618 -1.5387,0 -2.4194,-1.103594 -0.8702,-1.103595 -0.8702,-3.013663 0,-1.315824 0.4882,-2.557368 0.4881,-1.241544 1.3476,-2.228412 0.8171,-0.944422 1.9419,-1.517443 1.1248,-0.583631 2.3133,-0.583631 0.7534,0 1.4326,0.201618 0.6897,0.201618 1.0824,0.456294 l 1.9419,-0.49874 0.1273,0.159172 -1.613,6.844409 q -0.085,0.328956 -0.1803,0.806473 -0.085,0.466905 -0.085,0.689747 0,0.604854 0.2546,0.817084 0.2547,0.21223 0.8596,0.21223 0.2016,0 0.573,-0.06367 0.3714,-0.06367 0.573,-0.137949 l -0.1592,0.679135 q -0.955,0.382013 -1.4219,0.551797 -0.4669,0.169784 -1.1354,0.169784 -0.7641,0 -1.2097,-0.445683 -0.4457,-0.445682 -0.4882,-1.135429 z m 1.5175,-6.706459 q 0,-0.350179 -0.074,-0.668524 -0.074,-0.318345 -0.3077,-0.594243 -0.2123,-0.265287 -0.5837,-0.42446 -0.3714,-0.159172 -0.9338,-0.159172 -0.7746,0 -1.5068,0.509351 -0.7322,0.509352 -1.3158,1.368882 -0.5518,0.806473 -0.902,1.952514 -0.3502,1.14604 -0.3502,2.323915 0,0.647301 0.074,1.146041 0.074,0.49874 0.2865,0.912588 0.2016,0.403236 0.5836,0.626077 0.382,0.222842 0.9657,0.222842 0.5942,0 1.2415,-0.328956 0.6579,-0.339568 1.475,-1.177875 z"
         style="stroke-width:0.54330814px;fill:#00449e;fill-opacity:1"
         id="path1131" />
      <path
         d="m 2294.3783,-22.255739 q -1.0081,0 -1.475,-0.403237 -0.4669,-0.413848 -0.4669,-1.177875 0,-0.244064 0.032,-0.456294 0.032,-0.222841 0.085,-0.49874 l 1.6448,-7.088473 h -1.8889 l 0.2229,-0.965645 h 1.9313 l 0.7428,-3.109165 h 1.91 l -0.7215,3.109165 h 2.9606 l -0.2229,0.965645 h -2.9394 l -1.3582,5.84693 q -0.096,0.403236 -0.1592,0.78525 -0.064,0.371402 -0.064,0.636689 0,0.583631 0.2865,0.85953 0.2972,0.265287 1.0612,0.265287 0.2759,0 0.7746,-0.06367 0.4988,-0.07428 0.7747,-0.180395 l -0.1804,0.774639 q -0.7428,0.28651 -1.4007,0.488128 -0.658,0.21223 -1.5493,0.21223 z"
         style="stroke-width:0.54330814px;fill:#00449e;fill-opacity:1"
         id="path1133" />
      <path
         d="m 2304.5653,-23.635233 -0.1592,0.679136 q -0.9762,0.392625 -1.5599,0.541185 -0.5836,0.159173 -0.9974,0.159173 -0.849,0 -1.2734,-0.435071 -0.4245,-0.445683 -0.4245,-1.092983 0,-0.244065 0.043,-0.509352 0.042,-0.265287 0.1379,-0.668523 l 1.1248,-4.509882 q 0.085,-0.371402 0.1592,-0.795862 0.085,-0.424459 0.085,-0.721581 0,-0.594243 -0.2016,-0.78525 -0.191,-0.201618 -0.7959,-0.201618 -0.2334,0 -0.6261,0.07428 -0.382,0.07428 -0.5836,0.127338 l 0.1592,-0.679135 q 0.8277,-0.371402 1.4856,-0.551797 0.6579,-0.180395 1.0399,-0.180395 0.8702,0 1.2628,0.413848 0.3926,0.413847 0.3926,1.114206 0,0.191006 -0.042,0.519962 -0.043,0.328957 -0.1274,0.657913 l -1.1354,4.509881 q -0.1061,0.413848 -0.191,0.817085 -0.074,0.392625 -0.074,0.647301 0,0.604854 0.2653,0.827696 0.2759,0.222841 0.8807,0.222841 0.2017,0 0.5731,-0.05306 0.382,-0.05306 0.5836,-0.127338 z m 0.7534,-13.561479 q 0,0.604854 -0.3926,1.061148 -0.3926,0.445683 -0.9763,0.445683 -0.5412,0 -0.9338,-0.42446 -0.3926,-0.435071 -0.3926,-0.986868 0,-0.583632 0.3926,-1.018703 0.3926,-0.435071 0.9338,-0.435071 0.6049,0 0.9869,0.413848 0.382,0.403237 0.382,0.944423 z"
         style="stroke-width:0.54330814px;fill:#00449e;fill-opacity:1"
         id="path1135" />
    </g>
    <g
       aria-label="archeosticker.com"
       style="font-style:normal;font-variant:normal;font-weight:normal;font-stretch:normal;font-size:9.59938049px;line-height:125%;font-family:sans-serif;-inkscape-font-specification:sans-serif;letter-spacing:0px;word-spacing:0px;fill:#111111;fill-opacity:1;stroke:none;stroke-width:0.23998453px;stroke-linecap:butt;stroke-linejoin:miter;stroke-opacity:1"
       id="text1072">
      <path
         d="m 2185.0651,-0.54190066 q -1.0453,0 -1.4484,0.23904708 -0.4031,0.23904707 -0.4031,0.81557236 0,0.45934536 0.3,0.73120282 0.3047,0.2671703 0.825,0.2671703 0.7171,0 1.1483,-0.5062174 0.4359,-0.51090451 0.4359,-1.35460006 v -0.1921751 z m 1.7202,-0.35622701 V 2.0969915 h -0.8625 V 1.300168 q -0.2953,0.4780941 -0.7359,0.7077668 -0.4406,0.2249855 -1.078,0.2249855 -0.8062,0 -1.2843,-0.449971 -0.4734,-0.4546582 -0.4734,-1.21398415 0,-0.88588033 0.5906,-1.33585129 0.5952,-0.44997096 1.7717,-0.44997096 h 1.2093 v -0.08437 q 0,-0.595274 -0.3937,-0.9186907 -0.389,-0.3281038 -1.0968,-0.3281038 -0.45,0 -0.8765,0.1078056 -0.4265,0.1078055 -0.8203,0.3234166 v -0.7968236 q 0.4734,-0.1828007 0.9187,-0.2718575 0.4453,-0.093744 0.8672,-0.093744 1.1389,0 1.7014,0.5905869 0.5625,0.5905869 0.5625,1.79050943 z"
         style="stroke-width:0.23998453px;fill:#111111;fill-opacity:1"
         id="path1138" />
      <path
         d="m 2191.6084,-2.3464717 q -0.1453,-0.08437 -0.3187,-0.1218671 -0.1688,-0.042185 -0.375,-0.042185 -0.7312,0 -1.1249,0.4780941 -0.3891,0.473407 -0.3891,1.36397451 V 2.0969915 h -0.8671 v -5.2496612 h 0.8671 v 0.8155724 q 0.2719,-0.4780941 0.7078,-0.7077668 0.4359,-0.2343599 1.0593,-0.2343599 0.089,0 0.1969,0.014062 0.1078,0.00937 0.239,0.03281 z"
         style="stroke-width:0.23998453px;fill:#111111;fill-opacity:1"
         id="path1140" />
      <path
         d="m 2196.1034,-2.9511202 v 0.806198 q -0.3656,-0.2015495 -0.7359,-0.2999806 -0.3656,-0.1031184 -0.7405,-0.1031184 -0.8391,0 -1.3031,0.5343405 -0.464,0.5296533 -0.464,1.49052883 0,0.96087549 0.464,1.49521601 0.464,0.52965336 1.3031,0.52965336 0.3749,0 0.7405,-0.098431 0.3703,-0.1031183 0.7359,-0.3046678 V 1.895442 q -0.3609,0.1687392 -0.7499,0.2531087 -0.3844,0.08437 -0.8203,0.08437 -1.1859,0 -1.8842,-0.7452644 -0.6984,-0.74526444 -0.6984,-2.01080777 0,-1.28429213 0.703,-2.02018213 0.7078,-0.73589 1.9359,-0.73589 0.3984,0 0.778,0.08437 0.3797,0.079682 0.7359,0.2437342 z"
         style="stroke-width:0.23998453px;fill:#111111;fill-opacity:1"
         id="path1142" />
      <path
         d="m 2201.9859,-1.071554 v 3.1685455 h -0.8625 v -3.1404223 q 0,-0.7452644 -0.2906,-1.115553 -0.2906,-0.3702886 -0.8718,-0.3702886 -0.6984,0 -1.1015,0.4452838 -0.4031,0.4452837 -0.4031,1.21398412 V 2.0969915 h -0.8671 v -7.2932793 h 0.8671 v 2.8591905 q 0.3093,-0.473407 0.7265,-0.7077668 0.4219,-0.2343599 0.9703,-0.2343599 0.9046,0 1.3686,0.5624637 0.4641,0.5577765 0.4641,1.6452063 z"
         style="stroke-width:0.23998453px;fill:#111111;fill-opacity:1"
         id="path1144" />
      <path
         d="m 2208.2058,-0.74345015 v 0.42184778 h -3.9654 q 0.056,0.89056752 0.5343,1.35928727 0.4828,0.4640326 1.3406,0.4640326 0.4968,0 0.9609,-0.1218672 0.4687,-0.1218671 0.928,-0.3656014 v 0.8155724 q -0.464,0.1968623 -0.9515,0.2999806 -0.4875,0.1031184 -0.989,0.1031184 -1.2562,0 -1.992,-0.7312028 -0.7312,-0.73120286 -0.7312,-1.97799739 0,-1.28897931 0.6937,-2.04361811 0.6984,-0.759326 1.8795,-0.759326 1.0593,0 1.6734,0.6843308 0.6187,0.6796437 0.6187,1.85144305 z m -0.8625,-0.25310867 q -0.01,-0.70776678 -0.3984,-1.12961458 -0.3843,-0.4218478 -1.0218,-0.4218478 -0.7218,0 -1.1577,0.4077862 -0.4313,0.4077862 -0.4969,1.14836338 z"
         style="stroke-width:0.23998453px;fill:#111111;fill-opacity:1"
         id="path1146" />
      <path
         d="m 2211.6555,-2.5480212 q -0.6937,0 -1.0968,0.5437149 -0.4031,0.5390277 -0.4031,1.48115443 0,0.9421267 0.3985,1.48584161 0.403,0.53902776 1.1014,0.53902776 0.6891,0 1.0922,-0.54371496 0.4031,-0.54371491 0.4031,-1.48115441 0,-0.93275233 -0.4031,-1.47646723 -0.4031,-0.5484021 -1.0922,-0.5484021 z m 0,-0.7312028 q 1.125,0 1.7671,0.7312028 0.6422,0.7312028 0.6422,2.02486933 0,1.28897932 -0.6422,2.02486937 -0.6421,0.7312028 -1.7671,0.7312028 -1.1296,0 -1.7717,-0.7312028 -0.6375,-0.73589005 -0.6375,-2.02486937 0,-1.29366653 0.6375,-2.02486933 0.6421,-0.7312028 1.7717,-0.7312028 z"
         style="stroke-width:0.23998453px;fill:#111111;fill-opacity:1"
         id="path1148" />
      <path
         d="m 2218.8363,-2.9979922 v 0.8155724 q -0.3656,-0.1874879 -0.7593,-0.2812318 -0.3937,-0.093744 -0.8156,-0.093744 -0.6421,0 -0.9655,0.1968623 -0.3188,0.1968623 -0.3188,0.5905869 0,0.2999806 0.2297,0.4734069 0.2297,0.1687392 0.9234,0.32341667 l 0.2953,0.0656208 q 0.9187,0.19686229 1.303,0.5577765 0.3891,0.35622701 0.3891,0.99837307 0,0.73120279 -0.5813,1.15773779 -0.5765,0.426535 -1.5889,0.426535 -0.4219,0 -0.8812,-0.08437 -0.4547,-0.079682 -0.9609,-0.2437343 V 1.0142489 q 0.4781,0.2484215 0.9421,0.3749758 0.4641,0.1218672 0.9187,0.1218672 0.6094,0 0.9375,-0.2062367 0.3281,-0.2109239 0.3281,-0.59058693 0,-0.35153981 -0.2391,-0.53902771 -0.2343,-0.1874879 -1.0358,-0.36091421 l -0.3,-0.070308 q -0.8015,-0.16873911 -1.1578,-0.51559172 -0.3562,-0.35153977 -0.3562,-0.96087547 0,-0.7405772 0.525,-1.1436762 0.5249,-0.403099 1.4905,-0.403099 0.4781,0 0.9,0.070308 0.4218,0.070308 0.778,0.2109238 z"
         style="stroke-width:0.23998453px;fill:#111111;fill-opacity:1"
         id="path1150" />
      <path
         d="m 2221.3487,-4.6431985 v 1.4905288 h 1.7764 v 0.6702693 h -1.7764 v 2.84981606 q 0,0.64214604 0.1734,0.82494674 0.1781,0.1828007 0.7171,0.1828007 h 0.8859 v 0.7218284 h -0.8859 q -0.9983,0 -1.378,-0.3702886 -0.3797,-0.3749758 -0.3797,-1.35928724 V -2.4824004 h -0.6327 v -0.6702693 h 0.6327 v -1.4905288 z"
         style="stroke-width:0.23998453px;fill:#111111;fill-opacity:1"
         id="path1152" />
      <path
         d="m 2224.2641,-3.1526697 h 0.8624 v 5.2496612 h -0.8624 z m 0,-2.0436181 h 0.8624 v 1.092117 h -0.8624 z"
         style="stroke-width:0.23998453px;fill:#111111;fill-opacity:1"
         id="path1154" />
      <path
         d="m 2230.7043,-2.9511202 v 0.806198 q -0.3656,-0.2015495 -0.7359,-0.2999806 -0.3656,-0.1031184 -0.7406,-0.1031184 -0.839,0 -1.303,0.5343405 -0.464,0.5296533 -0.464,1.49052883 0,0.96087549 0.464,1.49521601 0.464,0.52965336 1.303,0.52965336 0.375,0 0.7406,-0.098431 0.3703,-0.1031183 0.7359,-0.3046678 V 1.895442 q -0.3609,0.1687392 -0.7499,0.2531087 -0.3844,0.08437 -0.8203,0.08437 -1.1859,0 -1.8842,-0.7452644 -0.6984,-0.74526444 -0.6984,-2.01080777 0,-1.28429213 0.703,-2.02018213 0.7078,-0.73589 1.9359,-0.73589 0.3984,0 0.778,0.08437 0.3797,0.079682 0.7359,0.2437342 z"
         style="stroke-width:0.23998453px;fill:#111111;fill-opacity:1"
         id="path1156" />
      <path
         d="m 2232.1808,-5.1962878 h 0.8671 v 4.30753453 l 2.5733,-2.26391643 h 1.1015 l -2.7842,2.45609153 2.9014,2.79356967 h -1.125 l -2.667,-2.563897 v 2.563897 h -0.8671 z"
         style="stroke-width:0.23998453px;fill:#111111;fill-opacity:1"
         id="path1158" />
      <path
         d="m 2241.9348,-0.74345015 v 0.42184778 h -3.9653 q 0.056,0.89056752 0.5343,1.35928727 0.4828,0.4640326 1.3405,0.4640326 0.4969,0 0.9609,-0.1218672 0.4687,-0.1218671 0.9281,-0.3656014 v 0.8155724 q -0.464,0.1968623 -0.9515,0.2999806 -0.4875,0.1031184 -0.989,0.1031184 -1.2562,0 -1.9921,-0.7312028 -0.7312,-0.73120286 -0.7312,-1.97799739 0,-1.28897931 0.6937,-2.04361811 0.6984,-0.759326 1.8796,-0.759326 1.0593,0 1.6733,0.6843308 0.6187,0.6796437 0.6187,1.85144305 z m -0.8624,-0.25310867 q -0.01,-0.70776678 -0.3984,-1.12961458 -0.3844,-0.4218478 -1.0218,-0.4218478 -0.7219,0 -1.1578,0.4077862 -0.4312,0.4077862 -0.4968,1.14836338 z"
         style="stroke-width:0.23998453px;fill:#111111;fill-opacity:1"
         id="path1160" />
      <path
         d="m 2246.3924,-2.3464717 q -0.1453,-0.08437 -0.3188,-0.1218671 -0.1687,-0.042185 -0.3749,-0.042185 -0.7312,0 -1.125,0.4780941 -0.389,0.473407 -0.389,1.36397451 V 2.0969915 h -0.8671 v -5.2496612 h 0.8671 v 0.8155724 q 0.2719,-0.4780941 0.7078,-0.7077668 0.4359,-0.2343599 1.0593,-0.2343599 0.089,0 0.1968,0.014062 0.1078,0.00937 0.2391,0.03281 z"
         style="stroke-width:0.23998453px;fill:#111111;fill-opacity:1"
         id="path1162" />
      <path
         d="m 2246.5564,0.90644337 h 0.989 V 2.0969915 h -0.989 z"
         style="stroke-width:0.23998453px;fill:#111111;fill-opacity:1"
         id="path1164" />
      <path
         d="m 2253.2779,-2.9511202 v 0.806198 q -0.3656,-0.2015495 -0.7359,-0.2999806 -0.3656,-0.1031184 -0.7406,-0.1031184 -0.839,0 -1.3031,0.5343405 -0.464,0.5296533 -0.464,1.49052883 0,0.96087549 0.464,1.49521601 0.4641,0.52965336 1.3031,0.52965336 0.375,0 0.7406,-0.098431 0.3703,-0.1031183 0.7359,-0.3046678 V 1.895442 q -0.361,0.1687392 -0.75,0.2531087 -0.3843,0.08437 -0.8203,0.08437 -1.1858,0 -1.8842,-0.7452644 -0.6984,-0.74526444 -0.6984,-2.01080777 0,-1.28429213 0.7031,-2.02018213 0.7077,-0.73589 1.9358,-0.73589 0.3984,0 0.7781,0.08437 0.3796,0.079682 0.7359,0.2437342 z"
         style="stroke-width:0.23998453px;fill:#111111;fill-opacity:1"
         id="path1166" />
      <path
         d="m 2256.8214,-2.5480212 q -0.6937,0 -1.0968,0.5437149 -0.4031,0.5390277 -0.4031,1.48115443 0,0.9421267 0.3984,1.48584161 0.4031,0.53902776 1.1015,0.53902776 0.689,0 1.0921,-0.54371496 0.4031,-0.54371491 0.4031,-1.48115441 0,-0.93275233 -0.4031,-1.47646723 -0.4031,-0.5484021 -1.0921,-0.5484021 z m 0,-0.7312028 q 1.1249,0 1.7671,0.7312028 0.6421,0.7312028 0.6421,2.02486933 0,1.28897932 -0.6421,2.02486937 -0.6422,0.7312028 -1.7671,0.7312028 -1.1296,0 -1.7718,-0.7312028 -0.6374,-0.73589005 -0.6374,-2.02486937 0,-1.29366653 0.6374,-2.02486933 0.6422,-0.7312028 1.7718,-0.7312028 z"
         style="stroke-width:0.23998453px;fill:#111111;fill-opacity:1"
         id="path1168" />
      <path
         d="m 2264.7427,-2.1449222 q 0.3235,-0.5812125 0.7734,-0.8577571 0.45,-0.2765447 1.0593,-0.2765447 0.8203,0 1.2656,0.5765253 0.4453,0.5718381 0.4453,1.6311447 v 3.1685455 h -0.8672 v -3.1404223 q 0,-0.7546388 -0.2671,-1.1202402 -0.2672,-0.3656014 -0.8156,-0.3656014 -0.6703,0 -1.0593,0.4452838 -0.3891,0.4452837 -0.3891,1.21398412 V 2.0969915 h -0.8671 v -3.1404223 q 0,-0.759326 -0.2672,-1.1202402 -0.2671,-0.3656014 -0.8249,-0.3656014 -0.6609,0 -1.0499,0.449971 -0.3891,0.4452837 -0.3891,1.20929692 V 2.0969915 h -0.8671 v -5.2496612 h 0.8671 v 0.8155724 q 0.2953,-0.4827813 0.7078,-0.712454 0.4125,-0.2296727 0.9796,-0.2296727 0.5719,0 0.9703,0.2906062 0.4031,0.2906063 0.5952,0.8436956 z"
         style="stroke-width:0.23998453px;fill:#111111;fill-opacity:1"
         id="path1170" />
    </g>
  </g>
  <g
     transform="translate(-1925.3188,16.90508)"
     style="display:inline"
     inkscape:label="logo"
     id="layer11"
     inkscape:groupmode="layer">
    <text
       id="text4157"
       y="910.95593"
       x="-368.75"
       style="font-style:normal;font-variant:normal;font-weight:normal;font-stretch:normal;line-height:0%;font-family:Griffo;-inkscape-font-specification:Griffo;text-align:start;letter-spacing:0px;word-spacing:0px;writing-mode:lr-tb;text-anchor:start;fill:#000000;fill-opacity:1;stroke:none;stroke-width:1px;stroke-linecap:butt;stroke-linejoin:miter;stroke-opacity:1"
       xml:space="preserve"><tspan
         style="font-style:normal;font-variant:normal;font-weight:bold;font-stretch:normal;font-size:180px;line-height:1.25;font-family:'Open Sans';-inkscape-font-specification:'Open Sans Bold'"
         y="910.95593"
         x="-368.75"
         id="tspan4159"
         sodipodi:role="line"> </tspan></text>
  </g>
</svg>
