<?xml version="1.0" encoding="UTF-8" standalone="no"?>
<!-- Created with Inkscape (http://www.inkscape.org/) -->

<svg
   xmlns:dc="http://purl.org/dc/elements/1.1/"
   xmlns:cc="http://creativecommons.org/ns#"
   xmlns:rdf="http://www.w3.org/1999/02/22-rdf-syntax-ns#"
   xmlns:svg="http://www.w3.org/2000/svg"
   xmlns="http://www.w3.org/2000/svg"
   xmlns:sodipodi="http://sodipodi.sourceforge.net/DTD/sodipodi-0.dtd"
   xmlns:inkscape="http://www.inkscape.org/namespaces/inkscape"
   width="377.23471"
   height="89"
   viewBox="0 0 377.2347 89"
   id="svg2"
   version="1.1"
   inkscape:version="0.92.2 5c3e80d, 2017-08-06"
   sodipodi:docname="archeostickers_headers.svg"
   inkscape:export-filename="/Users/lucacorsato/Desktop/archeodribbble/public/stickers/lewis_chessmen.png"
   inkscape:export-xdpi="300"
   inkscape:export-ydpi="300">
  <defs
     id="defs4" />
  <sodipodi:namedview
     id="base"
     pagecolor="#ffffff"
     bordercolor="#666666"
     borderopacity="1.0"
     inkscape:pageopacity="0.0"
     inkscape:pageshadow="2"
     inkscape:zoom="3.0694444"
     inkscape:cx="172.73018"
     inkscape:cy="32.905803"
     inkscape:document-units="px"
     inkscape:current-layer="layer2"
     showgrid="false"
     units="px"
     inkscape:window-width="1920"
     inkscape:window-height="1097"
     inkscape:window-x="0"
     inkscape:window-y="1"
     inkscape:window-maximized="1"
     fit-margin-top="0"
     fit-margin-left="0"
     fit-margin-right="0"
     fit-margin-bottom="0"
     inkscape:snap-bbox="true"
     inkscape:bbox-paths="true"
     inkscape:bbox-nodes="true"
     inkscape:snap-bbox-edge-midpoints="true"
     inkscape:snap-bbox-midpoints="true"
     inkscape:object-paths="true"
     inkscape:snap-intersection-paths="true"
     inkscape:snap-smooth-nodes="true"
     inkscape:snap-midpoints="true"
     inkscape:snap-object-midpoints="true"
     inkscape:snap-center="true"
     inkscape:snap-text-baseline="true"
     inkscape:snap-page="true"
     inkscape:snap-global="true" />
  <metadata
     id="metadata7">
    <rdf:RDF>
      <cc:Work
         rdf:about="">
        <dc:format>image/svg+xml</dc:format>
        <dc:type
           rdf:resource="http://purl.org/dc/dcmitype/StillImage" />
        <dc:title></dc:title>
      </cc:Work>
    </rdf:RDF>
  </metadata>
  <g
     inkscape:groupmode="layer"
     id="layer2"
     inkscape:label="sfondo"
     style="display:inline"
     transform="translate(0.23469883,17)">
    <path
       style="opacity:1;fill:#fbf1a9;fill-opacity:1;stroke:none;stroke-width:0.28476244;stroke-linecap:round;stroke-linejoin:round;stroke-miterlimit:4;stroke-dasharray:none;stroke-opacity:1"
       d="m 18.534134,28.700066 c -1.499877,0.236709 -2.393311,1.668882 -3.509746,2.560073 -5.4166784,5.056116 -10.1666068,11.158287 -12.2385476,18.375856 -0.4364098,1.630058 -0.9242389,3.297348 -1.002533,4.980068 0.060019,1.406169 1.6460388,2.047871 2.854601,1.606959 2.8480483,-0.512646 5.7191026,-0.919218 8.5480306,-1.526701 1.506463,-0.617241 1.450397,-2.452195 1.964472,-3.755935 1.861756,-6.594703 3.76168,-13.181713 5.45854,-19.820673 0.24826,-1.260712 -0.7578,-2.523149 -2.074817,-2.419647 z m -7.960279,21.2326 c 0.728803,0.07772 0.719534,1.320309 -0.09093,1.223311 -0.7841892,-0.102955 -0.6133573,-1.169691 0.09093,-1.223311 z M 6.4258896,50.77583 c 0.7067892,0.04801 0.7286255,1.116948 -0.00501,1.166025 -0.7751099,0.165253 -0.8699593,-1.312984 0.00501,-1.166025 z"
       id="path1206"
       inkscape:connector-curvature="0" />
    <path
       style="opacity:1;fill:#fbf1a9;fill-opacity:1;stroke:none;stroke-width:0.28476244;stroke-linecap:round;stroke-linejoin:round;stroke-miterlimit:4;stroke-dasharray:none;stroke-opacity:1"
       d="m 19.285529,34.227906 c -1.32976,0.931722 -1.214842,2.773625 -1.777932,4.161427 -1.431505,5.056071 -2.833119,10.12082 -4.317208,15.16182 -3.4530856,0.704071 -6.9732461,1.130318 -10.4082109,1.872004 -1.6389561,0.556106 -1.3470701,2.576508 -1.5085628,3.967321 -0.1885346,3.352045 -0.30002862,6.718301 -0.66199665,10.053145 0.0680841,1.434746 1.62562715,2.067567 2.87793615,1.879599 1.2323967,0.200384 2.5540822,-0.506089 2.6966356,-1.824887 0.8725789,-3.178439 2.0886357,-6.43007 4.6212596,-8.676563 2.020449,-2.003846 4.792595,-2.896039 7.454889,-3.657011 1.47827,-0.658113 1.421731,-2.551724 2.017845,-3.853723 1.095886,-3.493925 2.359342,-6.953498 3.350027,-10.469044 0.04979,-1.529567 -0.660931,-2.995219 -0.929413,-4.4975 -0.519909,-1.403927 -0.340877,-3.320157 -1.782334,-4.169425 -0.573362,-0.180494 -1.069374,-0.164846 -1.632935,0.05283 z"
       id="path1208"
       inkscape:connector-curvature="0" />
    <path
       style="opacity:1;fill:#fbf1a9;fill-opacity:1;stroke:none;stroke-width:0.28476244;stroke-linecap:round;stroke-linejoin:round;stroke-miterlimit:4;stroke-dasharray:none;stroke-opacity:1"
       d="m 16.297748,56.674918 c -2.978232,0.651633 -5.715793,2.384252 -7.6040479,4.784232 -1.8245526,2.213386 -2.8888793,4.961353 -3.569542,7.715561 -0.100481,1.295559 1.152217,2.208141 2.364383,2.10159 1.8899059,-0.0016 3.8250459,0.234763 5.6815469,-0.141067 1.239596,-0.863424 1.511229,-2.49046 2.23444,-3.74724 1.214497,-2.802245 2.257476,-5.705495 2.947006,-8.678926 0.07306,-1.122707 -0.911241,-2.144772 -2.053786,-2.03415 z"
       id="path1210"
       inkscape:connector-curvature="0" />
    <path
       style="opacity:1;fill:#fbf1a9;fill-opacity:1;stroke:none;stroke-width:0.28476244;stroke-linecap:round;stroke-linejoin:round;stroke-miterlimit:4;stroke-dasharray:none;stroke-opacity:1"
       d="m 27.414607,41.536346 c -1.386985,0.166263 -2.837588,0.183544 -4.15603,0.671026 -1.23923,0.898829 -1.252869,2.597455 -1.830949,3.908369 -1.98242,6.09977 -4.045538,12.183721 -5.9374,18.306475 -0.356032,1.375195 0.963177,2.348951 2.1917,2.51092 3.013785,0.907082 6.003479,1.90435 9.039127,2.733513 1.339775,0.188473 2.327045,-1.077096 2.230151,-2.338067 0.625767,-7.455612 1.281062,-14.918465 1.822516,-22.374995 -0.131065,-1.207947 -1.022916,-2.24408 -1.920841,-3.013735 -0.421734,-0.28159 -0.931674,-0.424413 -1.438274,-0.403506 z"
       id="path1212"
       inkscape:connector-curvature="0" />
    <path
       style="opacity:1;fill:#fbf1a9;fill-opacity:1;stroke:none;stroke-width:0.28476244;stroke-linecap:round;stroke-linejoin:round;stroke-miterlimit:4;stroke-dasharray:none;stroke-opacity:1"
       d="m 16.197914,65.493378 c -1.644196,0.21381 -2.062201,2.065698 -2.661167,3.315094 -0.570814,1.414365 0.887952,2.801366 2.297982,2.513763 2.575634,-0.04799 5.171245,0.07702 7.734622,-0.07752 1.62447,-0.129417 2.136614,-2.568938 0.703835,-3.343904 -1.775105,-0.802395 -3.742367,-1.223136 -5.602982,-1.845914 -0.816267,-0.200199 -1.619487,-0.576014 -2.47229,-0.561523 z"
       id="path1214"
       inkscape:connector-curvature="0" />
    <path
       style="opacity:1;fill:#fbf1a9;fill-opacity:1;stroke:none;stroke-width:0.28476244;stroke-linecap:round;stroke-linejoin:round;stroke-miterlimit:4;stroke-dasharray:none;stroke-opacity:1"
       d="m 43.282606,43.155098 c -1.599413,0.349001 -2.775999,1.676626 -4.334083,2.179408 -2.312524,1.099547 -4.949996,0.954523 -7.42238,0.672388 -1.401592,-0.06382 -2.219088,1.357403 -2.142114,2.619036 -0.632763,6.93375 -1.145885,13.890449 -1.740743,20.819802 -0.07183,1.399817 1.460071,2.097866 2.680404,1.877443 3.203021,-0.04261 6.425322,0.08451 9.616273,-0.06437 1.41467,-0.152396 1.758808,-1.752461 1.593448,-2.940333 -0.06862,-4.042609 0.07682,-8.161845 0.92216,-12.085722 0.699111,-3.659356 1.78014,-7.267683 2.783108,-10.883265 0.167007,-1.155262 -0.784064,-2.234067 -1.956073,-2.194395 z"
       id="path1216"
       inkscape:connector-curvature="0" />
    <path
       style="opacity:1;fill:#fbf1a9;fill-opacity:1;stroke:none;stroke-width:0.28476244;stroke-linecap:round;stroke-linejoin:round;stroke-miterlimit:4;stroke-dasharray:none;stroke-opacity:1"
       d="m 25.472716,26.920857 c -1.284337,-0.06335 -2.77876,0.645662 -2.82649,2.09317 -0.161401,0.581409 -1.132622,0.506816 -1.44439,1.082321 -0.633922,0.61651 -0.476617,1.542679 -0.521973,2.300625 -0.590396,1.691143 0.357688,3.42841 0.626369,5.094492 0.49064,1.611268 0.63046,3.353452 1.402843,4.859679 1.152987,1.139857 2.865246,0.460113 4.283672,0.368746 1.391247,-0.09729 2.17919,-1.557083 1.780839,-2.831411 -0.476271,-3.82571 -0.839142,-7.677173 -1.391125,-11.486722 -0.192102,-0.874186 -1.016253,-1.506008 -1.909745,-1.4809 z"
       id="path1218"
       inkscape:connector-curvature="0" />
    <path
       style="opacity:1;fill:#fbf1a9;fill-opacity:1;stroke:none;stroke-width:0.28476244;stroke-linecap:round;stroke-linejoin:round;stroke-miterlimit:4;stroke-dasharray:none;stroke-opacity:1"
       d="m 35.83095,3.4268411 c -3.356919,-0.070421 -6.703569,0.4096398 -9.90972,1.4036845 -2.051388,0.6584307 -4.181642,1.2790141 -6.003917,2.4390661 -0.912316,1.000156 -1.001102,2.5068407 -1.447202,3.7603633 -0.612291,2.493327 -0.753791,5.101739 -0.616459,7.656706 0.142966,1.610901 2.014717,2.422096 3.407416,1.793114 0.58981,-0.21524 1.082125,-0.696063 1.282543,-1.294223 0.886712,-0.03255 1.269176,0.926256 2.142189,0.94531 1.363249,-0.353277 0.70398,0.183672 0.744637,1.201386 0.798652,6.795814 1.6225,13.584755 2.409924,20.380127 0.236179,1.219403 1.469659,2.003524 1.790333,3.131275 -0.07204,1.426486 1.344907,2.238124 2.594708,2.370803 3.533556,0.649707 7.221401,-0.376045 10.104034,-2.471128 1.628281,-1.198043 3.294752,-2.447484 4.554013,-4.030396 1.507458,-3.788173 3.095488,-7.558807 4.608881,-11.349623 1.121502,-2.948142 0.905819,-6.175281 0.718859,-9.261455 -0.286078,-2.609189 -0.954921,-5.1998 -1.074203,-7.806768 C 51.033598,10.709168 51.346577,9.1489935 51.480372,7.5842623 51.445872,5.9769285 49.716227,5.4791613 48.434471,5.1626687 44.711888,4.1557289 40.899061,3.3419549 37.021446,3.4293442 36.624628,3.4253887 36.227784,3.4245234 35.83095,3.426872 Z M 28.261387,14.845982 c 0.889347,0.02532 0.56793,1.477383 -0.24889,1.187995 -0.631496,-0.260121 -0.421858,-1.22568 0.24889,-1.187995 z m 13.241731,0.05924 c 0.813078,-0.0072 0.711121,1.385396 -0.09121,1.229985 -0.815962,-0.140663 -0.622803,-1.107687 0.09121,-1.229985 z"
       id="path1220"
       inkscape:connector-curvature="0" />
    <path
       style="opacity:1;fill:#fbf1a9;fill-opacity:1;stroke:none;stroke-width:0.28476244;stroke-linecap:round;stroke-linejoin:round;stroke-miterlimit:4;stroke-dasharray:none;stroke-opacity:1"
       d="m 49.599939,32.934795 c -1.465656,0.659229 -1.675352,2.468572 -2.332788,3.764276 -3.468612,8.913455 -6.538156,18.191965 -6.943759,27.823531 0.03715,1.844545 -0.267955,3.776072 0.293229,5.557947 0.558134,1.613216 2.517584,1.198764 3.851197,1.242673 7.816676,-0.02137 15.643044,0.04262 23.453683,-0.03193 1.402903,-0.08231 1.935377,-1.604378 1.707751,-2.815421 C 69.416178,65.348959 69.341327,62.191896 68.952163,59.08967 68.611857,57.459298 66.679009,57.590146 65.385015,57.41371 61.699425,56.99406 58.0134,56.578871 54.327441,56.162398 53.550502,48.831085 52.900205,41.480858 52.034324,34.162273 51.710039,33.166397 50.591856,32.606867 49.599939,32.934791 Z"
       id="path1222"
       inkscape:connector-curvature="0" />
    <path
       style="opacity:1;fill:#fbf1a9;fill-opacity:1;stroke:none;stroke-width:0.28476244;stroke-linecap:round;stroke-linejoin:round;stroke-miterlimit:4;stroke-dasharray:none;stroke-opacity:1"
       d="m 52.456184,30.168372 c -1.301813,0.142698 -1.931958,1.552853 -1.634694,2.727792 0.762057,7.688368 1.487202,15.385159 2.414454,23.054057 0.365299,1.291036 1.763505,1.508106 2.907133,1.577823 3.565078,0.416721 7.137907,0.874017 10.708443,1.176931 1.407312,0.0582 2.212354,-1.478063 1.81921,-2.716003 C 67.896605,50.540973 66.526912,45.073289 63.697419,40.30308 61.090745,36.209529 57.555513,32.635143 53.298235,30.276549 53.028899,30.16368 52.740714,30.18436 52.456184,30.168377 Z m 5.728063,22.185054 c 0.851162,0.0032 0.612278,1.477631 -0.248332,1.163799 -0.648039,-0.371165 -0.426259,-1.135305 0.248332,-1.163799 z m 5.419942,0.98471 c 0.827836,-0.163275 0.865765,1.343979 0.0381,1.182154 -0.63992,-0.09034 -0.784999,-0.97278 -0.0381,-1.182154 z"
       id="path1224"
       inkscape:connector-curvature="0" />
    <path
       style="opacity:1;fill:#fbf1a9;fill-opacity:1;stroke:none;stroke-width:0.28476244;stroke-linecap:round;stroke-linejoin:round;stroke-miterlimit:4;stroke-dasharray:none;stroke-opacity:1"
       d="m 39.846546,-16.143347 c -1.885093,0.220771 -3.808252,0.453167 -5.611544,1.061463 -1.303672,0.76347 -1.421729,2.46865 -2.087317,3.7061 -0.631426,1.219834 -1.10651,2.961689 -2.609318,3.3314812 -1.792011,-0.029459 -4.015252,-0.3671184 -4.84986,-2.1996782 -0.921115,-1.622279 -0.90051,-4.129631 -2.911029,-4.898805 -1.813149,-0.564303 -3.265532,1.226064 -3.834838,2.740561 -1.358099,3.7274595 -1.235873,7.7878172 -1.234434,11.69778624 0.128223,2.61663336 0.06962,5.27006206 0.46887,7.85753686 0.284915,1.4635086 2.108946,1.8106815 3.219054,1.0211093 4.487808,-2.1330172 9.373421,-3.5249228 14.273245,-3.5810645 3.456799,-0.1666315 6.89728,0.1219176 10.315133,0.9060138 1.698572,0.31673 3.337589,0.8969729 5.014765,1.277815 1.44013,0.1354481 2.33756,-1.366459 2.144895,-2.6618627 0.362789,-5.1383952 1.758531,-10.4141656 0.330926,-15.507317 -0.309456,-1.202911 -0.796311,-2.8357 -2.327249,-2.766827 -1.714668,0.214372 -2.337641,2.125734 -3.154218,3.411441 -0.560857,0.9111352 -0.980451,2.0500213 -1.833924,2.6996762 -0.799076,-0.7135361 -0.603546,-1.9632282 -1.006959,-2.8915622 -0.516594,-1.612852 -1.079623,-3.340594 -2.280325,-4.5765 -0.557776,-0.47275 -1.305323,-0.661034 -2.025873,-0.627367 z M 41.03454,-0.09208786 C 41.971489,-0.1050423 41.575806,1.4548471 40.778698,1.0347263 40.162332,0.81580856 40.394727,-0.15156582 41.03454,-0.09208786 Z m -6.519782,0.01918445 C 35.56884,-0.2126433 35.188882,1.4941579 34.310642,1.061697 33.803718,0.78924206 33.907254,-0.0243329 34.514758,-0.07290341 Z m 12.717814,0.43465375 c 0.858075,0.0218792 0.382327,1.55217856 -0.33732,1.11624546 -0.533427,-0.2759989 -0.385144,-1.3262595 0.33732,-1.11624546 z m -19.22508,0.22830972 c 0.77024,-0.0206554 0.829706,1.14185514 0.0976,1.22331114 -0.613268,0.043425 -0.959566,-0.82607695 -0.349834,-1.13849538 0.06256,-0.0773682 0.160332,-0.0903968 0.252226,-0.0848219 z m -5.89464,1.59900734 c 0.833495,0.00544 0.67711,1.2751896 -0.06618,1.2144125 -0.719545,-0.097974 -0.737461,-1.2856644 0.06618,-1.2144125 z"
       id="path1226"
       inkscape:connector-curvature="0" />
  </g>
  <g
     inkscape:groupmode="layer"
     id="layer1"
     inkscape:label="Disegno"
     style="display:inline"
     transform="translate(0.23469883,17)">
    <g
       id="g1146"
       transform="matrix(1.2150471,0,0,1.2150471,0.62767968,-16.32052)"
       style="stroke:#00449e;stroke-opacity:1">
      <path
         id="path1064"
         d="M 15.537281,36.505574 C -2.2323792,51.139605 2.0885852,60.713422 0.29023325,71.688967 H 56.40948 C 55.63939,58.643734 55.94006,45.162548 41.362228,37.739054"
         style="fill:none;fill-rule:evenodd;stroke:#00449e;stroke-width:2;stroke-linecap:round;stroke-linejoin:round;stroke-miterlimit:4;stroke-dasharray:none;stroke-opacity:1"
         inkscape:connector-curvature="0" />
      <path
         id="path1062"
         d="m 41.852176,18.999716 c -2.614443,5.297829 2.127211,11.400834 -0.489948,18.739338"
         style="fill:none;fill-rule:evenodd;stroke:#00449e;stroke-width:2;stroke-linecap:round;stroke-linejoin:round;stroke-miterlimit:4;stroke-dasharray:none;stroke-opacity:1"
         inkscape:connector-curvature="0" />
      <path
         id="path1060"
         d="m 16.103337,19.728964 c -2.718081,6.104517 -0.988038,11.918044 -0.566056,16.77661"
         style="fill:none;fill-rule:evenodd;stroke:#00449e;stroke-width:2;stroke-linecap:round;stroke-linejoin:round;stroke-miterlimit:4;stroke-dasharray:none;stroke-opacity:1"
         inkscape:connector-curvature="0" />
      <path
         id="path1000"
         d="M 14.146467,20.773099 C 22.512655,15.94536 31.748432,15.356867 41.852176,18.999716 41.665289,13.303765 44.313715,7.3897136 41.286033,1.9122856 38.938181,1.5100267 37.3467,10.175138 35.795354,6.3664929 35.423822,4.2253623 34.847943,2.1523475 33.187745,0.44077225 L 27.643235,1.3182472 C 26.338373,3.6618062 25.749727,7.6765366 23.271377,7.2819582 17.053273,6.9553381 20.054943,1.1268564 16.539537,1.3665178 13.598338,2.0002695 13.18618,9.518635 14.146467,20.773099 Z"
         style="fill:none;fill-rule:evenodd;stroke:#00449e;stroke-width:2;stroke-linecap:round;stroke-linejoin:round;stroke-miterlimit:4;stroke-dasharray:none;stroke-opacity:1"
         inkscape:connector-curvature="0" />
    </g>
    <path
       style="fill:none;fill-rule:evenodd;stroke:#00449e;stroke-width:2.43009424;stroke-linecap:butt;stroke-linejoin:round;stroke-miterlimit:4;stroke-dasharray:none;stroke-opacity:1"
       d="M 35.264769,12.180858 C 28.759296,3.3707513 23.492453,9.7993412 22.370941,13.396578"
       id="path893"
       inkscape:connector-curvature="0"
       sodipodi:nodetypes="cc" />
    <path
       style="fill:none;fill-rule:evenodd;stroke:#00449e;stroke-width:2.43009424;stroke-linecap:butt;stroke-linejoin:miter;stroke-miterlimit:4;stroke-dasharray:none;stroke-opacity:1"
       d="M 35.066843,10.9933 34.111908,28.616559"
       id="path897"
       inkscape:connector-curvature="0"
       sodipodi:nodetypes="cc" />
    <path
       style="fill:none;fill-rule:evenodd;stroke:#00449e;stroke-width:2.30858946;stroke-linecap:butt;stroke-linejoin:miter;stroke-miterlimit:4;stroke-dasharray:none;stroke-opacity:1"
       d="M 35.264769,11.092263 C 38.882985,5.9036567 44.793166,5.7346841 48.25937,13.915061"
       id="path900"
       inkscape:connector-curvature="0"
       sodipodi:nodetypes="cc" />
    <path
       style="fill:none;fill-rule:evenodd;stroke:#00449e;stroke-width:2.43009424;stroke-linecap:butt;stroke-linejoin:miter;stroke-miterlimit:4;stroke-dasharray:none;stroke-opacity:1"
       d="m 29.762122,36.10214 c 4.365765,-3.390741 7.973213,-3.35725 10.243869,1.084635"
       id="path906"
       inkscape:connector-curvature="0"
       sodipodi:nodetypes="cc" />
    <path
       style="fill:none;fill-rule:evenodd;stroke:#00449e;stroke-width:2.43009424;stroke-linecap:round;stroke-linejoin:round;stroke-miterlimit:4;stroke-dasharray:none;stroke-opacity:1"
       d="m 23.178344,42.607895 -3.672136,-14.572423 1.816578,4.401213 -0.786658,-12.429919 1.680074,10.09329 -0.07399,-11.83519 1.104858,11.285395 0.340054,-10.837839 1.28652,8.906681 0.890669,-8.411866 2.672004,22.761518 z"
       id="path967"
       inkscape:connector-curvature="0" />
    <path
       style="fill:none;fill-rule:evenodd;stroke:#00449e;stroke-width:2.43009424;stroke-linecap:butt;stroke-linejoin:miter;stroke-miterlimit:4;stroke-dasharray:none;stroke-opacity:1"
       d="M 23.178344,42.607895 15.618662,65.699288 28.209564,69.58485 30.256956,44.532177 28.436311,41.968755 Z"
       id="path970"
       inkscape:connector-curvature="0" />
    <path
       style="fill:none;fill-rule:evenodd;stroke:#00449e;stroke-width:2.43009424;stroke-linecap:butt;stroke-linejoin:miter;stroke-miterlimit:4;stroke-dasharray:none;stroke-opacity:1"
       d="M 50.884717,29.523028 C 44.515544,44.042926 39.770439,58.108253 41.064517,70.48323"
       id="path972"
       inkscape:connector-curvature="0"
       sodipodi:nodetypes="cc" />
    <path
       style="fill:none;fill-rule:evenodd;stroke:#00449e;stroke-width:2.43009424;stroke-linecap:butt;stroke-linejoin:miter;stroke-miterlimit:4;stroke-dasharray:none;stroke-opacity:1"
       d="M 20.414498,30.236079 13.650417,54.105041 2.8082781,55.934476"
       id="path974"
       inkscape:connector-curvature="0"
       sodipodi:nodetypes="cc" />
    <circle
       style="opacity:1;fill:#000000;fill-opacity:1;stroke:#00449e;stroke-width:1.135414;stroke-linecap:round;stroke-linejoin:round;stroke-miterlimit:4;stroke-dasharray:none;stroke-opacity:1"
       id="path978"
       cx="28.23839"
       cy="15.446639"
       r="0.64734012" />
    <circle
       r="0.64734012"
       cy="15.545603"
       cx="41.499447"
       id="circle980"
       style="opacity:1;fill:#000000;fill-opacity:1;stroke:#00449e;stroke-width:1.135414;stroke-linecap:round;stroke-linejoin:round;stroke-miterlimit:4;stroke-dasharray:none;stroke-opacity:1" />
    <circle
       r="0.64734012"
       cy="2.7793598"
       cx="22.102674"
       id="circle982"
       style="opacity:1;fill:#000000;fill-opacity:1;stroke:#00449e;stroke-width:1.135414;stroke-linecap:round;stroke-linejoin:round;stroke-miterlimit:4;stroke-dasharray:none;stroke-opacity:1" />
    <circle
       style="opacity:1;fill:#000000;fill-opacity:1;stroke:#00449e;stroke-width:1.135414;stroke-linecap:round;stroke-linejoin:round;stroke-miterlimit:4;stroke-dasharray:none;stroke-opacity:1"
       id="circle984"
       cx="28.040462"
       cy="1.1959519"
       r="0.64734012" />
    <circle
       r="0.64734012"
       cy="0.50320929"
       cx="34.572029"
       id="circle986"
       style="opacity:1;fill:#000000;fill-opacity:1;stroke:#00449e;stroke-width:1.135414;stroke-linecap:round;stroke-linejoin:round;stroke-miterlimit:4;stroke-dasharray:none;stroke-opacity:1" />
    <circle
       style="opacity:1;fill:#000000;fill-opacity:1;stroke:#00449e;stroke-width:1.135414;stroke-linecap:round;stroke-linejoin:round;stroke-miterlimit:4;stroke-dasharray:none;stroke-opacity:1"
       id="circle988"
       cx="41.004631"
       cy="0.50320929"
       r="0.64734012" />
    <circle
       r="0.64734012"
       cy="0.89906275"
       cx="47.14035"
       id="circle990"
       style="opacity:1;fill:#000000;fill-opacity:1;stroke:#00449e;stroke-width:1.135414;stroke-linecap:round;stroke-linejoin:round;stroke-miterlimit:4;stroke-dasharray:none;stroke-opacity:1" />
    <path
       style="fill:none;fill-rule:evenodd;stroke:#00449e;stroke-width:2.43009424;stroke-linecap:butt;stroke-linejoin:bevel;stroke-miterlimit:4;stroke-dasharray:none;stroke-opacity:1"
       d="m 38.431588,18.31657 c 1.90608,1.520482 4.098704,1.311363 6.531567,0.197926"
       id="path996"
       inkscape:connector-curvature="0"
       sodipodi:nodetypes="cc" />
    <path
       sodipodi:nodetypes="cc"
       inkscape:connector-curvature="0"
       id="path998"
       d="m 24.873642,18.613459 c 1.90608,1.520482 4.098702,1.311364 6.531567,0.197926"
       style="fill:none;fill-rule:evenodd;stroke:#00449e;stroke-width:2.43009424;stroke-linecap:butt;stroke-linejoin:bevel;stroke-miterlimit:4;stroke-dasharray:none;stroke-opacity:1" />
    <path
       style="fill:none;fill-rule:evenodd;stroke:#00449e;stroke-width:2.43009424;stroke-linecap:butt;stroke-linejoin:miter;stroke-miterlimit:4;stroke-dasharray:none;stroke-opacity:1"
       d="m 51.055788,29.623105 2.74638,27.079558 14.480537,1.617748"
       id="path1002"
       inkscape:connector-curvature="0" />
    <circle
       style="opacity:1;fill:#000000;fill-opacity:1;stroke:#00449e;stroke-width:1.135414;stroke-linecap:round;stroke-linejoin:round;stroke-miterlimit:4;stroke-dasharray:none;stroke-opacity:1"
       id="circle1004"
       cx="6.3845129"
       cy="51.364376"
       r="0.64734012" />
    <circle
       r="0.64734012"
       cy="50.57267"
       cx="10.540963"
       id="circle1006"
       style="opacity:1;fill:#000000;fill-opacity:1;stroke:#00449e;stroke-width:1.135414;stroke-linecap:round;stroke-linejoin:round;stroke-miterlimit:4;stroke-dasharray:none;stroke-opacity:1" />
    <circle
       style="opacity:1;fill:#000000;fill-opacity:1;stroke:#00449e;stroke-width:1.135414;stroke-linecap:round;stroke-linejoin:round;stroke-miterlimit:4;stroke-dasharray:none;stroke-opacity:1"
       id="circle1008"
       cx="58.142227"
       cy="52.947784"
       r="0.64734012" />
    <circle
       r="0.64734012"
       cy="53.937412"
       cx="63.684158"
       id="circle1010"
       style="opacity:1;fill:#000000;fill-opacity:1;stroke:#00449e;stroke-width:1.135414;stroke-linecap:round;stroke-linejoin:round;stroke-miterlimit:4;stroke-dasharray:none;stroke-opacity:1" />
    <path
       style="fill:none;fill-rule:evenodd;stroke:#00449e;stroke-width:2.43009424;stroke-linecap:butt;stroke-linejoin:miter;stroke-miterlimit:4;stroke-dasharray:none;stroke-opacity:1"
       d="M 18.705762,56.528706 C 11.982213,58.006593 7.4556018,60.818689 5.3284461,70.662775"
       id="path1012"
       inkscape:connector-curvature="0"
       sodipodi:nodetypes="cc" />
    <path
       style="fill:none;fill-rule:evenodd;stroke:#00449e;stroke-width:2.43009424;stroke-linecap:round;stroke-linejoin:round;stroke-miterlimit:4;stroke-dasharray:none;stroke-opacity:1"
       d="m 45.853822,41.078086 c -6.047093,6.037262 -10.967693,6.629809 -15.438245,5.047118"
       id="path1014"
       inkscape:connector-curvature="0"
       sodipodi:nodetypes="cc" />
    <path
       style="fill:none;fill-rule:evenodd;stroke:#00449e;stroke-width:2.43009424;stroke-linecap:butt;stroke-linejoin:miter;stroke-miterlimit:4;stroke-dasharray:none;stroke-opacity:1"
       d="m 15.618662,65.699288 -2.521631,5.085665"
       id="path1016"
       inkscape:connector-curvature="0" />
  </g>
  <g
     inkscape:groupmode="layer"
     id="layer3"
     inkscape:label="scritta"
     transform="translate(0.23469883,17)">
    <text
       xml:space="preserve"
       style="font-style:normal;font-variant:normal;font-weight:normal;font-stretch:normal;font-size:40.10286713px;line-height:125%;font-family:ETBembo;-inkscape-font-specification:ETBembo;letter-spacing:0px;word-spacing:0px;display:inline;fill:#000000;fill-opacity:1;stroke:none;stroke-width:1.0025717px;stroke-linecap:butt;stroke-linejoin:miter;stroke-opacity:1"
       x="143.51047"
       y="12.235148"
       id="text875"><tspan
         sodipodi:role="line"
         id="tspan873"
         x="143.51047"
         y="12.235148"
         style="stroke-width:1.0025717px">Archeostickers</tspan></text>
    <text
       xml:space="preserve"
       style="font-style:italic;font-variant:normal;font-weight:normal;font-stretch:normal;font-size:24.50045586px;line-height:125%;font-family:ETBembo;-inkscape-font-specification:'ETBembo Italic';letter-spacing:0px;word-spacing:0px;display:inline;fill:#000000;fill-opacity:1;stroke:none;stroke-width:0.6125114px;stroke-linecap:butt;stroke-linejoin:miter;stroke-opacity:1"
       x="143.29417"
       y="65.288696"
       id="text879"><tspan
         sodipodi:role="line"
         id="tspan877"
         x="143.29417"
         y="65.288696"
         style="stroke-width:0.6125114px">Classici sfacciati</tspan></text>
  </g>
</svg>
