<?xml version="1.0" encoding="UTF-8" standalone="no"?>
<!-- Created with Inkscape (http://www.inkscape.org/) -->

<svg
   xmlns:dc="http://purl.org/dc/elements/1.1/"
   xmlns:cc="http://creativecommons.org/ns#"
   xmlns:rdf="http://www.w3.org/1999/02/22-rdf-syntax-ns#"
   xmlns:svg="http://www.w3.org/2000/svg"
   xmlns="http://www.w3.org/2000/svg"
   xmlns:sodipodi="http://sodipodi.sourceforge.net/DTD/sodipodi-0.dtd"
   xmlns:inkscape="http://www.inkscape.org/namespaces/inkscape"
   width="200"
   height="200"
   viewBox="0 0 200 200"
   id="svg2"
   version="1.1"
   inkscape:version="0.92.2 5c3e80d, 2017-08-06"
   sodipodi:docname="archeostickers_icon.svg"
   inkscape:export-filename="/Users/lucacorsato/Documents/osd/website/archeostickers/assets/img/archeostickers_icon.png"
   inkscape:export-xdpi="300"
   inkscape:export-ydpi="300">
  <defs
     id="defs4" />
  <sodipodi:namedview
     id="base"
     pagecolor="#ffffff"
     bordercolor="#666666"
     borderopacity="1.0"
     inkscape:pageopacity="0.0"
     inkscape:pageshadow="2"
     inkscape:zoom="4.42"
     inkscape:cx="100"
     inkscape:cy="100"
     inkscape:document-units="px"
     inkscape:current-layer="layer2"
     showgrid="false"
     units="px"
     inkscape:window-width="1920"
     inkscape:window-height="1097"
     inkscape:window-x="0"
     inkscape:window-y="1"
     inkscape:window-maximized="1"
     fit-margin-top="0"
     fit-margin-left="0"
     fit-margin-right="0"
     fit-margin-bottom="0"
     inkscape:snap-bbox="true"
     inkscape:bbox-paths="true"
     inkscape:bbox-nodes="true"
     inkscape:snap-bbox-edge-midpoints="true"
     inkscape:snap-bbox-midpoints="true"
     inkscape:object-paths="true"
     inkscape:snap-intersection-paths="true"
     inkscape:snap-smooth-nodes="true"
     inkscape:snap-midpoints="true"
     inkscape:snap-object-midpoints="true"
     inkscape:snap-center="true"
     inkscape:snap-text-baseline="true"
     inkscape:snap-page="true"
     inkscape:snap-global="false" />
  <metadata
     id="metadata7">
    <rdf:RDF>
      <cc:Work
         rdf:about="">
        <dc:format>image/svg+xml</dc:format>
        <dc:type
           rdf:resource="http://purl.org/dc/dcmitype/StillImage" />
        <dc:title></dc:title>
      </cc:Work>
    </rdf:RDF>
  </metadata>
  <g
     inkscape:groupmode="layer"
     id="layer2"
     inkscape:label="sfondo"
     style="display:inline"
     transform="translate(0,128)">
    <path
       style="opacity:1;fill:#fbf1a9;fill-opacity:1;stroke:none;stroke-width:0.63991565;stroke-linecap:round;stroke-linejoin:round;stroke-miterlimit:4;stroke-dasharray:none;stroke-opacity:1"
       d="m 62.83154,-25.303222 c -3.370512,0.53193 -5.378228,3.750297 -7.88707,5.752972 -12.172311,11.3620583 -22.846307,25.0748028 -27.502354,41.294058 -0.980696,3.663053 -2.076941,7.409773 -2.252883,11.191164 0.134875,3.159931 3.698963,4.601959 6.414833,3.611145 6.400109,-1.152014 12.851916,-2.065659 19.209057,-3.430789 3.385311,-1.387059 3.259319,-5.51055 4.414544,-8.440303 4.183723,-14.8195583 8.453214,-29.6218278 12.266384,-44.540839 0.557886,-2.833061 -1.702923,-5.669997 -4.662511,-5.437408 z M 44.943273,22.410486 c 1.637759,0.174639 1.616929,2.966986 -0.204347,2.749014 -1.762223,-0.231361 -1.378331,-2.628519 0.204347,-2.749014 z m -9.321271,1.89475 c 1.58829,0.107889 1.63736,2.509995 -0.01125,2.620281 -1.74182,0.371355 -1.954965,-2.950525 0.01125,-2.620281 z"
       id="path1206"
       inkscape:connector-curvature="0" />
    <path
       style="opacity:1;fill:#00449e;fill-opacity:1;stroke:none;stroke-width:0.63991565;stroke-linecap:round;stroke-linejoin:round;stroke-miterlimit:4;stroke-dasharray:none;stroke-opacity:1"
       d="m 64.520067,-12.881111 c -2.988225,2.093758 -2.72998,6.2328665 -3.995352,9.3515221 -3.216864,11.3619584 -6.366559,22.7434169 -9.701592,34.0715059 -7.759742,1.582183 -15.670215,2.540041 -23.389237,4.20675 -3.683047,1.249677 -3.027124,5.789905 -3.390029,8.915327 -0.423673,7.532687 -0.674221,15.097306 -1.487633,22.591339 0.152998,3.224148 3.653095,4.646217 6.467273,4.223817 2.76943,0.450303 5.73951,-1.137278 6.059855,-4.100869 1.960851,-7.142559 4.693563,-14.449595 10.384852,-19.497895 4.540336,-4.503025 10.769877,-6.507953 16.752561,-8.218003 3.321955,-1.478905 3.1949,-5.734211 4.534483,-8.66005 2.462664,-7.851516 5.301892,-15.625839 7.52815,-23.5259413 0.111889,-3.4372306 -1.485239,-6.73083059 -2.08857,-10.1067417 -1.168333,-3.1548917 -0.766013,-7.461028 -4.005244,-9.369494 -1.288453,-0.405606 -2.403086,-0.370442 -3.669517,0.118722 z"
       id="path1208"
       inkscape:connector-curvature="0" />
    <path
       style="opacity:1;fill:#fbf1a9;fill-opacity:1;stroke:none;stroke-width:0.63991565;stroke-linecap:round;stroke-linejoin:round;stroke-miterlimit:4;stroke-dasharray:none;stroke-opacity:1"
       d="m 57.805953,37.561614 c -6.692655,1.464344 -12.844478,5.357869 -17.087748,10.751083 -4.100118,4.9739 -6.491864,11.149109 -8.021443,17.338339 -0.2258,2.91137 2.589252,4.962114 5.313221,4.722675 4.246979,-0.0036 8.595609,0.527556 12.76752,-0.317005 2.785609,-1.940278 3.39602,-5.596539 5.021214,-8.420764 2.729206,-6.297181 5.072981,-12.821336 6.622486,-19.503206 0.164167,-2.522936 -2.047733,-4.819711 -4.61525,-4.571122 z"
       id="path1210"
       inkscape:connector-curvature="0" />
    <path
       style="opacity:1;fill:#fbf1a9;fill-opacity:1;stroke:none;stroke-width:0.63991565;stroke-linecap:round;stroke-linejoin:round;stroke-miterlimit:4;stroke-dasharray:none;stroke-opacity:1"
       d="m 82.787659,3.54235 c -3.116819,0.373625 -6.376603,0.4124583 -9.339394,1.507925 -2.784787,2.0198389 -2.815437,5.836978 -4.114492,8.78285 -4.454875,13.70735 -9.091097,27.37915 -13.342472,41.138147 -0.800073,3.090325 2.164444,5.278542 4.925169,5.642517 6.77255,2.038386 13.490964,4.279439 20.312645,6.142725 3.01073,0.423536 5.229313,-2.420439 5.011575,-5.254083 C 87.646909,44.748247 89.119481,27.977792 90.336231,11.221544 90.041703,8.5070556 88.037545,6.1786667 86.019734,4.4491056 85.072017,3.8163194 83.926087,3.4953694 82.787659,3.54235 Z"
       id="path1212"
       inkscape:connector-curvature="0" />
    <path
       style="opacity:1;fill:#fbf1a9;fill-opacity:1;stroke:none;stroke-width:0.63991565;stroke-linecap:round;stroke-linejoin:round;stroke-miterlimit:4;stroke-dasharray:none;stroke-opacity:1"
       d="m 57.581606,57.378378 c -3.694822,0.480472 -4.634158,4.642017 -5.98015,7.44965 -1.282728,3.178347 1.995397,6.295203 5.164006,5.648905 5.787941,-0.107833 11.620775,0.173084 17.381172,-0.174194 3.650494,-0.290825 4.801381,-5.772894 1.581653,-7.514392 -3.989,-1.803133 -8.409814,-2.748619 -12.590972,-4.148119 -1.834309,-0.449886 -3.639298,-1.294414 -5.555709,-1.26185 z"
       id="path1214"
       inkscape:connector-curvature="0" />
    <path
       style="opacity:1;fill:#fbf1a9;fill-opacity:1;stroke:none;stroke-width:0.63991565;stroke-linecap:round;stroke-linejoin:round;stroke-miterlimit:4;stroke-dasharray:none;stroke-opacity:1"
       d="m 118.44608,7.1799945 c -3.59418,0.7842722 -6.2382,3.7676995 -9.73951,4.8975475 -5.19668,2.470891 -11.123586,2.144994 -16.679505,1.510983 -3.149645,-0.143417 -4.986714,3.050344 -4.813739,5.885475 -1.421939,15.581461 -2.575023,31.214492 -3.911781,46.786072 -0.161417,3.145656 3.281058,4.714306 6.023378,4.218973 7.1978,-0.09575 14.438927,0.189916 21.609607,-0.144639 3.17903,-0.342464 3.95237,-3.938117 3.58078,-6.607492 -0.15419,-9.084514 0.17264,-18.341225 2.07227,-27.158925 1.57104,-8.223272 4.00031,-16.331872 6.25418,-24.456775 0.37529,-2.5960945 -1.76194,-5.0203751 -4.39568,-4.9312251 z"
       id="path1216"
       inkscape:connector-curvature="0" />
    <path
       style="opacity:1;fill:#fbf1a9;fill-opacity:1;stroke:none;stroke-width:0.63991565;stroke-linecap:round;stroke-linejoin:round;stroke-miterlimit:4;stroke-dasharray:none;stroke-opacity:1"
       d="m 78.423859,-29.301444 c -2.88615,-0.142362 -6.244406,1.450925 -6.351664,4.703752 -0.362697,1.306536 -2.545217,1.138911 -3.245819,2.432181 -1.424545,1.385417 -1.07105,3.466694 -1.172973,5.169944 -1.326733,3.800323 0.803792,7.704292 1.40757,11.4482975 1.102561,3.6208278 1.416764,7.5358473 3.152455,10.9206278 2.590984,2.561475 6.438756,1.0339612 9.626231,0.8286417 3.126397,-0.2186389 4.897056,-3.4990639 4.001886,-6.36272222 C 84.771273,-8.7578222 83.955831,-17.412794 82.71542,-25.973581 c -0.431689,-1.964461 -2.283714,-3.384286 -4.291561,-3.327863 z"
       id="path1218"
       inkscape:connector-curvature="0" />
    <path
       style="opacity:1;fill:#fbf1a9;fill-opacity:1;stroke:none;stroke-width:0.63991565;stroke-linecap:round;stroke-linejoin:round;stroke-miterlimit:4;stroke-dasharray:none;stroke-opacity:1"
       d="m 101.70079,-82.096986 c -7.543639,-0.15825 -15.0642,0.920539 -22.269034,3.154347 -4.609861,1.479619 -9.39695,2.874189 -13.49195,5.481047 -2.050147,2.247542 -2.249666,5.63335 -3.252139,8.450256 -1.375933,5.60298 -1.693911,11.46458 -1.3853,17.20608 0.321273,3.620003 4.527453,5.442912 7.657114,4.02947 1.325417,-0.483686 2.431742,-1.564186 2.88212,-2.908367 1.992611,-0.07314 2.85208,2.081475 4.813908,2.124292 3.063481,-0.793881 1.581978,0.412747 1.673342,2.699744 1.794722,15.271492 3.646066,30.527539 5.415558,45.7980392 0.530739,2.7402306 3.302606,4.5023 4.023219,7.0365718 -0.161888,3.205587 3.022264,5.029492 5.830806,5.327648 7.940576,1.460016 16.227866,-0.845045 22.705696,-5.553098 3.65906,-2.6922301 7.40394,-5.4999634 10.23374,-9.057069 3.38755,-8.5127472 6.95615,-16.986083 10.35703,-25.504769 2.52024,-6.625039 2.03555,-13.877037 1.61542,-20.812259 -0.64287,-5.863347 -2.14589,-11.684944 -2.41394,-17.5433 -0.23233,-3.563853 0.47099,-7.069864 0.77165,-10.586114 -0.0775,-3.611986 -3.96437,-4.730564 -6.84472,-5.441783 -8.36535,-2.262786 -16.93351,-4.091492 -25.64725,-3.895111 -0.89173,-0.0089 -1.78351,-0.01083 -2.67527,-0.0056 z m -17.010256,25.660991 c 1.998533,0.05689 1.276247,3.319962 -0.559303,2.66965 -1.419091,-0.584541 -0.947994,-2.754336 0.559303,-2.66965 z m 29.756696,0.133112 c 1.82715,-0.01611 1.59803,3.11325 -0.20497,2.764011 -1.83362,-0.316098 -1.39956,-2.489184 0.20497,-2.764011 z"
       id="path1220"
       inkscape:connector-curvature="0" />
    <path
       style="opacity:1;fill:#00449e;fill-opacity:1;stroke:none;stroke-width:0.63991565;stroke-linecap:round;stroke-linejoin:round;stroke-miterlimit:4;stroke-dasharray:none;stroke-opacity:1"
       d="m 132.64234,-15.786978 c -3.29361,1.481414 -3.76484,5.547353 -5.24222,8.4590474 -7.79464,20.0302366 -14.69249,40.8808196 -15.60395,62.5247886 0.0835,4.145045 -0.60215,8.485556 0.65894,12.48977 1.25423,3.625203 5.65749,2.69385 8.65438,2.792522 17.56556,-0.04803 35.1529,0.09578 52.7049,-0.07175 3.15259,-0.184972 4.34916,-3.605344 3.83764,-6.326789 -0.47881,-7.026769 -0.64702,-14.121292 -1.52154,-21.092586 -0.76474,-3.663758 -5.10822,-3.369717 -8.01607,-3.766203 -8.28222,-0.943033 -16.56542,-1.876041 -24.84848,-2.811936 -1.74593,-16.474861 -3.20727,-32.9922249 -5.15307,-49.438483 -0.72873,-2.237925 -3.2415,-3.495295 -5.47053,-2.758386 z"
       id="path1222"
       inkscape:connector-curvature="0" />
    <path
       style="opacity:1;fill:#fbf1a9;fill-opacity:1;stroke:none;stroke-width:0.63991565;stroke-linecap:round;stroke-linejoin:round;stroke-miterlimit:4;stroke-dasharray:none;stroke-opacity:1"
       d="m 139.06087,-22.003658 c -2.92542,0.320669 -4.34148,3.489558 -3.67347,6.129869 1.71249,17.2772307 3.34203,34.573392 5.42574,51.80687 0.8209,2.901205 3.96293,3.389002 6.53288,3.545669 8.01141,0.936453 16.04024,1.964083 24.06392,2.644789 3.1625,0.130778 4.97158,-3.321489 4.08811,-6.103378 C 173.75844,23.777467 170.68048,11.490536 164.32207,0.77096667 158.46438,-8.428025 150.52004,-16.460353 140.95312,-21.760564 c -0.60525,-0.253639 -1.25286,-0.207167 -1.89225,-0.243083 z m 12.87205,49.854052 c 1.91272,0.0072 1.37591,3.32052 -0.55805,2.615281 -1.45627,-0.834081 -0.95788,-2.551247 0.55805,-2.615281 z m 12.17965,2.212834 c 1.8603,-0.366911 1.94553,3.020178 0.0856,2.656525 -1.43803,-0.203 -1.76404,-2.186022 -0.0856,-2.656525 z"
       id="path1224"
       inkscape:connector-curvature="0" />
    <path
       style="opacity:1;fill:#fbf1a9;fill-opacity:1;stroke:none;stroke-width:0.63991565;stroke-linecap:round;stroke-linejoin:round;stroke-miterlimit:4;stroke-dasharray:none;stroke-opacity:1"
       d="m 110.7246,-126.07494 c -4.23616,0.49612 -8.55787,1.01836 -12.61021,2.38531 -2.9296,1.71567 -3.194898,5.54753 -4.6906,8.32832 -1.418937,2.7412 -2.486539,6.65548 -5.863637,7.48647 -4.026991,-0.0662 -9.023038,-0.82498 -10.898561,-4.9431 -2.069922,-3.64557 -2.023619,-9.28006 -6.541639,-11.00854 -4.074491,-1.2681 -7.338275,2.75519 -8.617613,6.15856 -3.051909,8.37631 -2.777242,17.50071 -2.774009,26.287159 0.288142,5.880075 0.156445,11.842836 1.053639,17.657386 0.640258,3.288783 4.739206,4.068947 7.233831,2.294628 10.084961,-4.793298 21.063866,-7.921175 32.074708,-8.047336 7.768091,-0.374453 15.499511,0.273972 23.180081,2.035986 3.81701,0.711752 7.5002,2.015669 11.26913,2.871494 3.23625,0.304378 5.25295,-3.070694 4.81999,-5.981714 0.81526,-11.546955 3.95176,-23.402623 0.74365,-34.847903 -0.6954,-2.70317 -1.78946,-6.37236 -5.22977,-6.21759 -3.85319,0.48174 -5.25312,4.77693 -7.08813,7.66616 -1.26035,2.0475 -2.20326,4.60679 -4.12118,6.06669 -1.79568,-1.60345 -1.35628,-4.41175 -2.26283,-6.49789 -1.16088,-3.62439 -2.42612,-7.50696 -5.12433,-10.28427 -1.25342,-1.06236 -2.9333,-1.48547 -4.55252,-1.40982 z m 2.66965,36.070248 c 2.1055,-0.02911 1.21633,3.476259 -0.57493,2.532167 -1.38509,-0.49195 -0.86285,-2.665825 0.57493,-2.532167 z m -14.651197,0.04311 c 2.368727,-0.314022 1.514887,3.521486 -0.458686,2.549664 -1.139155,-0.612258 -0.906491,-2.440516 0.458686,-2.549664 z m 28.579367,0.97675 c 1.92825,0.04917 0.85916,3.488042 -0.75803,2.508417 -1.19871,-0.620222 -0.86549,-2.980358 0.75803,-2.508417 z m -43.202436,0.513056 c 1.730878,-0.04642 1.864508,2.565967 0.219333,2.749014 -1.37813,0.09758 -2.156327,-1.856353 -0.786144,-2.558417 0.140583,-0.173861 0.360297,-0.203139 0.5668,-0.190611 z M 70.873603,-84.8785 c 1.873023,0.01222 1.521595,2.865594 -0.148722,2.729017 -1.616955,-0.220167 -1.657216,-2.889134 0.148722,-2.729017 z"
       id="path1226"
       inkscape:connector-curvature="0" />
  </g>
  <g
     inkscape:groupmode="layer"
     id="layer1"
     inkscape:label="Disegno"
     style="display:inline"
     transform="translate(0,128)">
    <g
       id="g1146"
       transform="matrix(2.730443,0,0,2.730443,22.592317,-126.47308)"
       style="stroke:#00449e;stroke-opacity:1">
      <path
         id="path1064"
         d="M 15.537281,36.505574 C -2.2323792,51.139605 2.0885852,60.713422 0.29023325,71.688967 H 56.40948 C 55.63939,58.643734 55.94006,45.162548 41.362228,37.739054"
         style="fill:none;fill-rule:evenodd;stroke:#00449e;stroke-width:2;stroke-linecap:round;stroke-linejoin:round;stroke-miterlimit:4;stroke-dasharray:none;stroke-opacity:1"
         inkscape:connector-curvature="0" />
      <path
         id="path1062"
         d="m 41.852176,18.999716 c -2.614443,5.297829 2.127211,11.400834 -0.489948,18.739338"
         style="fill:none;fill-rule:evenodd;stroke:#00449e;stroke-width:2;stroke-linecap:round;stroke-linejoin:round;stroke-miterlimit:4;stroke-dasharray:none;stroke-opacity:1"
         inkscape:connector-curvature="0" />
      <path
         id="path1060"
         d="m 16.103337,19.728964 c -2.718081,6.104517 -0.988038,11.918044 -0.566056,16.77661"
         style="fill:none;fill-rule:evenodd;stroke:#00449e;stroke-width:2;stroke-linecap:round;stroke-linejoin:round;stroke-miterlimit:4;stroke-dasharray:none;stroke-opacity:1"
         inkscape:connector-curvature="0" />
      <path
         id="path1000"
         d="M 14.146467,20.773099 C 22.512655,15.94536 31.748432,15.356867 41.852176,18.999716 41.665289,13.303765 44.313715,7.3897136 41.286033,1.9122856 38.938181,1.5100267 37.3467,10.175138 35.795354,6.3664929 35.423822,4.2253623 34.847943,2.1523475 33.187745,0.44077225 L 27.643235,1.3182472 C 26.338373,3.6618062 25.749727,7.6765366 23.271377,7.2819582 17.053273,6.9553381 20.054943,1.1268564 16.539537,1.3665178 13.598338,2.0002695 13.18618,9.518635 14.146467,20.773099 Z"
         style="fill:none;fill-rule:evenodd;stroke:#00449e;stroke-width:2;stroke-linecap:round;stroke-linejoin:round;stroke-miterlimit:4;stroke-dasharray:none;stroke-opacity:1"
         inkscape:connector-curvature="0" />
    </g>
    <path
       style="fill:none;fill-rule:evenodd;stroke:#00449e;stroke-width:5.460886;stroke-linecap:butt;stroke-linejoin:round;stroke-miterlimit:4;stroke-dasharray:none;stroke-opacity:1"
       d="M 100.42847,-62.425039 C 85.809431,-82.223031 73.973828,-67.776761 71.453578,-59.693083"
       id="path893"
       inkscape:connector-curvature="0"
       sodipodi:nodetypes="cc" />
    <path
       style="fill:none;fill-rule:evenodd;stroke:#00449e;stroke-width:5.460886;stroke-linecap:butt;stroke-linejoin:miter;stroke-miterlimit:4;stroke-dasharray:none;stroke-opacity:1"
       d="m 99.983695,-65.093708 -2.145922,39.60283"
       id="path897"
       inkscape:connector-curvature="0"
       sodipodi:nodetypes="cc" />
    <path
       style="fill:none;fill-rule:evenodd;stroke:#00449e;stroke-width:5.18784142;stroke-linecap:butt;stroke-linejoin:miter;stroke-miterlimit:4;stroke-dasharray:none;stroke-opacity:1"
       d="m 100.42847,-64.87132 c 8.13083,-11.659788 21.41213,-12.039502 29.20136,6.343367"
       id="path900"
       inkscape:connector-curvature="0"
       sodipodi:nodetypes="cc" />
    <path
       style="fill:none;fill-rule:evenodd;stroke:#00449e;stroke-width:5.460886;stroke-linecap:round;stroke-linejoin:round;stroke-miterlimit:4;stroke-dasharray:none;stroke-opacity:1"
       d="m 73.267967,5.950325 -8.251991,-32.747017 4.082197,9.890367 -1.76777,-27.932403 3.775448,22.68155 -0.166278,-26.595933 2.482828,25.360439 0.764166,-24.354695 2.891056,20.015014 2.001503,-18.903069 6.004502,51.1494776 z"
       id="path967"
       inkscape:connector-curvature="0" />
    <path
       style="fill:none;fill-rule:evenodd;stroke:#00449e;stroke-width:5.460886;stroke-linecap:butt;stroke-linejoin:miter;stroke-miterlimit:4;stroke-dasharray:none;stroke-opacity:1"
       d="m 73.267967,5.950325 -16.98805,51.890772 28.294161,8.7316 4.600881,-56.298141 -4.091336,-5.7605004 z"
       id="path970"
       inkscape:connector-curvature="0" />
    <path
       style="fill:none;fill-rule:evenodd;stroke:#00449e;stroke-width:5.460886;stroke-linecap:butt;stroke-linejoin:miter;stroke-miterlimit:4;stroke-dasharray:none;stroke-opacity:1"
       d="M 135.52948,-23.453869 C 121.21674,9.1751139 110.55357,40.782592 113.46162,68.591528"
       id="path972"
       inkscape:connector-curvature="0"
       sodipodi:nodetypes="cc" />
    <path
       style="fill:none;fill-rule:evenodd;stroke:#00449e;stroke-width:5.460886;stroke-linecap:butt;stroke-linejoin:miter;stroke-miterlimit:4;stroke-dasharray:none;stroke-opacity:1"
       d="M 67.057076,-21.851508 51.856895,31.786608 27.492538,35.8977"
       id="path974"
       inkscape:connector-curvature="0"
       sodipodi:nodetypes="cc" />
    <circle
       style="opacity:1;fill:#000000;fill-opacity:1;stroke:#00449e;stroke-width:2.55149221;stroke-linecap:round;stroke-linejoin:round;stroke-miterlimit:4;stroke-dasharray:none;stroke-opacity:1"
       id="path978"
       cx="84.638855"
       cy="-55.086205"
       r="1.4546969" />
    <circle
       r="1.4546969"
       cy="-54.863815"
       cx="114.43898"
       id="circle980"
       style="opacity:1;fill:#000000;fill-opacity:1;stroke:#00449e;stroke-width:2.55149221;stroke-linecap:round;stroke-linejoin:round;stroke-miterlimit:4;stroke-dasharray:none;stroke-opacity:1" />
    <circle
       r="1.4546969"
       cy="-83.552002"
       cx="70.850731"
       id="circle982"
       style="opacity:1;fill:#000000;fill-opacity:1;stroke:#00449e;stroke-width:2.55149221;stroke-linecap:round;stroke-linejoin:round;stroke-miterlimit:4;stroke-dasharray:none;stroke-opacity:1" />
    <circle
       style="opacity:1;fill:#000000;fill-opacity:1;stroke:#00449e;stroke-width:2.55149221;stroke-linecap:round;stroke-linejoin:round;stroke-miterlimit:4;stroke-dasharray:none;stroke-opacity:1"
       id="circle984"
       cx="84.194077"
       cy="-87.110222"
       r="1.4546969" />
    <circle
       r="1.4546969"
       cy="-88.666946"
       cx="98.87175"
       id="circle986"
       style="opacity:1;fill:#000000;fill-opacity:1;stroke:#00449e;stroke-width:2.55149221;stroke-linecap:round;stroke-linejoin:round;stroke-miterlimit:4;stroke-dasharray:none;stroke-opacity:1" />
    <circle
       style="opacity:1;fill:#000000;fill-opacity:1;stroke:#00449e;stroke-width:2.55149221;stroke-linecap:round;stroke-linejoin:round;stroke-miterlimit:4;stroke-dasharray:none;stroke-opacity:1"
       id="circle988"
       cx="113.32704"
       cy="-88.666946"
       r="1.4546969" />
    <circle
       r="1.4546969"
       cy="-87.77739"
       cx="127.11517"
       id="circle990"
       style="opacity:1;fill:#000000;fill-opacity:1;stroke:#00449e;stroke-width:2.55149221;stroke-linecap:round;stroke-linejoin:round;stroke-miterlimit:4;stroke-dasharray:none;stroke-opacity:1" />
    <path
       style="fill:none;fill-rule:evenodd;stroke:#00449e;stroke-width:5.460886;stroke-linecap:butt;stroke-linejoin:bevel;stroke-miterlimit:4;stroke-dasharray:none;stroke-opacity:1"
       d="m 107.54492,-48.636922 c 4.28333,5.249533 9.21057,5.32253 14.67768,0.444778"
       id="path996"
       inkscape:connector-curvature="0"
       sodipodi:nodetypes="cc" />
    <path
       sodipodi:nodetypes="cc"
       inkscape:connector-curvature="0"
       id="path998"
       d="m 77.190748,-47.404144 c 4.386689,6.441861 12.639955,3.590219 14.677678,0.444777"
       style="fill:none;fill-rule:evenodd;stroke:#00449e;stroke-width:5.460886;stroke-linecap:butt;stroke-linejoin:bevel;stroke-miterlimit:4;stroke-dasharray:none;stroke-opacity:1" />
    <path
       style="fill:none;fill-rule:evenodd;stroke:#00449e;stroke-width:5.460886;stroke-linecap:butt;stroke-linejoin:miter;stroke-miterlimit:4;stroke-dasharray:none;stroke-opacity:1"
       d="m 135.91391,-23.228978 6.17164,60.852939 32.54054,3.635389"
       id="path1002"
       inkscape:connector-curvature="0" />
    <circle
       style="opacity:1;fill:#000000;fill-opacity:1;stroke:#00449e;stroke-width:2.55149221;stroke-linecap:round;stroke-linejoin:round;stroke-miterlimit:4;stroke-dasharray:none;stroke-opacity:1"
       id="circle1004"
       cx="35.529022"
       cy="25.62781"
       r="1.4546969" />
    <circle
       r="1.4546969"
       cy="23.848698"
       cx="44.869358"
       id="circle1006"
       style="opacity:1;fill:#000000;fill-opacity:1;stroke:#00449e;stroke-width:2.55149221;stroke-linecap:round;stroke-linejoin:round;stroke-miterlimit:4;stroke-dasharray:none;stroke-opacity:1" />
    <circle
       style="opacity:1;fill:#000000;fill-opacity:1;stroke:#00449e;stroke-width:2.55149221;stroke-linecap:round;stroke-linejoin:round;stroke-miterlimit:4;stroke-dasharray:none;stroke-opacity:1"
       id="circle1008"
       cx="151.83849"
       cy="29.186031"
       r="1.4546969" />
    <circle
       r="1.4546969"
       cy="31.409916"
       cx="164.29227"
       id="circle1010"
       style="opacity:1;fill:#000000;fill-opacity:1;stroke:#00449e;stroke-width:2.55149221;stroke-linecap:round;stroke-linejoin:round;stroke-miterlimit:4;stroke-dasharray:none;stroke-opacity:1" />
    <path
       style="fill:none;fill-rule:evenodd;stroke:#00449e;stroke-width:5.460886;stroke-linecap:butt;stroke-linejoin:miter;stroke-miterlimit:4;stroke-dasharray:none;stroke-opacity:1"
       d="M 63.21722,37.233047 C 48.108121,40.554142 37.935962,46.873458 33.155836,68.995"
       id="path1012"
       inkscape:connector-curvature="0"
       sodipodi:nodetypes="cc" />
    <path
       style="fill:none;fill-rule:evenodd;stroke:#00449e;stroke-width:5.460886;stroke-linecap:round;stroke-linejoin:round;stroke-miterlimit:4;stroke-dasharray:none;stroke-opacity:1"
       d="M 124.2241,2.5125528 C 110.63512,16.079433 99.577595,17.411 89.531412,13.854392"
       id="path1014"
       inkscape:connector-curvature="0"
       sodipodi:nodetypes="cc" />
    <path
       style="fill:none;fill-rule:evenodd;stroke:#00449e;stroke-width:5.460886;stroke-linecap:butt;stroke-linejoin:miter;stroke-miterlimit:4;stroke-dasharray:none;stroke-opacity:1"
       d="M 56.279917,57.841097 50.613331,69.269558"
       id="path1016"
       inkscape:connector-curvature="0" />
    <path
       style="fill:none;fill-rule:evenodd;stroke:#00449e;stroke-width:5.55555534;stroke-linecap:butt;stroke-linejoin:miter;stroke-miterlimit:4;stroke-dasharray:none;stroke-opacity:1"
       d="m 85.618928,-7.7048889 c 8.582734,-1.7933889 17.231972,-2.7887281 26.236542,0.4799306"
       id="path854"
       inkscape:connector-curvature="0"
       sodipodi:nodetypes="cc" />
  </g>
</svg>
