<?xml version="1.0" encoding="UTF-8" standalone="no"?>
<!-- Created with Inkscape (http://www.inkscape.org/) -->

<svg
   xmlns:dc="http://purl.org/dc/elements/1.1/"
   xmlns:cc="http://creativecommons.org/ns#"
   xmlns:rdf="http://www.w3.org/1999/02/22-rdf-syntax-ns#"
   xmlns:svg="http://www.w3.org/2000/svg"
   xmlns="http://www.w3.org/2000/svg"
   xmlns:sodipodi="http://sodipodi.sourceforge.net/DTD/sodipodi-0.dtd"
   xmlns:inkscape="http://www.inkscape.org/namespaces/inkscape"
   width="56.659443"
   height="72"
   viewBox="0 0 56.659442 72"
   id="svg2"
   version="1.1"
   inkscape:version="0.92.2 5c3e80d, 2017-08-06"
   sodipodi:docname="archeostickers_icon_negative.svg"
   inkscape:export-filename="/Users/lucacorsato/Desktop/archeodribbble/public/stickers/lewis_chessmen.png"
   inkscape:export-xdpi="300"
   inkscape:export-ydpi="300">
  <defs
     id="defs4" />
  <sodipodi:namedview
     id="base"
     pagecolor="#ffffff"
     bordercolor="#666666"
     borderopacity="1.0"
     inkscape:pageopacity="0.0"
     inkscape:pageshadow="2"
     inkscape:zoom="8.6816999"
     inkscape:cx="34.518121"
     inkscape:cy="32.9058"
     inkscape:document-units="px"
     inkscape:current-layer="layer2"
     showgrid="false"
     units="px"
     inkscape:window-width="1920"
     inkscape:window-height="1097"
     inkscape:window-x="0"
     inkscape:window-y="1"
     inkscape:window-maximized="1"
     fit-margin-top="0"
     fit-margin-left="0"
     fit-margin-right="0"
     fit-margin-bottom="0"
     inkscape:snap-bbox="true"
     inkscape:bbox-paths="true"
     inkscape:bbox-nodes="true"
     inkscape:snap-bbox-edge-midpoints="true"
     inkscape:snap-bbox-midpoints="true"
     inkscape:object-paths="true"
     inkscape:snap-intersection-paths="true"
     inkscape:snap-smooth-nodes="true"
     inkscape:snap-midpoints="true"
     inkscape:snap-object-midpoints="true"
     inkscape:snap-center="true"
     inkscape:snap-text-baseline="true"
     inkscape:snap-page="true"
     inkscape:snap-global="true" />
  <metadata
     id="metadata7">
    <rdf:RDF>
      <cc:Work
         rdf:about="">
        <dc:format>image/svg+xml</dc:format>
        <dc:type
           rdf:resource="http://purl.org/dc/dcmitype/StillImage" />
        <dc:title></dc:title>
      </cc:Work>
    </rdf:RDF>
  </metadata>
  <g
     inkscape:groupmode="layer"
     id="layer2"
     inkscape:label="sfondo"
     style="display:inline">
    <g
       id="g1290"
       style="fill:none">
      <path
         inkscape:connector-curvature="0"
         id="path1206"
         d="m 14.949076,36.97084 c -1.213384,0.191495 -1.936162,1.350107 -2.839345,2.07107 -4.382032,4.090341 -8.2246707,9.026929 -9.9008475,14.865861 -0.3530507,1.318699 -0.7476989,2.667518 -0.811038,4.028819 0.048555,1.137575 1.3316269,1.656705 2.3093402,1.300012 2.304039,-0.414725 4.6266895,-0.743637 6.9152603,-1.235084 1.218712,-0.499341 1.173355,-1.983798 1.589236,-3.038509 1.50614,-5.335041 3.043157,-10.663858 4.415898,-16.034702 0.200839,-1.019902 -0.613052,-2.041199 -1.678504,-1.957467 z M 8.5093,54.147775 C 9.0988933,54.210645 9.0913944,55.21589 8.435735,55.13742 7.8013349,55.05413 7.939536,54.191153 8.5093,54.147775 Z m -3.3556576,0.68211 c 0.5717845,0.03884 0.5894498,0.903598 -0.00405,0.943301 -0.6270552,0.133688 -0.7037873,-1.062189 0.00405,-0.943301 z"
         style="opacity:1;fill:none;fill-opacity:1;stroke:none;stroke-width:0.23036963;stroke-linecap:round;stroke-linejoin:round;stroke-miterlimit:4;stroke-dasharray:none;stroke-opacity:1" />
      <path
         inkscape:connector-curvature="0"
         id="path1208"
         d="m 15.556946,41.4428 c -1.075761,0.753753 -0.982793,2.243832 -1.438327,3.366548 -1.158071,4.090305 -2.291961,8.18763 -3.492573,12.265742 -2.7935071,0.569586 -5.6412774,0.914415 -8.4201253,1.51443 -1.32589703,0.449884 -1.0897646,2.084366 -1.22041039,3.209518 -0.15252237,2.711767 -0.24271974,5.43503 -0.53554781,8.132882 0.0550793,1.160693 1.3151141,1.672638 2.328218,1.520574 0.9969951,0.162109 2.0662238,-0.40942 2.1815479,-1.476313 0.7059065,-2.571321 1.6896828,-5.201854 3.7385467,-7.019242 1.6345209,-1.621089 3.8771559,-2.342863 6.0309219,-2.958481 1.195904,-0.532406 1.150164,-2.064316 1.632414,-3.117618 0.886559,-2.826546 1.908681,-5.625302 2.710134,-8.469339 0.04028,-1.237403 -0.534686,-2.423099 -0.751885,-3.638427 -0.4206,-1.135761 -0.275765,-2.68597 -1.441888,-3.373018 -0.463843,-0.146018 -0.865111,-0.133359 -1.321026,0.04274 z"
         style="opacity:1;fill:none;fill-opacity:1;stroke:none;stroke-width:0.23036963;stroke-linecap:round;stroke-linejoin:round;stroke-miterlimit:4;stroke-dasharray:none;stroke-opacity:1" />
      <path
         inkscape:connector-curvature="0"
         id="path1210"
         d="m 13.139865,59.602181 c -2.409356,0.527164 -4.6240123,1.928833 -6.1515894,3.87039 -1.4760426,1.790604 -2.3370709,4.013679 -2.8877194,6.241802 -0.081288,1.048093 0.9321306,1.786361 1.9127593,1.700163 1.5289126,-0.0013 3.0944193,0.18992 4.5963075,-0.114122 1.002819,-0.6985 1.222567,-2.014754 1.807637,-3.031475 0.982514,-2.266985 1.826273,-4.615681 2.384095,-7.021154 0.0591,-0.908257 -0.737184,-1.735096 -1.66149,-1.645604 z"
         style="opacity:1;fill:none;fill-opacity:1;stroke:none;stroke-width:0.23036963;stroke-linecap:round;stroke-linejoin:round;stroke-miterlimit:4;stroke-dasharray:none;stroke-opacity:1" />
      <path
         inkscape:connector-curvature="0"
         id="path1212"
         d="m 22.133279,47.355246 c -1.122055,0.134505 -2.295577,0.148485 -3.362182,0.542853 -1.002523,0.727142 -1.013557,2.101312 -1.481217,3.161826 -1.603755,4.934646 -3.272795,9.856494 -4.80329,14.809733 -0.288026,1.112517 0.7792,1.900275 1.773061,2.031306 2.438118,0.733819 4.856747,1.540598 7.312552,2.211381 1.083863,0.152473 1.882553,-0.871358 1.804167,-1.89147 0.506239,-6.031506 1.036365,-12.06887 1.474395,-18.101119 -0.10603,-0.977216 -0.827527,-1.815436 -1.553939,-2.438078 -0.341178,-0.227803 -0.753713,-0.343345 -1.163547,-0.326432 z"
         style="opacity:1;fill:none;fill-opacity:1;stroke:none;stroke-width:0.23036963;stroke-linecap:round;stroke-linejoin:round;stroke-miterlimit:4;stroke-dasharray:none;stroke-opacity:1" />
      <path
         inkscape:connector-curvature="0"
         id="path1214"
         d="m 13.0591,66.736216 c -1.330136,0.17297 -1.668297,1.671126 -2.152854,2.681874 -0.461782,1.144205 0.718343,2.266273 1.859042,2.033606 2.083659,-0.03882 4.183479,0.06231 6.257222,-0.06271 1.314178,-0.104697 1.728497,-2.078242 0.569395,-2.705181 -1.43604,-0.649128 -3.027533,-0.989503 -4.53275,-1.493323 -0.660351,-0.161959 -1.310147,-0.465989 -2.000055,-0.454266 z"
         style="opacity:1;fill:none;fill-opacity:1;stroke:none;stroke-width:0.23036963;stroke-linecap:round;stroke-linejoin:round;stroke-miterlimit:4;stroke-dasharray:none;stroke-opacity:1" />
      <path
         inkscape:connector-curvature="0"
         id="path1216"
         d="m 34.970312,48.664798 c -1.293907,0.282338 -2.245752,1.356372 -3.506225,1.763117 -1.870806,0.889521 -4.004491,0.772198 -6.004622,0.543954 -1.133872,-0.05163 -1.795217,1.098124 -1.732946,2.118771 -0.511898,5.609326 -0.927008,11.237217 -1.408241,16.842986 -0.05811,1.132436 1.181181,1.69715 2.168416,1.51883 2.591208,-0.03447 5.198014,0.06837 7.779457,-0.05207 1.144452,-0.123287 1.422856,-1.417722 1.289082,-2.378697 -0.05551,-3.270425 0.06215,-6.602841 0.746017,-9.777213 0.565573,-2.960378 1.440113,-5.879474 2.251503,-8.804439 0.135107,-0.934594 -0.634299,-1.807335 -1.582441,-1.775241 z"
         style="opacity:1;fill:none;fill-opacity:1;stroke:none;stroke-width:0.23036963;stroke-linecap:round;stroke-linejoin:round;stroke-miterlimit:4;stroke-dasharray:none;stroke-opacity:1" />
      <path
         inkscape:connector-curvature="0"
         id="path1218"
         d="m 20.562311,35.53148 c -1.039014,-0.05125 -2.247986,0.522333 -2.286599,1.693351 -0.130571,0.470353 -0.916278,0.410008 -1.168495,0.875585 -0.512836,0.49875 -0.385578,1.24801 -0.42227,1.86118 -0.477624,1.368116 0.289365,2.773545 0.506725,4.121387 0.396922,1.303498 0.510035,2.712905 1.134884,3.931426 0.932754,0.922131 2.317952,0.372226 3.465443,0.298311 1.125503,-0.07871 1.76294,-1.259663 1.440679,-2.29058 -0.385298,-3.094956 -0.678857,-6.210746 -1.125405,-9.292629 -0.155408,-0.707206 -0.822137,-1.218343 -1.544962,-1.198031 z"
         style="opacity:1;fill:none;fill-opacity:1;stroke:none;stroke-width:0.23036963;stroke-linecap:round;stroke-linejoin:round;stroke-miterlimit:4;stroke-dasharray:none;stroke-opacity:1" />
      <path
         inkscape:connector-curvature="0"
         id="path1220"
         d="m 28.942006,16.525085 c -2.71571,-0.05697 -5.423112,0.331394 -8.016852,1.135565 -1.65955,0.532663 -3.382902,1.034708 -4.857102,1.973177 -0.738053,0.809115 -0.80988,2.028006 -1.17077,3.042092 -0.495336,2.017073 -0.609808,4.127249 -0.498708,6.194189 0.115658,1.303201 1.629883,1.959448 2.756561,1.450609 0.47715,-0.174127 0.875427,-0.563107 1.037563,-1.047012 0.71734,-0.02633 1.026749,0.749331 1.733007,0.764745 1.102853,-0.285797 0.569512,0.148589 0.602403,0.971908 0.6461,5.497737 1.312584,10.989914 1.949601,16.487294 0.191066,0.986483 1.188938,1.620828 1.448359,2.533166 -0.05828,1.154011 1.088015,1.810617 2.09909,1.917953 2.858607,0.525606 5.842032,-0.304216 8.17405,-1.999115 1.317261,-0.969203 2.665417,-1.979987 3.684145,-3.260545 1.219517,-3.064589 2.504215,-6.11499 3.728533,-9.181717 0.907283,-2.385014 0.732798,-4.995733 0.581549,-7.492413 -0.231434,-2.110805 -0.77252,-4.20658 -0.869018,-6.315588 -0.08364,-1.282987 0.169557,-2.545151 0.277795,-3.811001 -0.02791,-1.300315 -1.427173,-1.703003 -2.464099,-1.959042 -3.011528,-0.814603 -6.096062,-1.472937 -9.233009,-1.40224 -0.321022,-0.0032 -0.642064,-0.0039 -0.963098,-0.002 z m -6.123692,9.237957 c 0.719472,0.02048 0.459449,1.195186 -0.201349,0.961074 -0.510873,-0.210435 -0.341278,-0.991561 0.201349,-0.961074 z m 10.712412,0.04792 c 0.657771,-0.0058 0.575289,1.12077 -0.07379,0.995044 -0.660104,-0.113795 -0.503841,-0.896106 0.07379,-0.995044 z"
         style="opacity:1;fill:none;fill-opacity:1;stroke:none;stroke-width:0.23036963;stroke-linecap:round;stroke-linejoin:round;stroke-miterlimit:4;stroke-dasharray:none;stroke-opacity:1" />
      <path
         inkscape:connector-curvature="0"
         id="path1222"
         d="m 40.080963,40.396688 c -1.185699,0.533309 -1.355341,1.997047 -1.887199,3.045257 -2.806068,7.210885 -5.289295,14.717095 -5.617423,22.508924 0.03005,1.492216 -0.216773,3.0548 0.237219,4.496317 0.451524,1.305073 2.036697,0.969786 3.115575,1.005308 6.323603,-0.01729 12.655047,0.03448 18.973766,-0.02583 1.134933,-0.06659 1.565698,-1.297924 1.381551,-2.277644 -0.172374,-2.529637 -0.232928,-5.083665 -0.547757,-7.593331 -0.275304,-1.318953 -1.838956,-1.213098 -2.885783,-1.355833 -2.981601,-0.339492 -5.963553,-0.675375 -8.945453,-1.012297 -0.628535,-5.93095 -1.154618,-11.877201 -1.855106,-17.797854 -0.262343,-0.805653 -1.16694,-1.258306 -1.96939,-0.993019 z"
         style="opacity:1;fill:none;fill-opacity:1;stroke:none;stroke-width:0.23036963;stroke-linecap:round;stroke-linejoin:round;stroke-miterlimit:4;stroke-dasharray:none;stroke-opacity:1" />
      <path
         inkscape:connector-curvature="0"
         id="path1224"
         d="m 42.391633,38.158683 c -1.053152,0.115441 -1.562932,1.256241 -1.322449,2.206753 0.616496,6.219803 1.20313,12.446421 1.953266,18.650473 0.295523,1.044434 1.426656,1.220041 2.351838,1.276441 2.884108,0.337123 5.774487,0.70707 8.66301,0.952124 1.1385,0.04708 1.78977,-1.195736 1.471721,-2.197216 -0.626259,-4.40737 -1.734325,-8.830665 -4.023353,-12.68971 -2.10877,-3.311637 -4.968733,-6.203275 -8.412823,-8.111351 -0.21789,-0.09131 -0.451028,-0.07458 -0.68121,-0.08751 z m 4.633939,17.947459 c 0.68858,0.0026 0.495326,1.195387 -0.200898,0.941501 -0.524256,-0.300269 -0.344839,-0.918449 0.200898,-0.941501 z m 4.384672,0.79662 c 0.66971,-0.132088 0.700394,1.087264 0.03082,0.956349 -0.517688,-0.07308 -0.635055,-0.786968 -0.03082,-0.956349 z"
         style="opacity:1;fill:none;fill-opacity:1;stroke:none;stroke-width:0.23036963;stroke-linecap:round;stroke-linejoin:round;stroke-miterlimit:4;stroke-dasharray:none;stroke-opacity:1" />
      <path
         inkscape:connector-curvature="0"
         id="path1226"
         d="M 32.190578,0.69302237 C 30.665559,0.87162393 29.109745,1.0596297 27.650902,1.5517342 26.596246,2.1693727 26.500739,3.5488442 25.962286,4.5499276 25.451469,5.5367594 25.067132,6.9459007 23.851377,7.2450585 22.40166,7.2212268 20.603083,6.9480638 19.927895,5.4655432 19.182723,4.1531378 19.199392,2.1247188 17.572905,1.5024657 16.106088,1.0459509 14.931126,2.4943372 14.470564,3.7195484 c -1.098687,3.0154728 -0.999807,6.3002566 -0.998643,9.4633776 0.103731,2.116827 0.05632,4.263421 0.37931,6.356659 0.230493,1.183962 1.706114,1.464821 2.604179,0.826066 3.630586,-1.725587 7.582992,-2.851623 11.546895,-2.897041 2.796511,-0.134803 5.579822,0.09863 8.344826,0.732955 1.374126,0.256231 2.700072,0.725641 4.056889,1.033738 1.165049,0.109576 1.89106,-1.10545 1.735196,-2.153417 C 42.432708,12.924982 43.561848,8.656943 42.406931,4.5366407 42.156585,3.5634989 41.762725,2.2425912 40.524213,2.2983092 39.137066,2.4717334 38.633088,4.018004 37.972486,5.0581265 37.518759,5.7952244 37.179312,6.7165705 36.488862,7.242134 35.842419,6.6648913 36.0006,5.6539048 35.674244,4.9028924 35.256325,3.5981136 34.800841,2.2003896 33.829486,1.2005555 33.378252,0.81810628 32.773495,0.66578657 32.190578,0.69302237 Z M 33.151652,13.678311 c 0.757981,-0.01048 0.437878,1.251453 -0.206974,0.91158 -0.498633,-0.177102 -0.310628,-0.959697 0.206974,-0.91158 z m -5.274431,0.01552 c 0.852741,-0.113048 0.545359,1.267735 -0.165127,0.917879 -0.410096,-0.220413 -0.326337,-0.878586 0.165127,-0.917879 z m 10.288569,0.35163 c 0.694173,0.0177 0.309298,1.255695 -0.272888,0.90303 -0.431537,-0.22328 -0.311577,-1.072929 0.272888,-0.90303 z m -15.552874,0.1847 c 0.623116,-0.01671 0.671223,0.923748 0.07896,0.989645 -0.496127,0.03513 -0.776278,-0.668287 -0.283012,-0.92103 0.05061,-0.06259 0.129707,-0.07313 0.204048,-0.06862 z m -4.768697,1.293579 c 0.674288,0.0044 0.547774,1.031614 -0.05354,0.982446 -0.582104,-0.07926 -0.596598,-1.040088 0.05354,-0.982446 z"
         style="opacity:1;fill:none;fill-opacity:1;stroke:none;stroke-width:0.23036963;stroke-linecap:round;stroke-linejoin:round;stroke-miterlimit:4;stroke-dasharray:none;stroke-opacity:1" />
    </g>
  </g>
  <g
     inkscape:groupmode="layer"
     id="layer1"
     inkscape:label="Disegno"
     style="display:inline"
     sodipodi:insensitive="true">
    <g
       id="g1277"
       style="stroke:#fbf1a9;stroke-opacity:1">
      <g
         style="stroke:#fbf1a9;stroke-opacity:1"
         transform="matrix(0.98295947,0,0,0.98295947,0.46295569,0.54969148)"
         id="g1146">
        <path
           inkscape:connector-curvature="0"
           style="fill:none;fill-rule:evenodd;stroke:#fbf1a9;stroke-width:2;stroke-linecap:round;stroke-linejoin:round;stroke-miterlimit:4;stroke-dasharray:none;stroke-opacity:1"
           d="M 15.537281,36.505574 C -2.2323792,51.139605 2.0885852,60.713422 0.29023325,71.688967 H 56.40948 C 55.63939,58.643734 55.94006,45.162548 41.362228,37.739054"
           id="path1064" />
        <path
           inkscape:connector-curvature="0"
           style="fill:none;fill-rule:evenodd;stroke:#fbf1a9;stroke-width:2;stroke-linecap:round;stroke-linejoin:round;stroke-miterlimit:4;stroke-dasharray:none;stroke-opacity:1"
           d="m 41.852176,18.999716 c -2.614443,5.297829 2.127211,11.400834 -0.489948,18.739338"
           id="path1062" />
        <path
           inkscape:connector-curvature="0"
           style="fill:none;fill-rule:evenodd;stroke:#fbf1a9;stroke-width:2;stroke-linecap:round;stroke-linejoin:round;stroke-miterlimit:4;stroke-dasharray:none;stroke-opacity:1"
           d="m 16.103337,19.728964 c -2.718081,6.104517 -0.988038,11.918044 -0.566056,16.77661"
           id="path1060" />
        <path
           inkscape:connector-curvature="0"
           style="fill:none;fill-rule:evenodd;stroke:#fbf1a9;stroke-width:2;stroke-linecap:round;stroke-linejoin:round;stroke-miterlimit:4;stroke-dasharray:none;stroke-opacity:1"
           d="M 14.146467,20.773099 C 22.512655,15.94536 31.748432,15.356867 41.852176,18.999716 41.665289,13.303765 44.313715,7.3897136 41.286033,1.9122856 38.938181,1.5100267 37.3467,10.175138 35.795354,6.3664929 35.423822,4.2253623 34.847943,2.1523475 33.187745,0.44077225 L 27.643235,1.3182472 C 26.338373,3.6618062 25.749727,7.6765366 23.271377,7.2819582 17.053273,6.9553381 20.054943,1.1268564 16.539537,1.3665178 13.598338,2.0002695 13.18618,9.518635 14.146467,20.773099 Z"
           id="path1000" />
      </g>
      <path
         sodipodi:nodetypes="cc"
         inkscape:connector-curvature="0"
         id="path893"
         d="M 28.483972,23.606986 C 23.221117,16.479709 18.9603,21.680366 18.05301,24.59049"
         style="fill:none;fill-rule:evenodd;stroke:#fbf1a9;stroke-width:1.9659189;stroke-linecap:butt;stroke-linejoin:round;stroke-miterlimit:4;stroke-dasharray:none;stroke-opacity:1" />
      <path
         sodipodi:nodetypes="cc"
         inkscape:connector-curvature="0"
         id="path897"
         d="M 28.323852,22.646265 27.55132,36.903284"
         style="fill:none;fill-rule:evenodd;stroke:#fbf1a9;stroke-width:1.9659189;stroke-linecap:butt;stroke-linejoin:miter;stroke-miterlimit:4;stroke-dasharray:none;stroke-opacity:1" />
      <path
         sodipodi:nodetypes="cc"
         inkscape:connector-curvature="0"
         id="path900"
         d="m 28.483972,22.726325 c 2.927096,-4.197524 7.708366,-4.334221 10.512486,2.283612"
         style="fill:none;fill-rule:evenodd;stroke:#fbf1a9;stroke-width:1.86762297;stroke-linecap:butt;stroke-linejoin:miter;stroke-miterlimit:4;stroke-dasharray:none;stroke-opacity:1" />
      <path
         sodipodi:nodetypes="cc"
         inkscape:connector-curvature="0"
         id="path906"
         d="m 24.032392,42.959035 c 3.531855,-2.743072 6.45024,-2.715978 8.287175,0.877457"
         style="fill:none;fill-rule:evenodd;stroke:#fbf1a9;stroke-width:1.9659189;stroke-linecap:butt;stroke-linejoin:miter;stroke-miterlimit:4;stroke-dasharray:none;stroke-opacity:1" />
      <path
         inkscape:connector-curvature="0"
         id="path967"
         d="m 18.70619,48.222117 -2.970717,-11.788926 1.469591,3.560532 -0.636397,-10.055665 1.359161,8.165358 -0.05986,-9.574536 0.893818,9.129758 0.2751,-8.76769 1.04078,7.205405 0.720541,-6.805105 2.161621,18.413812 z"
         style="fill:none;fill-rule:evenodd;stroke:#fbf1a9;stroke-width:1.9659189;stroke-linecap:round;stroke-linejoin:round;stroke-miterlimit:4;stroke-dasharray:none;stroke-opacity:1" />
      <path
         inkscape:connector-curvature="0"
         id="path970"
         d="M 18.70619,48.222117 12.590492,66.902795 22.77639,70.046171 24.432707,49.77884 22.959826,47.70506 Z"
         style="fill:none;fill-rule:evenodd;stroke:#fbf1a9;stroke-width:1.9659189;stroke-linecap:butt;stroke-linejoin:miter;stroke-miterlimit:4;stroke-dasharray:none;stroke-opacity:1" />
      <path
         sodipodi:nodetypes="cc"
         inkscape:connector-curvature="0"
         id="path972"
         d="M 41.120334,37.636607 C 35.967745,49.383041 32.129008,60.761733 33.175903,70.77295"
         style="fill:none;fill-rule:evenodd;stroke:#fbf1a9;stroke-width:1.9659189;stroke-linecap:butt;stroke-linejoin:miter;stroke-miterlimit:4;stroke-dasharray:none;stroke-opacity:1" />
      <path
         sodipodi:nodetypes="cc"
         inkscape:connector-curvature="0"
         id="path974"
         d="M 16.470269,38.213457 10.998204,57.523179 2.2270353,59.003172"
         style="fill:none;fill-rule:evenodd;stroke:#fbf1a9;stroke-width:1.9659189;stroke-linecap:butt;stroke-linejoin:miter;stroke-miterlimit:4;stroke-dasharray:none;stroke-opacity:1" />
      <circle
         r="0.52369088"
         cy="26.248966"
         cx="22.799709"
         id="path978"
         style="opacity:1;fill:#000000;fill-opacity:1;stroke:#fbf1a9;stroke-width:0.9185372;stroke-linecap:round;stroke-linejoin:round;stroke-miterlimit:4;stroke-dasharray:none;stroke-opacity:1" />
      <circle
         style="opacity:1;fill:#000000;fill-opacity:1;stroke:#fbf1a9;stroke-width:0.9185372;stroke-linecap:round;stroke-linejoin:round;stroke-miterlimit:4;stroke-dasharray:none;stroke-opacity:1"
         id="circle980"
         cx="33.527756"
         cy="26.329027"
         r="0.52369088" />
      <circle
         style="opacity:1;fill:#000000;fill-opacity:1;stroke:#fbf1a9;stroke-width:0.9185372;stroke-linecap:round;stroke-linejoin:round;stroke-miterlimit:4;stroke-dasharray:none;stroke-opacity:1"
         id="circle982"
         cx="17.835985"
         cy="16.00128"
         r="0.52369088" />
      <circle
         r="0.52369088"
         cy="14.720321"
         cx="22.639589"
         id="circle984"
         style="opacity:1;fill:#000000;fill-opacity:1;stroke:#fbf1a9;stroke-width:0.9185372;stroke-linecap:round;stroke-linejoin:round;stroke-miterlimit:4;stroke-dasharray:none;stroke-opacity:1" />
      <circle
         style="opacity:1;fill:#000000;fill-opacity:1;stroke:#fbf1a9;stroke-width:0.9185372;stroke-linecap:round;stroke-linejoin:round;stroke-miterlimit:4;stroke-dasharray:none;stroke-opacity:1"
         id="circle986"
         cx="27.923552"
         cy="14.1599"
         r="0.52369088" />
      <circle
         r="0.52369088"
         cy="14.1599"
         cx="33.127457"
         id="circle988"
         style="opacity:1;fill:#000000;fill-opacity:1;stroke:#fbf1a9;stroke-width:0.9185372;stroke-linecap:round;stroke-linejoin:round;stroke-miterlimit:4;stroke-dasharray:none;stroke-opacity:1" />
      <circle
         style="opacity:1;fill:#000000;fill-opacity:1;stroke:#fbf1a9;stroke-width:0.9185372;stroke-linecap:round;stroke-linejoin:round;stroke-miterlimit:4;stroke-dasharray:none;stroke-opacity:1"
         id="circle990"
         cx="38.091183"
         cy="14.480141"
         r="0.52369088" />
      <path
         sodipodi:nodetypes="cc"
         inkscape:connector-curvature="0"
         id="path996"
         d="m 31.045893,28.570708 c 1.541997,1.230053 3.315805,1.060878 5.283964,0.16012"
         style="fill:none;fill-rule:evenodd;stroke:#fbf1a9;stroke-width:1.9659189;stroke-linecap:butt;stroke-linejoin:bevel;stroke-miterlimit:4;stroke-dasharray:none;stroke-opacity:1" />
      <path
         style="fill:none;fill-rule:evenodd;stroke:#fbf1a9;stroke-width:1.9659189;stroke-linecap:butt;stroke-linejoin:bevel;stroke-miterlimit:4;stroke-dasharray:none;stroke-opacity:1"
         d="m 20.077667,28.810888 c 1.541997,1.230053 3.315804,1.060879 5.283964,0.16012"
         id="path998"
         inkscape:connector-curvature="0"
         sodipodi:nodetypes="cc" />
      <path
         inkscape:connector-curvature="0"
         id="path1002"
         d="m 41.258729,37.717568 2.22179,21.907058 11.714592,1.30874"
         style="fill:none;fill-rule:evenodd;stroke:#fbf1a9;stroke-width:1.9659189;stroke-linecap:butt;stroke-linejoin:miter;stroke-miterlimit:4;stroke-dasharray:none;stroke-opacity:1" />
      <circle
         r="0.52369088"
         cy="55.306011"
         cx="5.1201692"
         id="circle1004"
         style="opacity:1;fill:#000000;fill-opacity:1;stroke:#fbf1a9;stroke-width:0.9185372;stroke-linecap:round;stroke-linejoin:round;stroke-miterlimit:4;stroke-dasharray:none;stroke-opacity:1" />
      <circle
         style="opacity:1;fill:#000000;fill-opacity:1;stroke:#fbf1a9;stroke-width:0.9185372;stroke-linecap:round;stroke-linejoin:round;stroke-miterlimit:4;stroke-dasharray:none;stroke-opacity:1"
         id="circle1006"
         cx="8.4826908"
         cy="54.665531"
         r="0.52369088" />
      <circle
         r="0.52369088"
         cy="56.586971"
         cx="46.991577"
         id="circle1008"
         style="opacity:1;fill:#000000;fill-opacity:1;stroke:#fbf1a9;stroke-width:0.9185372;stroke-linecap:round;stroke-linejoin:round;stroke-miterlimit:4;stroke-dasharray:none;stroke-opacity:1" />
      <circle
         style="opacity:1;fill:#000000;fill-opacity:1;stroke:#fbf1a9;stroke-width:0.9185372;stroke-linecap:round;stroke-linejoin:round;stroke-miterlimit:4;stroke-dasharray:none;stroke-opacity:1"
         id="circle1010"
         cx="51.474937"
         cy="57.387569"
         r="0.52369088" />
      <path
         sodipodi:nodetypes="cc"
         inkscape:connector-curvature="0"
         id="path1012"
         d="M 15.087921,59.483897 C 9.6486452,60.679491 5.986668,62.954445 4.2658229,70.9182"
         style="fill:none;fill-rule:evenodd;stroke:#fbf1a9;stroke-width:1.9659189;stroke-linecap:butt;stroke-linejoin:miter;stroke-miterlimit:4;stroke-dasharray:none;stroke-opacity:1" />
      <path
         sodipodi:nodetypes="cc"
         inkscape:connector-curvature="0"
         id="path1014"
         d="M 37.050397,46.984519 C 32.158366,51.868596 28.177656,52.34796 24.56103,51.067581"
         style="fill:none;fill-rule:evenodd;stroke:#fbf1a9;stroke-width:1.9659189;stroke-linecap:round;stroke-linejoin:round;stroke-miterlimit:4;stroke-dasharray:none;stroke-opacity:1" />
      <path
         inkscape:connector-curvature="0"
         id="path1016"
         d="m 12.590492,66.902795 -2.039971,4.114246"
         style="fill:none;fill-rule:evenodd;stroke:#fbf1a9;stroke-width:1.9659189;stroke-linecap:butt;stroke-linejoin:miter;stroke-miterlimit:4;stroke-dasharray:none;stroke-opacity:1" />
    </g>
  </g>
</svg>
